<?xml version="1.0" encoding="UTF-8"?>
<svg width="710px" height="150px" viewBox="0 0 710 150" version="1.1" xmlns="http://www.w3.org/2000/svg" xmlns:xlink="http://www.w3.org/1999/xlink">
    <title>our-packages</title>
    <g id="our-packages" stroke="none" stroke-width="1" fill="none" fill-rule="evenodd">
        <path d="M122.3,126.02 C126.78,126.02 133.85,122.45 143.72,113.7 C149.04,108.87 151.7,106.49 152.68,106.49 C153.66,106.49 179.84,102.36 204.9,81.29 C206.65,79.82 207.35,79.05 207.35,78.7 C207.35,78.56 207.28,78.56 207.07,78.56 C206.37,78.56 204.13,79.75 202.03,81.57 C189.71,92.14 164.65,104.25 153.8,104.25 C161.36,94.8 171.09,82.13 179.21,67.36 C188.59,50.42 194.54,31.94 194.54,20.6 C194.54,6.18 184.11,1 172.91,1 C150.65,1 118.1,21.72 110.05,59.73 C109.35,63.3 109,67.01 109,70.51 C109,80.87 112.01,90.39 117.54,95.99 L121.25,99.77 C118.03,108.24 116.21,112.09 116.21,118.18 C116.21,123.01 118.17,126.02 122.3,126.02 Z M151.91,104.25 L145.33,104.11 C139.59,104.11 127.34,101.38 125.38,99.63 L125.24,99.21 C125.24,97.1923077 130.555714,89.3241843 136.358792,82.1418257 L136.930988,81.4378061 C139.606982,78.1648521 142.352308,75.0815385 144.7,72.82 C147.5,70.09 148.9,68.55 148.9,67.78 C148.9,67.29 148.34,67.08 147.29,67.08 C143.44,67.08 128.46,85.14 124.12,94.52 C123.42,96.13 122.79,96.9 122.09,96.9 C121.18,96.9 120.06,95.71 118.24,93.26 C114.18,88.08 112.01,79.68 112.01,70.65 C112.01,64.77 112.99,58.54 114.88,52.87 C125.52,20.46 153.94,2.05 173.26,2.05 C184.25,2.05 192.3,8.07 192.3,20.95 C192.3,42.51 176.76,72.96 151.91,104.25 Z M122.58,125.04 C119.99,125.04 118.38,123.29 118.38,118.81 C118.38,113.77 120.97,107.61 123.98,100.89 L129.09,102.64 C135.11,104.88 145.54,105.72 150.3,106.49 C145.4,110.2 130.07,125.04 122.58,125.04 Z M228.98,86.82 C230.45,86.82 232.2,86.54 234.3,85.98 C239.69,84.51 246.55,80.1 247.81,78.98 L247.95,78.7 L247.88,78.7 C246.9,78.7 235.91,86.19 229.4,86.19 C226.88,86.19 224.78,84.72 224.78,82.2 C224.78,79.75 227.16,76.18 227.16,74.78 C227.16,74.29 226.95,74.08 226.53,74.08 C225.55,74.08 223.52,75.2 220.23,77.51 C213.44,82.41 209.87,84.44 208.26,84.44 C207.42,84.44 207.14,83.88 207.14,82.9 C207.14,80.94 208.12,78.91 208.54,75.2 C208.54,74.29 208.19,73.8 207.7,73.8 C206.93,73.8 205.81,74.85 205.04,76.88 C204.34,78.98 203.99,80.73 203.99,82.13 C203.99,84.65 205.11,85.91 207.28,85.91 C209.45,85.91 212.67,84.58 216.73,81.85 C217.99,80.9852941 218.997128,80.286263 219.803702,79.7436739 L220.190519,79.4853735 C221.425813,78.6675433 222.128235,78.28 222.54,78.28 C222.89,78.28 222.96,78.63 222.96,79.19 L222.96,80.38 C222.96,84.16 224.43,86.82 228.98,86.82 Z M249.98,95.36 C255.86,95.36 272.94,79.68 272.94,79.05 L272.24,79.4 C270.91,80.73 254.88,94.87 250.12,94.87 C249.35,94.87 248.86,94.45 248.86,93.47 C248.86,91.3 253.13,84.65 253.13,81.85 C253.13,79.75 251.31,79.82 248.09,78.91 C250.12,75.55 251.17,74.29 251.17,72.12 C251.17,70.65 250.26,69.88 249,69.88 C247.53,69.88 245.57,71.07 244.52,73.52 C244.03,74.85 243.82,75.97 243.82,76.88 C243.82,79.12 245.29,79.89 246.76,80.03 C249.42,80.24 250.96,81.01 250.96,83.04 C250.96,85.49 247.53,90.95 247.53,93.4 C247.53,94.8 248.23,95.29 249.98,95.36 Z M246.69,78.49 C246.06,78.49 245.85,78 245.85,77.3 C245.85,74.71 247.74,71.28 248.86,71.28 C249.35,71.28 249.63,71.7 249.63,72.4 C249.42,73.66 248.23,76.67 247.11,78.42 L246.69,78.49 Z M269.02,149.05 C271.47,149.05 278.47,124.76 298.77,96.48 C304.16,88.85 305.28,87.59 307.52,87.59 C310.46,87.59 314.1,85.14 319.98,83.88 C325.65,82.83 332.86,80.45 332.86,79.33 L332.44,78.98 C331.67,78.98 329.92,81.5 315.5,83.88 L317.39,80.52 C317.95,79.54 318.37,78.21 318.37,77.09 C318.37,76.11 318.02,75.34 316.97,75.34 C315.57,75.34 312.98,76.74 308.5,80.87 C305.28,83.81 302.97,86.19 302.97,86.54 L303.18,86.75 C303.18,87.17 302.27,88.57 300.94,90.32 C297.16,95.43 286.31,112.02 283.09,117.76 C281.97,120 280.85,121.47 280.5,121.47 L280.36,121.33 C280.36,120.0196 284.732368,109.320912 289.687718,98.0233421 L290.261861,96.7176186 L290.261861,96.7176186 L290.839885,95.4095802 C290.936474,95.1915475 291.03317,94.9735434 291.129948,94.7556304 L291.711367,93.4497453 C295.688082,84.540499 299.7101,75.9945 301.92,72.12 C302.2,71.56 302.34,71.21 302.34,70.93 C302.34,70.51 302.06,70.37 301.43,70.37 C296.95,70.37 268.88,144.22 268.25,148.56 C268.25,148.7 268.6,149.05 269.02,149.05 Z M310.53,83.81 C309.76,83.81 309.27,83.53 309.27,83.04 L309.27,82.97 C309.27,82.83 314.03,76.88 315.43,76.88 C315.71,76.88 315.85,77.09 315.85,77.51 C315.5,82.2 312.14,83.81 310.53,83.81 Z M307.17,86.61 C306.68,86.61 306.26,86.47 306.26,86.33 C307.17,85.63 306.82,85.98 307.87,85.77 C308.36,85.77 308.57,85.84 308.71,86.12 C308.71,86.4 307.87,86.61 307.17,86.61 Z M347.35,87.31 C350.43,87.31 362.54,79.61 362.54,79.05 L362.47,79.05 C362.138983,79.05 359.044504,81.0211405 355.796082,82.8920535 L355.166133,83.2523579 C352.434099,84.8034329 349.712203,86.19 348.54,86.19 C347.77,86.19 347.35,85.77 347.35,84.79 C347.35,82.34 350.15,75.27 350.15,73.38 C350.15,71.91 349.52,72.12 348.4,71.91 C347,71.91 345.74,73.24 344.97,73.24 C344.41,73.03 344.41,72.68 343.5,72.68 C341.75,72.68 338.32,74.08 335.45,76.11 C330.69,79.47 328.17,83.25 328.17,85.14 C328.17,85.91 328.59,86.4 329.5,86.4 C330.9,86.4 333.49,85.14 337.34,81.85 C343.92,76.18 346.51,76.88 346.51,75.41 L346.44,75.13 C346.44,74.01 347.07,73.45 347.91,73.1 C348.05,73.1 348.19,73.24 348.19,73.59 C348.19,75.13 345.39,81.71 345.39,85 C345.39,86.4 345.95,87.31 347.35,87.31 Z M331.67,84.02 L331.6,84.02 C331.6,83.11 336.57,77.44 340.7,75.27 L341.26,75.13 C341.33,75.13 341.33,75.13 341.33,75.2 C341.33,75.55 340.14,76.88 337.69,79.12 C334.12,82.69 332.3,84.02 331.67,84.02 Z M366.88,88.71 C368.21,88.71 369.75,88.5 371.57,87.87 C375.91,86.54 386.06,80.31 386.06,79.12 C385.92,78.98 386.06,78.98 385.78,78.91 C385.22,78.91 384.03,79.82 382.7,80.87 C375.84,85.7 371.08,87.45 368.07,87.45 C364.57,87.45 363.24,85.21 363.24,82.69 C363.24,79.68 365.2,76.32 367.72,76.32 L369.26,76.53 C370.03,76.53 370.45,76.25 370.45,75.83 C370.45,75.06 368.84,74.08 367.16,74.08 C363.24,74.08 360.51,78.56 360.51,82.55 C360.51,85.77 362.33,88.71 366.88,88.71 Z M377.66,102.29 C378.43,102.29 379.69,100.68 380.53,98.72 C382.42,94.31 389.49,85.21 390.26,84.09 C393.62,86.26 396.7,87.03 399.5,87.03 C408.11,87.03 413.64,79.05 413.64,78.49 C413.08,78.49 410.91,80.45 408.32,82.48 C405.66,84.58 403,85.35 400.55,85.35 C396,85.35 392.5,82.76 392.5,81.92 C392.57,81.29 394.95,79.89 397.89,78.35 C401.46,76.67 402.86,75.2 402.86,74.22 C402.86,73.31 402.51,72.89 401.81,72.89 C400.83,72.89 399.29,73.73 397.26,75.27 C393.34,78.56 388.93,78.91 388.93,80.52 L389,81.15 C389,82.62 384.52,89.76 383.54,89.76 C383.54,89.41 384.73,86.05 386.13,81.99 C389,74.78 389.77,73.52 397.89,65.4 C414.76,48.74 428.27,29.35 428.62,20.74 C428.62,18.01 427.5,16.89 425.82,16.89 C411.12,16.89 380.74,82.13 376.54,101.45 C376.54,101.94 377.03,102.29 377.66,102.29 Z M391.24,70.16 L393.48,64.91 C408.11,32.36 421.2,18.29 425.47,18.29 C426.38,18.29 426.94,18.99 426.94,20.32 C426.94,24.45 421.9,34.88 409.58,50.07 C401.961932,59.2407955 397.30375,64.0390315 394.323117,67.0293824 L393.895372,67.4577686 C393.802955,67.550186 393.712273,67.6407955 393.623281,67.7296875 L393.109255,68.2431534 C392.367557,68.9846074 391.755455,69.6015909 391.24,70.16 Z M397.61,77.3 C397.47,77.3 397.4,77.23 397.4,77.09 L397.47,76.88 C397.47,76.88 398.59,75.62 400.55,74.5 C399.08,76.32 398.17,77.3 397.61,77.3 Z M427.78,87.31 C430.86,87.31 442.97,79.61 442.97,79.05 L442.9,79.05 C442.568983,79.05 439.474504,81.0211405 436.226082,82.8920535 L435.596133,83.2523579 C432.864099,84.8034329 430.142203,86.19 428.97,86.19 C428.2,86.19 427.78,85.77 427.78,84.79 C427.78,82.34 430.58,75.27 430.58,73.38 C430.58,71.91 429.95,72.12 428.83,71.91 C427.43,71.91 426.17,73.24 425.4,73.24 C424.84,73.03 424.84,72.68 423.93,72.68 C422.18,72.68 418.75,74.08 415.88,76.11 C411.12,79.47 408.6,83.25 408.6,85.14 C408.6,85.91 409.02,86.4 409.93,86.4 C411.33,86.4 413.92,85.14 417.77,81.85 C424.35,76.18 426.94,76.88 426.94,75.41 L426.87,75.13 C426.87,74.01 427.5,73.45 428.34,73.1 C428.48,73.1 428.62,73.24 428.62,73.59 C428.62,75.13 425.82,81.71 425.82,85 C425.82,86.4 426.38,87.31 427.78,87.31 Z M412.1,84.02 L412.03,84.02 C412.03,83.11 417,77.44 421.13,75.27 L421.69,75.13 C421.76,75.13 421.76,75.13 421.76,75.2 C421.76,75.55 420.57,76.88 418.12,79.12 C414.55,82.69 412.73,84.02 412.1,84.02 Z M431.07,126.72 C435.9,126.72 443.18,123.15 451.51,114.26 C457.88,107.4 464.6,94.94 466.49,83.88 C466.49,83.88 466.548688,83.854016 466.656674,83.8058829 L466.854452,83.7175507 C467.5904,83.388264 469.3327,82.6025 471.075,81.77125 L471.624026,81.5077174 C473.719628,80.495388 475.66,79.4798 475.66,79.19 L474.96,79.05 C472.72,79.05 467.4,81.85 466.49,82.34 L466.56,80.17 C466.56,77.58 466,73.59 461.87,73.59 C460.33,73.59 458.3,74.64 456.69,74.64 C455.01,74.64 453.05,73.45 451.16,73.45 C444.72,73.45 439.26,81.43 439.26,85.35 C439.26,86.61 439.82,87.45 441.15,87.45 C442.62,87.45 445.14,86.33 448.78,83.46 C452.28,80.73 454.31,79.68 455.64,79.68 L457.18,79.96 C457.74,79.96 457.95,79.68 457.95,78.98 L457.81,77.72 C457.81,75.55 459.07,75.69 461.66,75.2 C463.13,75.2 464.18,75.97 464.25,78.35 L464.25,83.11 C464.25,83.11 441.43,93.61 430.93,106.91 C426.66,112.23 424.84,116.92 424.84,120.42 C424.84,124.34 427.15,126.72 431.07,126.72 Z M442.76,84.72 C442.48,84.72 442.41,84.58 442.41,84.37 C442.41,82.83 448.64,76.25 451.16,76.25 C452.56,76.25 453.26,76.46 453.26,76.95 C453.26,78.49 444.16,84.72 442.76,84.72 Z M431.21,125.32 C428.13,125.32 426.66,123.29 426.66,120.21 C426.66,116.57 428.83,111.39 432.96,106.42 C444.16,92.98 463.97,84.72 463.97,84.72 C463.34,90.11 454.66,115.52 437.16,123.64 C434.78,124.83 432.75,125.32 431.21,125.32 Z M481.75,87.03 C490.43,87.03 500.65,78.7 500.65,78.28 C500.09,78.28 497.01,80.31 493.16,82.48 C488.54,85 484.76,86.05 481.89,86.05 C478.04,86.05 475.87,83.67 475.87,81.85 C475.87,80.8 476.57,79.89 477.83,79.89 C480.56,79.89 485.32,77.37 486.3,75.41 C486.72,74.71 486.86,74.08 486.86,73.52 C486.86,71.49 484.9,70.3 482.52,70.3 C477.69,70.3 472.93,75.83 472.93,80.1 C472.93,84.16 476.92,87.03 481.75,87.03 Z M476.43,78.91 C476.01,78.91 475.94,78.63 475.94,78.14 C475.94,76.39 480.07,72.26 481.68,72.26 C483.08,72.26 483.71,72.89 483.71,73.8 C483.71,76.39 477.55,78.91 476.43,78.91 Z M490.85,111.39 C494.98,111.39 501.28,106.49 501.28,95.71 L501.14,92.49 C520.74,74.99 547.41,67.15 568.27,67.15 C576.39,67.15 583.67,68.34 589.27,70.65 C592.91,72.12 597.53,74.78 598.86,78.63 C598.86,78.63 599.28,79.33 599.77,79.33 C600.33,79.33 600.82,78.84 600.82,78.28 C600.82,78 600.68,77.72 600.4,77.51 C598.37,75.9 595.78,72.54 589.55,69.88 C583.95,67.43 576.53,66.1 568.06,66.1 C548.53,66.1 523.33,73.31 500.79,91.58 C500.79,91.02 499.88,87.66 499.88,84.58 C499.88,82.13 500.44,79.82 502.61,79.26 C503.59,78.98 504.08,78.42 504.08,77.79 C504.08,77.02 503.31,76.25 501.91,76.25 C499.39,76.25 497.15,79.4 497.15,83.81 C497.15,87.1 499.25,92.7 499.25,92.7 C499.25,92.7 497.537746,94.0746267 495.741085,95.6206884 L495.341099,95.9665907 C494.207618,96.9518715 493.088478,97.9697826 492.39,98.72 C488.68,102.71 487.35,105.86 487.35,107.96 C487.35,110.2 488.82,111.39 490.85,111.39 Z M491.13,110.2 C489.87,110.2 488.96,109.43 488.96,107.96 C488.96,103.13 497.43,95.71 499.53,93.96 C499.74,95.29 499.88,96.62 499.88,97.95 C499.88,100.96 499.18,103.83 496.8,106.7 C494.98,109.01 492.74,110.2 491.13,110.2 Z" id="Ourpackages" fill="#FF0040" fill-rule="nonzero"></path>
    </g>
</svg>