<?xml version="1.0" encoding="UTF-8"?>
<svg width="710px" height="150px" viewBox="0 0 710 150" version="1.1" xmlns="http://www.w3.org/2000/svg" xmlns:xlink="http://www.w3.org/1999/xlink">
    <title>our-work</title>
    <g id="our-work" stroke="none" stroke-width="1" fill="none" fill-rule="evenodd">
        <line x1="510" y1="75" x2="710" y2="75" id="Line" stroke="#FF0040" fill="#D8D8D8" stroke-linecap="square"></line>
        <path d="M142.3,134.02 C146.78,134.02 153.85,130.45 163.72,121.7 C169.04,116.87 171.7,114.49 172.68,114.49 C173.66,114.49 199.84,110.36 224.9,89.29 C226.65,87.82 227.35,87.05 227.35,86.7 C227.35,86.56 227.28,86.56 227.07,86.56 C226.37,86.56 224.13,87.75 222.03,89.57 C209.71,100.14 184.65,112.25 173.8,112.25 C181.36,102.8 191.09,90.13 199.21,75.36 C208.59,58.42 214.54,39.94 214.54,28.6 C214.54,14.18 204.11,9 192.91,9 C170.65,9 138.1,29.72 130.05,67.73 C129.35,71.3 129,75.01 129,78.51 C129,88.87 132.01,98.39 137.54,103.99 L141.25,107.77 C138.03,116.24 136.21,120.09 136.21,126.18 C136.21,131.01 138.17,134.02 142.3,134.02 Z M171.91,112.25 L165.33,112.11 C159.59,112.11 147.34,109.38 145.38,107.63 L145.24,107.21 C145.24,105.192308 150.555714,97.3241843 156.358792,90.1418257 L156.930988,89.4378061 C159.606982,86.1648521 162.352308,83.0815385 164.7,80.82 C167.5,78.09 168.9,76.55 168.9,75.78 C168.9,75.29 168.34,75.08 167.29,75.08 C163.44,75.08 148.46,93.14 144.12,102.52 C143.42,104.13 142.79,104.9 142.09,104.9 C141.18,104.9 140.06,103.71 138.24,101.26 C134.18,96.08 132.01,87.68 132.01,78.65 C132.01,72.77 132.99,66.54 134.88,60.87 C145.52,28.46 173.94,10.05 193.26,10.05 C204.25,10.05 212.3,16.07 212.3,28.95 C212.3,50.51 196.76,80.96 171.91,112.25 Z M142.58,133.04 C139.99,133.04 138.38,131.29 138.38,126.81 C138.38,121.77 140.97,115.61 143.98,108.89 L149.09,110.64 C155.11,112.88 165.54,113.72 170.3,114.49 C165.4,118.2 150.07,133.04 142.58,133.04 Z M248.98,94.82 C250.45,94.82 252.2,94.54 254.3,93.98 C259.69,92.51 266.55,88.1 267.81,86.98 L267.95,86.7 L267.88,86.7 C266.9,86.7 255.91,94.19 249.4,94.19 C246.88,94.19 244.78,92.72 244.78,90.2 C244.78,87.75 247.16,84.18 247.16,82.78 C247.16,82.29 246.95,82.08 246.53,82.08 C245.55,82.08 243.52,83.2 240.23,85.51 C233.44,90.41 229.87,92.44 228.26,92.44 C227.42,92.44 227.14,91.88 227.14,90.9 C227.14,88.94 228.12,86.91 228.54,83.2 C228.54,82.29 228.19,81.8 227.7,81.8 C226.93,81.8 225.81,82.85 225.04,84.88 C224.34,86.98 223.99,88.73 223.99,90.13 C223.99,92.65 225.11,93.91 227.28,93.91 C229.45,93.91 232.67,92.58 236.73,89.85 C237.99,88.9852941 238.997128,88.286263 239.803702,87.7436739 L240.190519,87.4853735 C241.425813,86.6675433 242.128235,86.28 242.54,86.28 C242.89,86.28 242.96,86.63 242.96,87.19 L242.96,88.38 C242.96,92.16 244.43,94.82 248.98,94.82 Z M269.98,103.36 C275.86,103.36 292.94,87.68 292.94,87.05 L292.24,87.4 C290.91,88.73 274.88,102.87 270.12,102.87 C269.35,102.87 268.86,102.45 268.86,101.47 C268.86,99.3 273.13,92.65 273.13,89.85 C273.13,87.75 271.31,87.82 268.09,86.91 C270.12,83.55 271.17,82.29 271.17,80.12 C271.17,78.65 270.26,77.88 269,77.88 C267.53,77.88 265.57,79.07 264.52,81.52 C264.03,82.85 263.82,83.97 263.82,84.88 C263.82,87.12 265.29,87.89 266.76,88.03 C269.42,88.24 270.96,89.01 270.96,91.04 C270.96,93.49 267.53,98.95 267.53,101.4 C267.53,102.8 268.23,103.29 269.98,103.36 Z M266.69,86.49 C266.06,86.49 265.85,86 265.85,85.3 C265.85,82.71 267.74,79.28 268.86,79.28 C269.35,79.28 269.63,79.7 269.63,80.4 C269.42,81.66 268.23,84.67 267.11,86.42 L266.69,86.49 Z M328.99,105.11 C332,105.11 336.97,101.33 343.76,93.98 C347.19,90.34 348.45,89.08 349.36,89.08 C349.78,89.08 350.13,89.36 350.62,89.85 C352.51,91.6 355.73,92.23 359.23,92.23 C367.84,92.23 378.55,88.45 378.55,87.47 C378.41,87.26 378.48,87.26 378.27,87.26 C377.43,87.26 374.56,88.59 371.06,89.36 C365.81,90.55 361.82,91.11 358.81,91.11 C354.12,91.11 352.02,89.71 352.02,87.05 C352.02,84.6 353.84,80.96 357.2,76.41 C357.97,75.22 358.39,74.52 358.39,74.1 C358.39,73.82 358.18,73.68 357.83,73.68 C357.83,73.68 335.92,104.13 329.13,104.13 C327.87,104.13 327.1,103.08 327.1,100.63 C327.1,98.04 327.94,93.84 329.9,87.61 L330.04,86.77 C330.04,86.35 329.83,86.14 329.48,86.14 C327.59,86.14 318.49,94.89 317.09,94.89 C316.81,94.89 316.67,94.68 316.67,94.4 C316.67,92.65 320.38,86.35 320.38,82.92 C320.38,81.66 319.75,80.82 319.05,80.82 C317.3,80.82 313.52,92.37 313.52,96.71 C313.52,97.97 313.87,98.67 314.78,98.67 C317.16,98.67 320.31,95.66 326.68,90.48 C326.54,91.53 325.98,96.22 325.98,99.79 C325.98,104.06 327.17,105.11 328.99,105.11 Z M376.66,95.1 C379.04,95.1 379.81,92.02 382.47,92.02 L384.43,92.16 C389.54,92.16 394.23,87.89 394.23,87.33 L394.02,87.26 C393.04,87.26 389.75,91.32 384.57,91.32 L382.68,91.18 C382.12,90.97 381.84,90.69 381.84,90.13 C381.84,88.73 383.73,84.39 383.73,81.94 C383.73,79.07 382.4,77.81 380.79,77.81 C378.62,77.81 375.89,80.4 375.89,84.74 C375.89,85.72 376.03,86.7 376.31,87.82 C375.26,90.13 374.84,91.74 374.84,92.86 C374.84,94.54 375.68,95.1 376.66,95.1 Z M379.46,89.57 C378.69,89.57 377.15,85.51 377.15,83.55 C377.15,80.4 379.11,78.44 380.65,78.44 C381.7,78.44 382.54,79.28 382.54,81.17 C382.54,83.27 380.3,89.57 379.46,89.57 Z M377.08,93.77 C376.66,93.77 376.24,93.28 376.24,92.23 C376.38,90.55 376.87,89.22 377.43,89.22 C378.34,89.22 378.76,90.06 378.76,91.04 C378.76,92.44 377.85,93.77 377.08,93.77 Z M397.24,103.36 C403.12,103.36 420.2,87.68 420.2,87.05 L419.5,87.4 C418.17,88.73 402.14,102.87 397.38,102.87 C396.61,102.87 396.12,102.45 396.12,101.47 C396.12,99.3 400.39,92.65 400.39,89.85 C400.39,87.75 398.57,87.82 395.35,86.91 C397.38,83.55 398.43,82.29 398.43,80.12 C398.43,78.65 397.52,77.88 396.26,77.88 C394.79,77.88 392.83,79.07 391.78,81.52 C391.29,82.85 391.08,83.97 391.08,84.88 C391.08,87.12 392.55,87.89 394.02,88.03 C396.68,88.24 398.22,89.01 398.22,91.04 C398.22,93.49 394.79,98.95 394.79,101.4 C394.79,102.8 395.49,103.29 397.24,103.36 Z M393.95,86.49 C393.32,86.49 393.11,86 393.11,85.3 C393.11,82.71 395,79.28 396.12,79.28 C396.61,79.28 396.89,79.7 396.89,80.4 C396.68,81.66 395.49,84.67 394.37,86.42 L393.95,86.49 Z M412.08,111.06 C412.85,111.06 414.11,109.45 414.95,107.42 C416.84,103.08 423.84,93.98 424.68,92.86 C426.5,94.89 428.46,95.73 430.7,95.73 C437.14,95.73 446.45,88.87 465.35,83.41 C480.54,79.07 498.95,75.36 514.56,75.36 C522.47,75.36 537.59,74.31 514.21,74.31 C501.4,74.31 483.27,77.46 465.21,82.36 C461.363182,83.4121212 454.937371,86.0085491 448.420541,88.4664574 L447.15875,88.94 C440.22,91.53 433.36,93.84 429.58,93.84 C427.69,93.84 426.57,93.28 426.57,91.88 L426.92,90.48 C427.2,89.99 429.58,88.38 432.31,86.98 C436.02,85.23 437.28,83.83 437.28,82.99 C437.28,82.08 436.93,81.59 436.16,81.59 C434.27,81.59 428.46,86.98 425.59,87.61 C423.98,87.89 423.28,88.38 423.28,89.15 L423.42,89.78 C423.42,91.32 419.08,98.39 417.96,98.39 C417.96,98.04 419.15,94.82 420.69,90.76 C423.35,83.41 424.19,82.15 432.31,74.17 C449.04,57.58 462.69,38.19 462.97,29.37 C462.97,26.71 461.85,25.59 460.17,25.59 C445.75,25.59 415.23,90.62 410.96,110.29 C410.96,110.71 411.38,111.06 412.08,111.06 Z M425.59,78.79 L427.83,73.54 C442.6,41.06 455.69,27.06 459.89,27.06 C460.87,27.06 461.36,27.76 461.36,29.09 C461.36,33.15 456.32,43.58 444,58.7 C433.15,71.93 428.18,76.13 425.59,78.79 Z M432.1,86.07 C431.89,86.07 431.82,85.93 431.82,85.65 C431.82,85.37 433.01,84.25 434.97,83.13 C433.57,85.16 432.66,86.07 432.1,86.07 Z" id="Ourwork" fill="#FF0040" fill-rule="nonzero"></path>
    </g>
</svg>