<svg id="Layer_1" data-name="Layer 1" xmlns="http://www.w3.org/2000/svg" viewBox="0 0 1900 950"><path d="M470.7,469.865h2.879q34.543-8.637,68.367-51.816,33.8-43.18,33.826-82.043,0-20.137-17.272-20.15c-.259,0-.564.03-.835.039-.339-.013-.666-.039-1.015-.039-.518,0-1.105.045-1.671.077-.657-.05-1.332-.077-2.03-.077q-10.087,0-32.385,7.916Q498.224,331.7,485.3,336.006q-51.816,17.274-74.844,40.3a119.726,119.726,0,0,0-9.8,9.43q-8.587,1.6-30.5,10.721-24.9,9.637-35,11.2a1.774,1.774,0,0,1-1.186-2.565q12.954-27.324,12.953-50.377,0-24.456-23.029-24.469c-.309,0-.622.026-.931.031s-.6-.031-.919-.031c-.618,0-1.243.043-1.863.063-.607-.028-1.206-.063-1.838-.063q-15.855,0-33.1,8.636-54.717,25.907-102.193,73.406Q160,432.465,132.661,464.107,108.169,491.464,86.6,518.8L66.451,543.269,32.088,586.225A134.772,134.772,0,0,1,44.656,541.83q14.4-34.543,38.862-82.042,18.689-34.543,23.029-40.3A304.056,304.056,0,0,0,125.258,390.7a302.3,302.3,0,0,1,18.712-28.787l20.15-30.225,47.5-64.77q15.82-18.687,31.664-40.3l21.591-24.467q14.37-18.689,34.544-40.3,20.139-21.589,34.543-37.422l54.694-57.573Q392.973,63.985,430.4,20.8c.945-.945.945-2.16,0-3.6a4.859,4.859,0,0,0-4.318-2.16l-.23.231a6,6,0,0,0-1.62-.231l-.8.8a5.247,5.247,0,0,0-2.9-.8l-4.32,4.318L380.224,55.339l-43.18,43.18q-20.173,21.588-58.292,63.329-38.154,41.765-65.489,74.846-37.448,48.946-40.3,53.254L141.3,336.006q-4.318,7.22-15.833,21.591L111.07,380.626Q100.984,393.58,76.528,438.2L59.255,466.986q-15.821,25.907-31.666,66.208Q11.769,573.507,13.2,592.206A12.339,12.339,0,0,0,26.15,605.16a4.267,4.267,0,0,0,1.09-.208,16.26,16.26,0,0,0,2.612.208,2.717,2.717,0,0,0,.474-.055q.673.054,1.376.055c.967,0,3.374-.944,7.2-2.879l5.758-5.756,31.666-40.3q28.774-34.543,41.74-53.254L131.016,485.7l44.618-46.058q17.273-18.689,54.694-50.376,33.093-24.459,54.7-37.423c13.082-7.849,24.153-12.091,33.275-12.806q9.217.969,12.989,8.489a13.338,13.338,0,0,1,.719,7.2,19.151,19.151,0,0,0-.719,4.317,110.933,110.933,0,0,1-5.758,20.152c-2.877,7.692-5.284,14.393-7.2,20.15-2.879,7.692-5.758,12.954-8.635,15.833s-8.165,6.251-15.833,10.075l-60.452,34.543-33.1,21.59q-2.9,1.451-28.787,20.15L134.1,531.755q-5.769,5.769-12.233,11.514-6.479,5.769-13.675,12.954l-20.15,21.59Q69.318,603.721,67.891,606.6,50.619,628.188,50.62,651.219A18.437,18.437,0,0,0,57.1,665.612c4.317,3.846,8.86,5.758,13.673,5.758h2.879c.133,0,.287-.017.424-.02s.264.02.4.02H79.2q7.183,0,21.589-5.758,27.325-14.37,44.62-30.225l25.907-23.029a251.9,251.9,0,0,0,27.349-25.189q14.369-15.112,21.588-22.31a195.811,195.811,0,0,0,19.431-22.309A154.517,154.517,0,0,1,254.8,524.557l23.029-28.785q17.272-21.591,46.057-67.648a8.639,8.639,0,0,1,5.758-5.758,53.685,53.685,0,0,0,7.2-2.878q31.4-9.985,49.692-17.5-20.68,28.016-20.7,47.722,0,15.855,12.954,15.832c.609,0,1.23-.039,1.857-.1.594.058,1.2.1,1.844.1.316,0,.638-.019.959-.035.3.014.585.035.892.035q11.5,0,27.346-13.673,15.824-13.662,28.787-39.581a73.291,73.291,0,0,0,4.317-25.908c0-6.7-.493-11.515-1.438-14.394q-4.318-10.051,35.982-25.187,35.148-13.188,58.27-18.154c-4.846,6.532-12.179,14.728-22.081,24.631q-31.675,31.676-57.573,76.284c-.967,1.933-2.405,5.038-4.317,9.355a36.688,36.688,0,0,0-2.879,15.114c0,4.812,1.438,8.635,4.317,11.513a13.8,13.8,0,0,0,10.075,4.32h2.879c.04-.01.079-.024.119-.034.234.011.465.034.7.034ZM69.125,633.946Q86.4,603.721,92.154,596.525l25.908-31.666q23.007-23.005,35.983-33.1l31.666-25.907q20.137-15.824,35.982-25.908,15.821-10.054,34.543-20.152,18.692-10.052,30.227-15.831l11.822-5.912-2.981,4.472q-31.675,46.08-48.937,66.209l-38.862,47.5-38.861,40.3q-8.637,10.086-43.18,37.421A261.817,261.817,0,0,1,96.678,654.1c-6.652,4.163-12.931,6.5-18.844,7.058Q64.8,659.94,64.806,646.9,64.806,642.582,69.125,633.946ZM464.939,455.47q0-4.317,7.2-21.59,21.59-43.177,84.92-106.508a18.107,18.107,0,0,1,2.856-2.382c.075.08.157.133.229.222q2.868,3.608,2.879,12.235,0,18.72-10.075,37.421-7.222,18.723-31.666,48.937Q499.687,445.4,479.537,456.19a49.357,49.357,0,0,1-11.666,4.817C465.92,460.242,464.939,458.4,464.939,455.47Zm-84.921-8.636q0-23.007,41.74-64.77l7.576-6.492q1.935,3.933.547,15.129-2.16,17.272-9.355,28.787-18.724,25.906-32.385,32.384a28.81,28.81,0,0,1-4.951,1.869C381.081,452.826,380.018,450.535,380.018,446.834Z"/><path d="M561.551,477.061c-.943.967-.719,2.158.721,3.6a6.916,6.916,0,0,0,5.037,2.16l1.052-.526a6.78,6.78,0,0,0,2.649.526l.343-.172a6.99,6.99,0,0,0,1.508.172l5.757-2.879A210.576,210.576,0,0,1,602.367,434.6q13.662-19.431,36.7-41.021,21.589-21.589,37.422-31.666,15.822-10.051,17.271-12.954c.875-2.634.072-3.691-2.365-3.21a5.3,5.3,0,0,0-3.188.365q-2.145-2.5-17.989,7.884-20.882,13.695-29.506,22.309a316.493,316.493,0,0,0-31.665,30.226c-6.914,7.609-12.05,12.932-15.475,16.051a29.864,29.864,0,0,1,.876-3.1l14.392-50.378c.946-1.91.474-3.35-1.438-4.317a3.245,3.245,0,0,0-2.627-.305,2.551,2.551,0,0,0-2.622.484c-.1-.059-.191-.123-.3-.179-1.933-.945-3.374-.472-4.319,1.44q-15.852,41.763-24.467,73.4Z"/><path d="M1093.88,359.035a8.579,8.579,0,0,0-1.085.069,5.306,5.306,0,0,0-.766-.069,8.865,8.865,0,0,0-2.128.265,4.716,4.716,0,0,0-1.573-.265q-4.318,0-8.636,4.32-21.59,15.855-18.712,14.392l-37.422,31.665-37.423,31.666c-10.234,6.307-17.517,9.968-21.932,11.1-2.786-.868-4.18-3.114-4.18-6.781v-4.317q1.416-7.187,14.393-27.348,12.954-20.139,21.59-28.787l10.075-7.2c1.912-1.912,1.912-3.6,0-5.037a6.355,6.355,0,0,0-4.572-1.022,9.693,9.693,0,0,0-2.877.154c-1.767-.441-4.008-.16-6.739.868-3.846,1.439-8.163,5.532-12.954,12.233h-1.424q-31.675,10.088-40.3,14.394-33.129,14.406-57.574,27.347-2.55,1.092-4.45,1.723a1.078,1.078,0,0,1-.073-.283V409.412q0-11.5-.719-25.907c-.5-9.58-2.16-15.833-5.039-18.712q-11.537-14.37-25.908-14.392a18.281,18.281,0,0,0-4.321-.248,24.216,24.216,0,0,0-2.667.068c-4.848-.457-12.023,1.027-21.592,4.5-8.553,3.112-14.213,5.579-17.095,7.425-.559-.459-1.162-1.007-1.823-1.667a13.832,13.832,0,0,0-10.075-4.32c-.292,0-.621.03-.931.044-.3-.019-.608-.044-.919-.044-.635,0-1.316.039-2.033.106a14.309,14.309,0,0,0-1.669-.106c-4.812,0-12.008,1.936-21.588,5.758q-33.129,14.406-57.574,34.545Q670.94,419.5,656.546,442.517q-7.187,10.086-7.2,15.832c-.945,2.879,0,5.532,2.879,7.916,2.878,2.407,5.756,3.6,8.634,3.6H662.3c.109-.055.237-.129.349-.186a10.574,10.574,0,0,0,1.911.186h1.441l.036-.02c.125,0,.249.02.374.02h1.44q8.637-4.319,26.627-17.993T723.988,431q41.73-33.093,71.247-52.537,27.175-17.909,43.988-19.3,23.136,2.021,23.147,38.728l-1.44,31.666q-1.451,7.218-8.637,10.075l-80.6,46.058-18.712,11.515q-4.319,2.9-10.8,6.477a101.339,101.339,0,0,0-13.673,9.356q-40.312,24.492-64.77,41.021-24.456,16.563-54.694,42.46l-30.226,28.787q-11.5,8.634-41.74,43.179L516.932,694.4,499.66,721.745q-17.273,36-21.59,46.06-4.319,12.951-7.2,40.3-1.418,10.052,2.879,24.469,7.218,11.5,17.271,15.831a69.25,69.25,0,0,0,15.833,1.441c.469,0,.909-.015,1.364-.023.759.014,1.537.023,2.337.023.235,0,.451-.01.682-.012.39,0,.768.012,1.168.012q11.538,0,17.272-2.879,30.225-12.955,48.936-27.347,11.538-7.221,56.135-46.059l23.029-23.029a520.535,520.535,0,0,0,46.058-46.058L752.775,646.9q5.736-7.183,38.862-50.375l33.1-48.937q34.543-59,44.619-99.314,2.868-8.635,15.833-14.394,7.187-2.865,40.3-18.71,25.769-12.321,44.541-19.39a345.607,345.607,0,0,0-19.882,29.465q-7.218,14.406-7.2,21.589,0,14.4,15.833,14.394c.571,0,1.15-.033,1.728-.061.637.04,1.293.061,1.973.061.277,0,.559-.023.838-.029.337.01.664.029,1.013.029q10.052,0,21.59-5.758,8.634-4.317,18.71-14.392,12.954-11.5,31.665-28.067,18.689-16.531,30.226-26.628l13.031-10.024q-1.1,4.736-5.629,12.9c-4.813,8.635-8.163,14.888-10.075,18.71q-7.219,14.406-18.71,40.3-10.087,24.492-14.394,34.545l-1.439,5.755c0,.967.944,1.441,2.879,1.441a6.593,6.593,0,0,1,3.7,0,7.775,7.775,0,0,0,.921-.066,7.9,7.9,0,0,0,.93.066c1.91,0,2.877-.474,2.877-1.441q5.736-15.819,20.152-47.5,14.37-28.774,33.1-63.331,4.318-8.637,4.317-12.954C1098.2,360.971,1096.759,359.035,1093.88,359.035Zm-428.9,97.876q0-5.736,15.832-25.908,21.59-23.008,59.012-46.06,31.1-19.125,43.295-21.352a2.51,2.51,0,0,1,1.531,2.642l-1.441,2.877-5.757,4.32-37.422,27.346q-59.1,50.641-74.84,57.183A2.553,2.553,0,0,1,664.977,456.911ZM486.5,812.422q7.218-83.457,84.919-161.2,25.908-28.778,48.937-47.5,31.676-30.225,89.958-68.368,58.293-38.118,97.155-58.292,2.868-2.868,28.067-17.273,14.116-8.061,20.325-11.153a22.017,22.017,0,0,1-.69,3.957q-1.45,5.768-7.2,17.273a827.008,827.008,0,0,1-38.862,76.283q-28.808,46.08-46.058,66.21-23.042,24.489-33.1,38.861l-46.06,51.816q-21.588,25.907-44.617,48.937A450.233,450.233,0,0,1,565.869,811.7q-36.456,23.609-58.977,25.091Q487.85,835.35,486.5,812.422Z"/><path d="M1884.041,406.534a11.755,11.755,0,0,0-1.26.085,3.9,3.9,0,0,0-.59-.085,15.239,15.239,0,0,0-2.353.236,3.722,3.722,0,0,0-1.348-.236c-1.934,0-5.285.719-10.075,2.159a118.95,118.95,0,0,1-17.272,3.6l-97.36,32.91c-.481-3.286-.719-11.361-.719-24.275q-1.451-25.906-15.833-38.141-14.4-12.212-35.983-12.234c-.363,0-.715.025-1.076.028-.262,0-.511-.028-.774-.028-.726,0-1.434.043-2.153.056-.521-.011-1.021-.056-1.549-.056q-24.492,0-44.619,10.075-66.219,33.126-93.556,54.694-21.7,18.081-31.264,21c-1.353-.826-2.046-2.531-2.046-5.167q0-11.5,20.152-56.135,24.456-51.813,74.844-80.6a5.887,5.887,0,0,0,1.439-4.319,19.536,19.536,0,0,0-5.575-.512,21.007,21.007,0,0,0-2.95.05q-16.6-1.414-41.646,24.931-27.358,28.808-48.218,67.648-6.414,11.937-10.849,22.105a197.92,197.92,0,0,0-22.98,16.757q-11.536,10.088-37.423,40.3l-21.59,24.47q-25.908,31.676-37.422,48.936-7.218,10.087-17.271,21.589a224.373,224.373,0,0,0-20.152,27.348q-25.906,37.444-37.421,47.5a33.35,33.35,0,0,1-5.19,3.859,7.556,7.556,0,0,1-.774-3.859q0-10.053,8.636-31.665,10.052-33.093,28.787-77.724l25.908-59.011q2.868-8.637,15.112-35.264a438.36,438.36,0,0,1,26.629-49.658l33.1-57.571q11.5-23.01,18.711-33.106,23.007-37.412,43.179-69.087,20.139-31.644,51.816-73.406l15.833-21.589,30.225-38.862q20.14-25.909,28.787-38.862c.945-1.912,2.159-4.071,3.6-6.476a4.82,4.82,0,0,0-.72-6.477,6.381,6.381,0,0,0-3.687-.537,7.52,7.52,0,0,0-2.92.177c-3.738-1.057-8.66,1.438-14.777,7.556a273.459,273.459,0,0,0-41.741,38.862q-37.443,37.443-53.254,57.573l-61.89,80.6-24.47,35.983q-4.318,5.769-30.225,41.741-7.22,10.083-15.833,22.308c-3.5,4.966-6.109,8.395-7.837,10.337-.1-.093-.185-.162-.284-.261q-2.161-2.16-6.477-2.159c-.364,0-.748.016-1.151.046-.238-.01-.451-.046-.7-.046a16.76,16.76,0,0,0-1.855.123,14.31,14.31,0,0,0-1.846-.123q-8.637,0-31.665,11.513A137.294,137.294,0,0,0,1294.54,407.3c-11.365,3.523-20.876,6.623-28.466,9.307q-12.245,4.319-19.431,7.2-26.353,10.059-37.39,11.325c-7.176-1-12.058-6.192-14.632-15.642L1190.3,405.1q-2.9-7.187-10.075-7.2c-.393,0-.723.032-1.08.05-.258-.015-.5-.05-.771-.05a19.094,19.094,0,0,0-2.067.107,12.694,12.694,0,0,0-1.634-.107c-2.879,0-4.812.5-5.757,1.44q-10.088,2.9-28.066,17.272-18.016,14.4-25.189,23.029c-1.131,1.007-2.144,1.831-3.053,2.492q-.255-2.791,2.128-9.689,6.476-18.687,22.31-43.179,15.821-24.459,24.467-25.907,1.417,0,2.16-2.16a3.306,3.306,0,0,0-.719-3.6,4.6,4.6,0,0,0-4.341-1.3,5.689,5.689,0,0,0-2.782.268q-7.592-3.175-25.058,23.344-19.431,29.517-30.944,53.973c-3.824,12.482-1.934,18.712,5.757,18.712a12.469,12.469,0,0,0,1.843-.159,11.476,11.476,0,0,0,1.858.159c.281,0,.571-.033.857-.053.324.025.647.053.994.053q5.733,0,12.954-5.758,8.634-7.183,28.066-24.468,16.119-14.328,23.805-16.756,6.142,2.442,7.347,16.756,4.318,18.725,21.588,18.712c.437,0,.959-.028,1.546-.078.7.051,1.419.078,2.156.078.274,0,.586-.013.919-.032.311.009.613.032.931.032q5.736,0,28.787-5.758,21.717-7.668,51.412-19.882c-.793,1.806-1.562,3.632-2.291,5.488a25.428,25.428,0,0,0-2.879,11.515c-.945,4.813,0,8.885,2.879,12.235a14.34,14.34,0,0,0,11.514,5.037c.666,0,1.3-.032,1.914-.083.579.054,1.175.083,1.787.083.327,0,.626-.029.941-.041.3.014.6.041.909.041a15.973,15.973,0,0,0,7.2-1.439q8.634-4.319,20.15-15.833,31.644-34.543,44.62-53.254l24.467-33.106q20.142-27.324,57.574-82.04l60.452-83.482,20.15-25.907q12.956-15.82,43.179-46.058l18.712-18.712q3.2-3.2,5.784-5.519l-4.14,5.519-60.45,77.723q-20.174,25.911-46.06,69.089-2.9,4.316-27.346,40.3l-21.591,31.666-27.346,47.5q-23.041,46.084-35.983,69.089l-12.954,25.908q-24.492,50.4-47.5,110.828-11.538,25.906-24.469,70.527-4.317,14.4-4.318,24.467,0,12.955,8.637,12.954a10.282,10.282,0,0,0,1.818-.188,9.63,9.63,0,0,0,1.883.188,9.5,9.5,0,0,0,1.136-.071c.243.017.46.071.714.071q8.637,0,25.908-17.271l50.376-69.087q24.459-34.543,63.331-83.481l31.665-34.545,15.833-17.271q4.5-4.5,8.57-8.4-4.039,12.492-4.041,21.357,0,12.955,10.075,12.954c.794,0,1.555-.066,2.323-.118a13.043,13.043,0,0,0,1.378.118c.4,0,.771-.046,1.162-.059.236.012.444.059.688.059a28.413,28.413,0,0,0,12.954-2.879q10.054-5.736,44.62-30.225,38.862-27.324,66.208-41.741a177.859,177.859,0,0,1,59.289-18.535q37.325,2.659,37.352,51.639a99.737,99.737,0,0,1-1.44,18.712l-76.284,35.983-86.36,41.741-24.467,12.953q-11.537,7.22-22.31,13.674-10.794,6.476-19.431,10.794-20.14,10.086-63.331,41.021-43.179,30.969-54.694,42.46l-40.3,37.423q-15.823,14.4-41.741,46.058-14.37,14.406-37.423,56.133-28.776,50.367-28.785,90.678,0,23.005,11.513,38.861,11.538,14.373,27.349,15.833c2.691.173,5.4.2,8.127.164q1.217.026,2.438.021,42.437.655,89.981-33.289,24.492-14.4,56.133-40.3,34.543-28.808,66.21-57.571l27.346-25.908q38.862-38.862,59.012-63.331l46.06-51.816q4.315-5.733,19.431-23.029,15.113-17.273,22.308-30.225l21.59-33.106a436.17,436.17,0,0,0,35.983-66.208q14.373-28.774,18.712-51.816l7.2-2.879,43.181-17.271q12.953-4.319,33.823-12.235,20.849-7.893,33.823-10.794c8.637-2.879,13.9-4.791,15.833-5.758A2.55,2.55,0,0,0,1884.041,406.534ZM1265.132,913.175a48.543,48.543,0,0,1-8.634-27.347q0-35.993,15.832-71.965,18.722-38.862,48.937-76.285l35.983-41.741a197.827,197.827,0,0,1,22.31-21.589q13.7-11.5,20.869-17.273,12.956-11.5,38.862-31.663l73.406-48.939q5.733-4.316,40.3-23.029,20.142-12.953,63.331-33.1,31.644-17.271,48.937-24.468l35.983-17.273,25.908-11.513,8.7-3.482q-2.065,20.193-38.725,82.644-25.906,43.179-41.739,63.331-20.174,25.906-28.787,38.862l-30.227,35.983q-1.449,1.449-31.663,35.982l-8.637,8.637-24.469,25.908q-27.357,30.225-33.1,33.1L1472.6,810.984l-31.666,28.786-21.588,18.712q-46.049,37.409-71.968,51.816a182.461,182.461,0,0,1-40.3,17.271,130.108,130.108,0,0,1-17.866,1.381Q1273.679,927.357,1265.132,913.175Zm36.877-474.188q-5.932-7.637,10.616-32.453a173.713,173.713,0,0,1,40.3-43.179q11.266-8.459,18.395-10a7.732,7.732,0,0,1,4.84,4.238l-12.953,18.711q-5.769,7.219-12.954,16.552a202.6,202.6,0,0,1-17.272,19.431l-24.469,23.029A40.512,40.512,0,0,1,1302.009,438.987Z"/></svg>