<svg width="512" height="512" viewBox="0 0 512 512" fill="none" xmlns="http://www.w3.org/2000/svg">
<g clip-path="url(#clip0)">
<path d="M424.3 0H87.7C39.3 0 0 39.3 0 87.7V424.4C0 472.7 39.3 512 87.7 512H424.4C472.7 512 512.1 472.7 512.1 424.3V87.7C512 39.3 472.7 0 424.3 0ZM497 424.3C497 464.4 464.4 497 424.3 497H87.7C47.6 497 15 464.4 15 424.3V87.7C15 47.6 47.6 15 87.7 15H424.4C464.5 15 497.1 47.6 497.1 87.7V424.3H497Z" fill="#6E1423"/>
<path d="M255.999 112.2C176.699 112.2 112.199 176.7 112.199 256C112.199 335.3 176.699 399.8 255.999 399.8C335.299 399.8 399.799 335.3 399.799 256C399.799 176.7 335.299 112.2 255.999 112.2ZM255.999 384.8C184.999 384.8 127.199 327 127.199 256C127.199 185 184.999 127.2 255.999 127.2C326.999 127.2 384.799 185 384.799 256C384.799 327 326.999 384.8 255.999 384.8Z" fill="#6E1423"/>
<path d="M408.299 64.0996C386.499 64.0996 368.699 81.7996 368.699 103.7C368.699 125.5 386.399 143.3 408.299 143.3C430.199 143.3 447.899 125.6 447.899 103.7C447.899 81.7996 430.099 64.0996 408.299 64.0996ZM408.299 128.3C394.799 128.3 383.699 117.3 383.699 103.7C383.699 90.0996 394.699 79.0996 408.299 79.0996C421.899 79.0996 432.899 90.0996 432.899 103.7C432.899 117.3 421.899 128.3 408.299 128.3Z" fill="#6E1423"/>
</g>
<defs>
<clipPath id="clip0">
<rect width="512" height="512" fill="white"/>
</clipPath>
</defs>
</svg>
