<?xml version="1.0" encoding="UTF-8"?>
<svg width="710px" height="150px" viewBox="0 0 710 150" version="1.1" xmlns="http://www.w3.org/2000/svg" xmlns:xlink="http://www.w3.org/1999/xlink">
    <title>lets-work-together</title>
    <g id="lets-work-together" stroke="none" stroke-width="1" fill="none" fill-rule="evenodd">
        <g id="Group" transform="translate(101.000000, 7.000000)" fill="#FF004C" fill-rule="nonzero">
            <path d="M4.59999583,124.619972 C5.19999528,124.219973 5.79999474,123.819973 6.39999419,123.219974 C6.57999403,123.099974 6.75999387,122.943974 6.9399937,122.778974 L7.29999338,122.444974 C7.59999311,122.169975 7.89999283,121.919975 8.19999256,121.819975 C8.79999202,121.619975 8.79999202,120.819976 9.59999129,120.619976 C10.1999907,120.219976 10.5999904,119.419977 11.3999897,119.019978 C11.9999891,118.619978 12.5999886,118.219978 13.199988,117.619979 C14.5999868,116.41998 16.1999853,115.219981 17.7999839,114.219982 C20.5999813,112.419983 23.199979,110.219985 26.1999762,108.819987 C26.5999759,108.819987 26.7999757,108.419987 27.1999753,108.219987 C27.599975,107.819988 28.1999744,107.619988 28.7999739,107.219988 C29.3999733,106.619989 30.3999724,107.019988 30.7999721,106.219989 C31.1999717,105.61999 32.1999708,106.019989 32.5999704,105.41999 C32.9999701,105.01999 33.5999695,105.61999 33.7999693,105.01999 C33.7999693,104.81999 33.7999693,104.81999 33.5999695,104.81999 L31.3999715,104.81999 C30.5999722,105.21999 29.9999728,106.019989 29.1999735,105.819989 C28.5999741,106.419989 27.3999751,106.019989 27.1999753,107.219988 C27.1999753,107.219988 26.7999757,107.219988 26.5999759,107.419988 C25.5999768,107.419988 24.7999775,108.019987 23.9999782,108.819987 C23.7999784,109.019987 23.5999786,109.419986 23.3999788,109.419986 C22.1999799,109.219986 21.7999802,110.419985 20.7999811,110.619985 C19.9999819,110.819985 19.1999826,111.419984 18.5999831,112.019984 C17.3999842,112.819983 16.3999851,113.819982 15.1999862,114.219982 C14.9999864,114.219982 14.7999866,114.419982 14.5999868,114.619981 C13.7999875,115.619981 12.7999884,116.01998 11.7999893,116.61998 C10.3999906,117.419979 9,118.619978 7.59999311,119.619977 L4.39999601,122.219975 L3,122.819974 C2.59999764,123.019974 2.59999764,122.619974 2.39999782,122.019975 C2.199998,121.619975 2.39999782,121.219976 2.59999764,120.819976 C2.79999746,120.219976 2.39999782,119.819977 2.79999746,119.219977 C3.39999692,118.419978 3,117.419979 3.59999673,116.61998 C3.79999655,116.41998 3.79999655,115.81998 3.59999673,115.419981 C3.39999692,114.619981 4.19999619,114.019982 4.19999619,113.219983 C4.19999619,112.619983 4.59999583,112.419983 5,112.019984 L5.19999528,111.219985 C4.74999569,110.919985 4.86249559,110.619985 5.03124544,110.319985 L5.16044454,110.094986 C5.17421406,110.069986 5.18749529,110.044986 5.19999528,110.019986 C5.79999474,109.419986 6.19999438,108.619987 6.19999438,107.819988 C6.19999438,107.419988 6.19999438,107.219988 6.39999419,107.019988 C7.19999347,105.61999 7.59999311,104.019991 8,102.619992 C8.39999238,101.619993 8.5999922,100.619994 9.19999165,99.8199949 C9.19999165,98.4199962 10,97.2199973 10.5999904,96.0199984 L10.7999902,95.2199991 C10.5999904,94.0200002 11.3999897,93.0200011 11.5999895,92.020002 C12.1999889,91.6200024 11.5999895,90.8200031 12.1999889,90.4200034 C13.199988,89.4200044 13.3999878,88.0200056 13.7999875,86.8200067 L14.3999869,85.420008 C15.1999862,83.6200096 15.7999857,81.8200112 16.5999849,80.2200127 C16.7999848,80.0200129 16.9999846,79.6200132 16.9999846,79.4200134 C16.7999848,78.4200143 17.3999842,77.6200151 17.7999839,76.8200158 C18.1999835,76.4200161 18.3999833,75.8200167 18.5999831,75.2200172 C18.9999828,74.2200181 19.1999826,73.0200192 19.799982,72.0200201 C20.1999817,70.8200212 20.7999811,69.6200223 21.1999808,68.4200234 C21.5999804,67.2200245 21.7999802,66.0200256 22.5999795,64.8200267 C22.7999793,64.420027 23.199979,63.8200276 23.199979,63.4200279 C23.199979,62.6200287 23.5999786,62.220029 23.5999786,61.4200298 C23.5999786,60.6200305 24.3999779,60.2200308 24.7999775,59.6200314 C24.7999775,59.2200317 25.1999771,58.8200321 25.1999771,58.4200325 C25.1999771,57.4200334 25.5999768,56.8200339 25.9999764,56.0200347 C25.9999764,55.620035 26.1999762,55.4200352 26.1999762,55.0200356 C26.1999762,54.4200361 26.3999761,54.0200365 26.7999757,53.420037 C27.599975,51.6200386 28.3999742,49.8200403 28.9999737,48.2200417 C29.5999731,47.0200428 30.1999726,45.8200439 30.3999724,44.620045 C30.4599724,44.3800452 30.5559723,44.1400454 30.6609722,43.9000456 L30.874972,43.4200461 C31.0499718,43.0200464 31.1999717,42.6200468 31.1999717,42.2200472 C31.3999715,41.4200479 31.999971,40.6200486 31.999971,39.6200495 C32.5999704,39.0200501 32.5999704,38.020051 32.9999701,37.4200515 C33.3999697,36.6200522 33.3999697,35.820053 33.5999695,35.0200537 C33.9999692,34.0200546 34.3999688,33.2200553 34.3999688,32.4200561 C34.5999686,31.420057 35.1999681,30.8200575 34.9999683,30.0200582 C34.9999683,29.8200584 35.3999679,29.4200588 35.3999679,29.220059 C35.1999681,27.8200602 36.1999672,26.6200613 35.9999673,25.0200628 C35.9999673,24.6200631 36.1999672,24.2200635 36.399967,23.8200639 C36.7999666,22.4200651 36.5999668,21.0200664 35.7999675,19.8200675 C35.5999677,19.4200679 35.1999681,19.220068 34.9999683,19.4200679 C34.3999688,19.6200677 34.7999684,19.8200675 34.9999683,20.0200673 C34.9999683,21.2200662 35.1999681,22.4200651 34.7999684,23.620064 C34.3999688,24.4200633 33.7999693,25.4200624 33.9999692,26.4200615 C34.199969,27.4200606 33.7999693,28.2200599 33.3999697,28.8200593 C33.1999699,29.220059 33.1999699,29.6200586 32.9999701,30.0200582 C32.1999708,31.6200568 31.999971,33.4200552 31.3999715,35.0200537 C31.3999715,35.6200532 30.7999721,36.0200528 30.9999719,36.6200522 C30.9999719,37.4200515 30.7999721,37.8200512 30.1999726,38.2200508 C29.9999728,38.4200506 29.799973,38.8200503 29.9999728,39.2200499 C29.9999728,40.0200492 29.5999731,40.6200486 29.3999733,41.0200483 C28.5999741,42.2200472 28.1999744,43.6200459 27.7999748,44.8200448 C27.7999748,45.0200446 27.599975,45.4200443 27.3999751,45.6200441 C26.3999761,48.0200419 25.399977,50.2200399 24.7999775,52.6200377 C24.5999777,53.0200374 24.5999777,53.2200372 24.3999779,53.420037 C23.7999784,53.8200366 23.7999784,54.4200361 23.5999786,55.2200354 C23.5399786,55.4000352 23.4439787,55.5800351 23.3389788,55.7600349 L23.124979,56.1200346 C22.9499792,56.4200343 22.7999793,56.720034 22.7999793,57.0200337 C22.7999793,58.0200328 22.1999799,59.0200319 21.5999804,60.020031 C21.1999808,60.6200305 21.3999806,61.6200296 20.7999811,62.220029 C20.5999813,62.4200288 20.5999813,62.8200285 20.5999813,63.0200283 C20.7999811,63.8200276 20.3999815,64.2200272 19.9999819,64.6200269 C19.3999824,65.0200265 19.5999822,65.4200261 19.9999819,66.0200256 L18.7999829,67.2200245 C18.3999833,67.8200239 18.7999829,68.6200232 18.1999835,69.0200229 C18.1999835,69.8200221 17.599984,70.4200216 17.3999842,71.2200209 C17.1999844,71.8200203 16.5999849,72.22002 16.5999849,72.8200194 C16.3999851,73.6200187 15.7999857,74.420018 15.5999858,75.2200172 C15.399986,76.2200163 14.9999864,76.8200158 14.5999868,77.6200151 C14.3999869,78.4200143 13.9999873,79.4200134 13.5999877,80.2200127 C13.5555433,80.3533459 13.5209754,80.4866791 13.4896997,80.6200123 L13.3991648,81.020012 C13.3209756,81.353345 13.2222102,81.686678 12.9999882,82.0200111 C12.7999884,82.2200109 13.199988,82.6200105 13.199988,83.0200102 C12.9999882,83.0200102 12.5999886,83.22001 12.5999886,83.4200098 C12.3999888,84.8200085 11.3999897,85.8200076 11,87.0200065 C11.7999893,87.4200062 11.7999893,87.4200062 11.7999893,88.2200054 C11.5999895,88.2200054 11.3999897,88.0200056 11,87.8200058 C10.5999904,88.4200053 10.7999902,88.8200049 10.7999902,89.4200044 C10.7999902,90.0200038 10,89.6200042 9.79999111,90.4200034 C9.59999129,91.2200027 9,92.020002 8.79999202,92.8200013 C8.19999256,94.8199995 7.19999347,96.6199978 6.59999401,98.8199958 C6.59999401,98.8199958 6.59999401,99.0199956 6.39999419,99.2199955 C5.79999474,99.6199951 5.59999492,100.219995 5.79999474,101.019994 C5.79999474,101.619993 5.59999492,102.019993 5.3999951,102.419993 C4.79999565,103.219992 4.39999601,104.019991 4.19999619,105.01999 C4,106.019989 3.59999673,107.019988 3.1999971,108.019987 C3,108.619987 3.39999692,108.819987 3.59999673,109.219986 C3.1999971,109.419986 2.59999764,109.419986 2.59999764,110.219985 C2.59999764,111.019985 2,111.619984 2,112.619983 C2.199998,113.019983 2,113.219983 1.79999837,113.619982 C1.39999873,114.419982 1,115.419981 1,116.41998 C1,116.61998 1,117.019979 0.799999274,117.019979 C0.399999637,117.619979 0.799999274,118.619978 0.199999819,119.019978 C0.199999819,119.419977 0.399999637,119.819977 0.399999637,120.019977 C-0.199999819,120.819976 0.199999819,121.819975 0,122.619974 C0,123.219974 0.399999637,123.819973 0.799999274,124.219973 C1.39999873,125.019972 3.79999655,125.219972 4.59999583,124.619972 Z M38.6200018,95.55 C47.3000018,95.55 57.5200018,87.22 57.5200018,86.8 C56.9600018,86.8 53.8800018,88.83 50.0300018,91 C45.4100018,93.52 41.6300018,94.57 38.7600018,94.57 C34.9100018,94.57 32.7400018,92.19 32.7400018,90.37 C32.7400018,89.32 33.4400018,88.41 34.7000018,88.41 C37.4300018,88.41 42.1900018,85.89 43.1700018,83.93 C43.5900018,83.23 43.7300018,82.6 43.7300018,82.04 C43.7300018,80.01 41.7700018,78.82 39.3900018,78.82 C34.5600018,78.82 29.8000018,84.35 29.8000018,88.62 C29.8000018,92.68 33.7900018,95.55 38.6200018,95.55 Z M33.3000018,87.43 C32.8800018,87.43 32.8100018,87.15 32.8100018,86.66 C32.8100018,84.91 36.9400018,80.78 38.5500018,80.78 C39.9500018,80.78 40.5800018,81.41 40.5800018,82.32 C40.5800018,84.91 34.4200018,87.43 33.3000018,87.43 Z M53.7199947,115.219981 C54.1199944,115.219981 54.3199942,114.819981 54.519994,114.619981 C54.519994,114.419982 54.3199942,114.419982 54.1199944,114.419982 C53.7199947,114.619981 53.5199949,114.219982 53.3199951,113.819982 C53.1199953,113.619982 53.1199953,113.619982 53.1199953,113.419983 C53.5199949,113.219983 52.92,113.019983 53.1199953,112.819983 C53.1199953,112.019984 53.5199949,111.419984 53.5199949,110.819985 C53.5199949,110.219985 53.7199947,109.819986 53.7199947,109.419986 C53.5199949,109.019987 54.1199944,108.619987 53.7199947,108.219987 C53.92,107.619988 54.1199944,106.819989 54.1199944,106.219989 C54.3199942,105.61999 54.7199938,105.21999 54.7199938,104.419991 C54.7199938,103.819991 55.1199935,103.219992 55.1199935,102.619992 C55.3199933,102.019993 55.3199933,101.419993 55.5199931,100.819994 C55.7199929,100.419994 55.7199929,99.8199949 55.92,99.4199953 C56.1422148,99.0866623 56.2409801,98.7533292 56.3191693,98.4199962 L56.4097042,98.0199966 C56.4409799,97.8866633 56.4755478,97.7533301 56.5199922,97.6199969 L57.7199911,93.8200004 C57.7199911,93.6200005 57.5199913,93.4200007 57.5199913,93.2200009 C57.5199913,92.8200013 58.1199907,92.6200015 57.92,92.2200018 C57.92,91.6200024 58.3199906,91.4200025 58.3199906,90.8200031 C58.3199906,90.6200033 58.7199902,90.2200036 58.7199902,89.820004 C58.92,89.0200047 59.5199895,88.4200053 59.5199895,87.620006 C59.3199897,86.6200069 60.3199888,86.2200073 60.3199888,85.420008 C60.3199888,84.4200089 60.9199882,83.4200098 61.119988,82.6200105 C61.3199878,81.6200114 61.7199875,80.6200123 62.1199871,79.8200131 C62.1199871,79.4200134 62.3199869,79.0200138 62.3199869,78.6200142 C62.3199869,78.4200143 62.5199868,78.0200147 62.7199866,77.8200149 L63.319986,77.0200156 L63.319986,76.0200165 L63.9199855,75.0200174 C64.3199851,74.420018 64.5199849,73.8200185 64.5199849,73.220019 C64.3199851,72.8200194 64.5199849,72.6200196 64.7199848,72.4200198 C64.9199846,71.8200203 65.3199842,71.2200209 65.7199839,70.6200214 C65.519984,70.020022 66.1199835,69.6200223 66.3199833,69.0200229 C66.5199831,68.6200232 66.5199831,68.2200236 66.5199831,67.8200239 C66.7199829,67.0200247 67.1199826,66.0200256 67.719982,65.2200263 C68.3199815,64.2200272 69.1199808,63.2200281 69.1199808,62.0200292 C69.1199808,61.8200294 69.3199806,61.6200296 69.3199806,61.2200299 C69.91998,60.6200305 70.1199799,59.8200312 70.3199797,59.0200319 C70.5199795,58.6200323 70.9199791,58.4200325 70.9199791,58.2200327 C70.7199793,57.0200337 71.7199784,56.8200339 72.3199779,56.4200343 C72.9199773,56.2200345 73.7199766,56.2200345 74.3199761,55.8200348 C74.9199755,55.620035 75.519975,55.620035 76.1199744,55.620035 C76.9199737,55.620035 77.3199733,55.0200356 77.9199728,55.0200356 C78.3199724,55.0200356 78.7199721,55.2200354 78.9199719,55.0200356 C79.919971,54.4200361 80.9199701,54.4200361 81.9199692,54.2200363 C82.5199686,54.2200363 83.3199679,54.2200363 83.7199675,54.0200365 C84.7199666,53.6200368 85.7199657,53.6200368 86.7199648,53.420037 C86.7199648,53.420037 86.9199646,53.420037 87.1199644,53.2200372 C87.5199641,52.8200376 88.1199635,53.0200374 88.719963,52.8200376 C89.5199623,52.8200376 90.3199615,52.6200377 91.1199608,52.6200377 C91.7199603,52.0200383 92.5199595,52.2200381 93.119959,52.0200383 C94.1199581,51.8200385 94.9199574,52.0200383 95.7199566,51.6200386 C96.7199557,51.0200392 97.7199548,51.220039 98.5199541,51.0200392 C98.5199541,51.0200392 98.7199539,51.0200392 98.7199539,50.8200394 C98.9199537,50.4200397 99.3199534,51.0200392 99.5199532,50.8200394 C99.719953,50.4200397 100.119953,50.6200395 100.519952,50.4200397 L101.519951,50.4200397 C102.119951,50.2200399 102.71995,50.2200399 103.31995,50.2200399 C104.119949,49.4200406 105.519948,50.0200401 106.319947,49.020041 C107.719946,49.020041 109.119944,48.8200412 110.319943,48.0200419 C110.319943,47.8200421 110.519943,48.0200419 110.519943,47.8200421 C111.719942,47.6200423 112.919941,47.0200428 113.91994,46.2200435 C113.51994,45.8200439 113.319941,45.4200443 112.919941,45.8200439 C112.519941,46.2200435 112.119942,46.2200435 111.719942,46.4200434 C111.319942,46.820043 110.719943,47.2200426 110.119944,47.2200426 C109.519944,47.2200426 108.919945,47.8200421 108.319945,47.8200421 L107.919946,47.8200421 C107.319946,48.4200415 106.319947,48.0200419 105.719948,48.4200415 C105.22764,48.789272 104.735333,48.8555441 104.243026,48.8985118 L103.873795,48.9307375 C103.68918,48.9490351 103.504565,48.9738872 103.31995,49.020041 C102.91995,49.2200408 102.319951,49.2200408 101.919951,49.2200408 C101.519951,49.8200403 100.919952,49.020041 100.719952,49.6200405 L99.3199534,49.8200403 C98.1199545,50.0200401 97.1199554,50.0200401 96.1199563,50.2200399 C95.7199566,50.2200399 95.319957,50.2200399 95.1199572,50.4200397 C94.7199575,50.8200394 93.9199583,50.6200395 93.3199588,50.8200394 C92.7199594,51.0200392 91.9199601,51.0200392 91.1199608,51.0200392 C90.919961,51.220039 90.7199612,51.6200386 90.3199615,51.220039 C89.9199619,51.4200388 89.7199621,51.6200386 89.3199624,51.6200386 C88.9199628,51.6200386 88.719963,51.6200386 88.3199634,51.8200385 C88.1199635,51.8200385 87.7199639,51.6200386 87.5199641,52.0200383 C87.3199643,52.4200379 86.9199646,51.8200385 86.7199648,52.0200383 C86.519965,52.4200379 86.1199653,52.0200383 85.7199657,52.2200381 C85.5199659,52.4200379 85.1199663,52.4200379 84.7199666,52.4200379 C84.319967,52.4200379 83.9199673,52.6200377 83.5199677,52.6200377 C82.9199683,52.8200376 82.119969,52.6200377 81.3199697,53.0200374 C80.7199702,53.420037 79.919971,53.2200372 79.1199717,53.420037 L78.9199719,53.6200368 C78.5199722,54.0200365 78.1199726,53.8200366 77.5199731,54.0200365 C77.1199735,54.0200365 76.7199739,54.0200365 76.3199742,54.2200363 C75.3199751,54.2200363 74.3199761,54.2200363 73.5199768,54.8200357 C73.319977,54.8200357 72.9199773,55.0200356 72.5199777,54.6200359 C73.1199771,53.420037 73.319977,52.2200381 74.3199761,51.220039 C74.5199759,51.0200392 74.5199759,50.6200395 74.5199759,50.4200397 C74.7199757,49.4200406 75.3199751,48.6200414 75.7199748,47.8200421 L76.9199737,45.4200443 C77.719973,44.2200454 78.1199726,42.8200466 79.3199715,41.6200477 C79.5199713,41.0200546 79.919971,40.4200488 80.3199706,39.8200493 C80.5199704,39.4200497 80.7199702,39.0200546 80.7199702,38.6200504 C80.9199701,38.2200508 81.5199695,38.4200506 81.5199695,37.8200512 C81.9199692,37.0200546 82.5199686,36.2200526 83.3199679,35.6200532 C83.7199675,35.4200533 83.9199673,35.2200535 84.1199672,34.8200539 C83.9199673,34.6200541 83.7199675,34.4200542 83.3199679,34.2200544 C83.1199681,34.0200546 82.9199683,34.0200546 82.5199686,34.0200546 C82.119969,34.0200546 82.3199688,34.6200541 82.119969,34.8200539 C81.9199692,34.6200541 81.9199692,34.6200541 81.7199693,34.6200541 C81.1199699,35.0200546 80.7199702,35.6200532 80.1199708,36.0200546 C79.5199713,36.6200522 78.9199719,37.2200517 78.7199721,38.2200508 C77.3199733,39.4200497 77.1199735,41.2200481 75.9199746,42.420047 C75.1199753,44.2200454 73.9199764,45.8200439 73.1199771,47.4200425 C73.1199771,47.6200423 72.9199773,47.8200421 72.9199773,48.0200419 C72.9199773,48.4200415 72.7199775,48.8200412 72.5199777,49.2200408 C72.119978,49.4200406 72.119978,49.8200403 71.9199782,50.2200399 C71.7199784,50.6200395 71.7199784,51.220039 71.3199788,51.4200388 C70.5199795,52.0200383 70.7199793,53.0200374 70.1199799,53.8200366 C70.1199799,53.8200366 70.3199797,54.0200365 70.3199797,54.2200363 L69.5199804,55.4200352 C68.7199811,55.8200348 68.1199817,55.620035 67.5199822,56.0200347 C67.1199826,56.2200345 66.3199833,56.2200345 65.7199839,56.4200343 C65.519984,56.4200343 65.519984,56.6200341 65.3199842,56.6200341 L64.7199848,56.6200341 C63.7199857,57.0200337 62.7199866,57.6200332 61.7199875,57.6200332 C60.9199882,57.6200332 60.5199886,57.820033 60.1199889,58.2200327 C60.1199889,58.4200325 59.7199893,58.2200327 59.7199893,58.2200327 C58.92,58.8200321 57.92,59.0200319 56.92,59.4200316 C55.3199933,60.020031 53.7199947,60.8200303 52.319996,62.0200292 C51.92,62.4200288 51.3199969,62.8200285 50.7199975,63.2200281 C50.5199976,63.4200279 50.5199976,63.8200276 50.3199978,64.0200274 C49.92,64.0200274 49.92,64.6200269 49.7199984,64.8200267 L49.1199989,65.4200261 C48.92,66.0200256 48.5199995,66.620025 48.1199998,67.2200245 C47.92,67.4200243 47.92,67.6200241 47.92,68.0200238 C47.92,68.4200234 47.92,69.0200229 48.1199998,69.6200223 C48.5199995,69.4200225 48.7199993,69.8200221 49.1199989,69.8200221 C49.3199987,69.2200227 48.92,68.6200232 49.5199985,68.0200238 C49.3199987,67.4200243 50.119998,67.6200241 50.119998,67.0200247 C50.119998,66.8200249 50.2699979,66.620025 50.4449977,66.4200252 L50.6589975,66.1800254 C50.7639974,66.0600255 50.8599973,65.9400257 50.92,65.8200258 C51.3199969,65.2200263 52.1199962,65.2200263 52.1199962,64.420027 C52.1199962,64.2200272 52.5199958,64.2200272 52.7199956,64.0200274 C54.3199942,62.8200285 56.1199926,62.0200292 57.7199911,61.0200301 L57.92,61.0200301 C58.7199902,61.0200301 59.1199898,60.6200305 59.5199895,60.4200307 C59.6533227,60.3755863 59.7866559,60.3212653 59.9199891,60.2636522 L60.3199888,60.0875207 C60.6533218,59.9434879 60.9866548,59.8200312 61.3199878,59.8200312 C61.7199875,59.2200317 62.5199868,59.6200314 62.9199864,59.2200317 C63.319986,58.8200321 63.9199855,58.8200321 64.5199849,58.8200321 C64.5199849,58.6200323 64.7199848,58.6200323 64.9199846,58.4200325 C65.9199837,58.2200327 66.7199829,58.0200328 67.5199822,57.6200332 C67.719982,57.6200332 67.9199819,57.6200332 68.1199817,57.820033 L67.3199824,59.8200312 C67.3199824,60.6200305 66.7199829,61.2200299 66.5199831,61.8200294 C66.3199833,61.8200294 66.3199833,62.0200292 66.3199833,62.220029 C66.5199831,62.6200287 66.1199835,63.2200281 65.9199837,63.6200278 C65.519984,64.2200272 65.519984,64.8200267 65.1199844,65.4200261 C64.7199848,66.0200256 64.5199849,66.620025 64.3199851,67.2200245 C63.9199855,69.0200229 62.9199864,70.4200216 62.3199869,72.22002 C62.3199869,72.6200196 61.7199875,72.8200194 61.9199873,73.4200189 C61.9199873,73.8200185 61.5199877,74.2200181 61.5199877,74.6200178 L61.3199878,76.0200165 C61.3199878,76.4200161 60.9199882,77.0200156 60.7199884,77.2200154 C60.3199888,77.6200151 60.5199886,78.2200145 60.3199888,78.6200142 C59.9199891,79.0200138 59.9199891,79.6200132 59.7199893,80.2200127 C59.5199895,81.020012 59.1199898,81.6200114 58.92,82.4200107 C58.7199902,83.22001 58.5199904,84.0200093 58.1199907,84.6200087 C57.92,85.420008 57.92,86.2200073 57.5199913,87.0200065 C57.1199917,87.8200058 56.92,88.8200049 56.719992,89.6200042 C56.92,90.6200033 55.92,91.4200025 56.1199926,92.4200016 C56.1199926,92.6200015 56.1199926,92.8200013 55.92,93.0200011 C55.5199931,93.2200009 55.5199931,93.8200004 55.3199933,94.22 C55.1199935,94.6199996 55.3199933,95.2199991 54.92,95.6199987 C54.519994,96.2199982 54.7199938,97.0199975 54.3199942,97.4199971 C54.519994,98.4199962 53.92,99.2199955 53.92,100.019995 C53.92,100.619994 53.7199947,101.219994 53.3199951,101.619993 C53.5199949,101.819993 53.7199947,102.019993 53.5199949,102.419993 C53.1199953,102.619992 52.92,103.019992 53.1199953,103.419992 C53.1199953,103.819991 53.1199953,104.019991 52.92,104.219991 C52.7199956,104.619991 52.7199956,105.01999 52.5199958,105.41999 C52.5199958,105.819989 52.5199958,106.219989 52.319996,106.419989 C52.6729369,106.77293 52.5414491,106.987462 52.3733239,107.185712 L52.2716346,107.303684 C52.1892003,107.401995 52.1199962,107.502341 52.1199962,107.619988 L52.1199962,108.019987 C52.1199962,108.219987 51.92,108.619987 51.92,109.019987 C51.92,110.019986 51.5199967,110.819985 51.7199966,111.819984 C51.7199966,112.219984 51.7199966,112.619983 51.5199967,113.019983 C51.3199969,113.219983 51.3199969,113.419983 51.5199967,113.619982 C51.92,114.019982 52.1199962,114.619981 52.7199956,115.019981 C52.92,115.219981 53.3199951,115.219981 53.7199947,115.219981 Z M96.3000018,44.38 C97.3500018,44.38 99.3800018,38.43 99.3800018,35.63 C99.3800018,34.09 98.6100018,33.74 97.9800018,33.74 C97.1400018,33.74 96.3000018,34.65 96.3000018,36.12 C96.0200018,39.69 95.3200018,42 95.3200018,43.26 C95.3200018,44.03 95.6000018,44.38 96.3000018,44.38 Z M138.560002,105.63 C141.570002,105.63 146.540002,101.85 153.330002,94.5 C156.760002,90.86 158.020002,89.6 158.930002,89.6 C159.350002,89.6 159.700002,89.88 160.190002,90.37 C162.080002,92.12 165.300002,92.75 168.800002,92.75 C177.410002,92.75 188.120002,88.97 188.120002,87.99 C187.980002,87.78 188.050002,87.78 187.840002,87.78 C187.000002,87.78 184.130002,89.11 180.630002,89.88 C175.380002,91.07 171.390002,91.63 168.380002,91.63 C163.690002,91.63 161.590002,90.23 161.590002,87.57 C161.590002,85.12 163.410002,81.48 166.770002,76.93 C167.540002,75.74 167.960002,75.04 167.960002,74.62 C167.960002,74.34 167.750002,74.2 167.400002,74.2 C167.400002,74.2 145.490002,104.65 138.700002,104.65 C137.440002,104.65 136.670002,103.6 136.670002,101.15 C136.670002,98.56 137.510002,94.36 139.470002,88.13 L139.610002,87.29 C139.610002,86.87 139.400002,86.66 139.050002,86.66 C137.160002,86.66 128.060002,95.41 126.660002,95.41 C126.380002,95.41 126.240002,95.2 126.240002,94.92 C126.240002,93.17 129.950002,86.87 129.950002,83.44 C129.950002,82.18 129.320002,81.34 128.620002,81.34 C126.870002,81.34 123.090002,92.89 123.090002,97.23 C123.090002,98.49 123.440002,99.19 124.350002,99.19 C126.730002,99.19 129.880002,96.18 136.250002,91 C136.110002,92.05 135.550002,96.74 135.550002,100.31 C135.550002,104.58 136.740002,105.63 138.560002,105.63 Z M186.230002,95.62 C188.610002,95.62 189.380002,92.54 192.040002,92.54 L194.000002,92.68 C199.110002,92.68 203.800002,88.41 203.800002,87.85 L203.590002,87.78 C202.610002,87.78 199.320002,91.84 194.140002,91.84 L192.250002,91.7 C191.690002,91.49 191.410002,91.21 191.410002,90.65 C191.410002,89.25 193.300002,84.91 193.300002,82.46 C193.300002,79.59 191.970002,78.33 190.360002,78.33 C188.190002,78.33 185.460002,80.92 185.460002,85.26 C185.460002,86.24 185.600002,87.22 185.880002,88.34 C184.830002,90.65 184.410002,92.26 184.410002,93.38 C184.410002,95.06 185.250002,95.62 186.230002,95.62 Z M189.030002,90.09 C188.260002,90.09 186.720002,86.03 186.720002,84.07 C186.720002,80.92 188.680002,78.96 190.220002,78.96 C191.270002,78.96 192.110002,79.8 192.110002,81.69 C192.110002,83.79 189.870002,90.09 189.030002,90.09 Z M186.650002,94.29 C186.230002,94.29 185.810002,93.8 185.810002,92.75 C185.950002,91.07 186.440002,89.74 187.000002,89.74 C187.910002,89.74 188.330002,90.58 188.330002,91.56 C188.330002,92.96 187.420002,94.29 186.650002,94.29 Z M206.810002,103.88 C212.690002,103.88 229.770002,88.2 229.770002,87.57 L229.070002,87.92 C227.740002,89.25 211.710002,103.39 206.950002,103.39 C206.180002,103.39 205.690002,102.97 205.690002,101.99 C205.690002,99.82 209.960002,93.17 209.960002,90.37 C209.960002,88.27 208.140002,88.34 204.920002,87.43 C206.950002,84.07 208.000002,82.81 208.000002,80.64 C208.000002,79.17 207.090002,78.4 205.830002,78.4 C204.360002,78.4 202.400002,79.59 201.350002,82.04 C200.860002,83.37 200.650002,84.49 200.650002,85.4 C200.650002,87.64 202.120002,88.41 203.590002,88.55 C206.250002,88.76 207.790002,89.53 207.790002,91.56 C207.790002,94.01 204.360002,99.47 204.360002,101.92 C204.360002,103.32 205.060002,103.81 206.810002,103.88 Z M203.520002,87.01 C202.890002,87.01 202.680002,86.52 202.680002,85.82 C202.680002,83.23 204.570002,79.8 205.690002,79.8 C206.180002,79.8 206.460002,80.22 206.460002,80.92 C206.250002,82.18 205.060002,85.19 203.940002,86.94 L203.520002,87.01 Z M222.000002,110.81 C222.770002,110.81 224.030002,109.2 224.870002,107.24 C226.760002,102.83 233.830002,93.73 234.600002,92.61 C237.960002,94.78 241.040002,95.55 243.840002,95.55 C252.450002,95.55 257.980002,87.57 257.980002,87.01 C257.420002,87.01 255.250002,88.97 252.660002,91 C250.000002,93.1 247.340002,93.87 244.890002,93.87 C240.340002,93.87 236.840002,91.28 236.840002,90.44 C236.910002,89.81 239.290002,88.41 242.230002,86.87 C245.800002,85.19 247.200002,83.72 247.200002,82.74 C247.200002,81.83 246.850002,81.41 246.150002,81.41 C245.170002,81.41 243.630002,82.25 241.600002,83.79 C237.680002,87.08 233.270002,87.43 233.270002,89.04 L233.340002,89.67 C233.340002,91.14 228.860002,98.28 227.880002,98.28 C227.880002,97.93 229.070002,94.57 230.470002,90.51 C233.340002,83.3 234.110002,82.04 242.230002,73.92 C259.100002,57.26 272.610002,37.87 272.960002,29.26 C272.960002,26.53 271.840002,25.41 270.160002,25.41 C255.460002,25.41 225.080002,90.65 220.880002,109.97 C220.880002,110.46 221.370002,110.81 222.000002,110.81 Z M235.580002,78.68 L237.820002,73.43 C252.450002,40.88 265.540002,26.81 269.810002,26.81 C270.720002,26.81 271.280002,27.51 271.280002,28.84 C271.280002,32.97 266.240002,43.4 253.920002,58.59 C246.301934,67.7607955 241.643752,72.5590315 238.663119,75.5493824 L238.235374,75.9777686 C238.142956,76.070186 238.052275,76.1607955 237.963283,76.2496875 L237.449257,76.7631534 C236.707559,77.5046074 236.095456,78.1215909 235.580002,78.68 Z M241.950002,85.82 C241.810002,85.82 241.740002,85.75 241.740002,85.61 L241.810002,85.4 C241.810002,85.4 242.930002,84.14 244.890002,83.02 C243.420002,84.84 242.510002,85.82 241.950002,85.82 Z M272.050002,121.45 C273.170002,121.45 274.500002,120.75 275.830002,119.42 C280.870002,114.24 296.830002,87.92 296.830002,86.31 L296.620002,86.17 C295.710002,86.17 292.980002,90.79 289.760002,96.6 C280.100002,113.19 274.850002,120.19 273.030002,120.19 C272.540002,120.19 272.330002,119.63 272.330002,118.58 C272.330002,115.99 273.870002,110.32 276.670002,102.34 C286.890002,74.06 303.340002,48.02 304.250002,46.13 C360.110002,34.93 358.080002,39.62 358.220002,37.03 C358.220002,36.33 356.960002,36.05 354.860002,36.05 C350.577402,36.05 342.706462,37.182096 334.496702,38.585895 L333.198082,38.80968 L333.198082,38.80968 L331.896673,39.0372282 C319.31207,41.252624 306.735002,43.89 305.720002,43.89 C305.860002,42.98 314.680002,28.98 314.680002,27.02 C314.610002,26.6 314.400002,26.53 314.050002,26.53 C313.000002,26.53 311.390002,29.05 306.980002,36.75 C302.220002,45.01 301.730002,45.5 298.230002,46.13 C287.170002,48.23 247.620002,60.48 247.480002,62.09 C247.480002,62.3 247.690002,62.37 248.110002,62.37 C249.860002,62.37 254.550002,60.97 258.470002,59.22 C264.980002,56.42 291.300002,49.07 300.750002,47.39 L297.600002,52.99 C284.160002,75.6 269.740002,109.69 269.740002,118.37 C269.880002,120.47 270.440002,121.45 272.050002,121.45 Z M294.800002,95.62 C297.180002,95.62 297.950002,92.54 300.610002,92.54 L302.570002,92.68 C307.680002,92.68 312.370002,88.41 312.370002,87.85 L312.160002,87.78 C311.180002,87.78 307.890002,91.84 302.710002,91.84 L300.820002,91.7 C300.260002,91.49 299.980002,91.21 299.980002,90.65 C299.980002,89.25 301.870002,84.91 301.870002,82.46 C301.870002,79.59 300.540002,78.33 298.930002,78.33 C296.760002,78.33 294.030002,80.92 294.030002,85.26 C294.030002,86.24 294.170002,87.22 294.450002,88.34 C293.400002,90.65 292.980002,92.26 292.980002,93.38 C292.980002,95.06 293.820002,95.62 294.800002,95.62 Z M297.600002,90.09 C296.830002,90.09 295.290002,86.03 295.290002,84.07 C295.290002,80.92 297.250002,78.96 298.790002,78.96 C299.840002,78.96 300.680002,79.8 300.680002,81.69 C300.680002,83.79 298.440002,90.09 297.600002,90.09 Z M295.220002,94.29 C294.800002,94.29 294.380002,93.8 294.380002,92.75 C294.520002,91.07 295.010002,89.74 295.570002,89.74 C296.480002,89.74 296.900002,90.58 296.900002,91.56 C296.900002,92.96 295.990002,94.29 295.220002,94.29 Z M301.100002,135.24 C305.930002,135.24 313.210002,131.67 321.540002,122.78 C327.910002,115.92 334.630002,103.46 336.520002,92.4 C336.520002,92.4 336.57869,92.374016 336.686676,92.3258829 L336.884454,92.2375507 C337.620402,91.908264 339.362702,91.1225 341.105002,90.29125 L341.654028,90.0277174 C343.74963,89.015388 345.690002,87.9998 345.690002,87.71 L344.990002,87.57 C342.750002,87.57 337.430002,90.37 336.520002,90.86 L336.590002,88.69 C336.590002,86.1 336.030002,82.11 331.900002,82.11 C330.360002,82.11 328.330002,83.16 326.720002,83.16 C325.040002,83.16 323.080002,81.97 321.190002,81.97 C314.750002,81.97 309.290002,89.95 309.290002,93.87 C309.290002,95.13 309.850002,95.97 311.180002,95.97 C312.650002,95.97 315.170002,94.85 318.810002,91.98 C322.310002,89.25 324.340002,88.2 325.670002,88.2 L327.210002,88.48 C327.770002,88.48 327.980002,88.2 327.980002,87.5 L327.840002,86.24 C327.840002,84.07 329.100002,84.21 331.690002,83.72 C333.160002,83.72 334.210002,84.49 334.280002,86.87 L334.280002,91.63 C334.280002,91.63 311.460002,102.13 300.960002,115.43 C296.690002,120.75 294.870002,125.44 294.870002,128.94 C294.870002,132.86 297.180002,135.24 301.100002,135.24 Z M312.790002,93.24 C312.510002,93.24 312.440002,93.1 312.440002,92.89 C312.440002,91.35 318.670002,84.77 321.190002,84.77 C322.590002,84.77 323.290002,84.98 323.290002,85.47 C323.290002,87.01 314.190002,93.24 312.790002,93.24 Z M301.240002,133.84 C298.160002,133.84 296.690002,131.81 296.690002,128.73 C296.690002,125.09 298.860002,119.91 302.990002,114.94 C314.190002,101.5 334.000002,93.24 334.000002,93.24 C333.370002,98.63 324.690002,124.04 307.190002,132.16 C304.810002,133.35 302.780002,133.84 301.240002,133.84 Z M357.520002,121.45 C358.640002,121.45 360.040002,120.75 361.370002,119.42 C363.507102,117.1926 367.676253,111.056414 371.734741,104.656838 L372.300108,103.762531 C377.472102,95.555775 382.300002,87.1955 382.300002,86.31 L382.160002,86.17 C381.250002,86.17 378.450002,90.79 375.230002,96.6 C365.570002,113.19 360.390002,120.19 358.570002,120.19 C358.080002,120.19 357.800002,119.63 357.800002,118.58 C357.800002,115.99 359.410002,110.32 362.140002,102.34 C372.360002,74.06 388.810002,48.02 389.790002,46.13 C445.650002,34.93 443.550002,39.62 443.760002,37.03 C443.760002,36.33 442.500002,36.05 440.400002,36.05 C435.864002,36.05 427.374402,37.3044 418.707842,38.80968 L417.407003,39.0372282 C404.828522,41.252624 392.275002,43.89 391.260002,43.89 C391.400002,42.98 400.220002,28.98 400.220002,27.02 C400.150002,26.6 399.870002,26.53 399.590002,26.53 C398.470002,26.53 396.860002,29.05 392.520002,36.75 C387.690002,45.01 387.270002,45.5 383.700002,46.13 C372.710002,48.23 333.090002,60.48 332.950002,62.09 C332.950002,62.3 333.230002,62.37 333.650002,62.37 C335.400002,62.37 340.020002,60.97 344.010002,59.22 C347.341036,57.7717241 356.009467,55.1061474 364.910379,52.6375345 L366.098097,52.3096775 C374.019424,50.1334007 381.945174,48.1624138 386.290002,47.39 C381.460002,55.86 379.570002,58.8 374.460002,68.46 C372.360002,71.33 367.110002,78.89 365.080002,81.55 C358.150002,90.16 352.690002,93.87 349.400002,93.87 C347.020002,93.87 345.830002,91.77 345.830002,90.44 C345.830002,89.32 346.530002,88.41 347.790002,88.41 C350.380002,88.41 355.140002,85.89 356.260002,83.93 C356.610002,83.3 356.750002,82.67 356.750002,82.04 C356.750002,80.08 354.790002,78.82 352.410002,78.82 C350.450002,78.82 348.140002,79.59 346.390002,81.41 C344.080002,83.72 342.960002,86.31 342.960002,88.69 C342.960002,91.7 345.200002,94.85 348.630002,94.85 C356.400002,94.85 368.020002,79.03 373.060002,71.54 C372.287202,73.1024 371.524258,74.674208 370.774539,76.2471808 L370.214782,77.427 C361.857202,95.1237 355.280002,112.707 355.280002,118.44 C355.420002,120.47 355.980002,121.45 357.520002,121.45 Z M346.250002,87.43 C345.830002,87.43 345.760002,87.15 345.760002,86.66 C345.760002,84.91 349.890002,80.78 351.640002,80.78 C353.040002,80.78 353.600002,81.41 353.600002,82.25 C353.600002,84.77 347.510002,87.43 346.250002,87.43 Z M375.720002,103.39 C376.81866,103.39 381.005012,99.5264247 385.372107,95.4743824 L386.045002,94.85 C390.647502,90.58 395.285002,86.31 396.580002,86.31 C397.210002,86.31 397.490002,86.8 397.490002,87.78 L397.420002,89.04 C397.420002,92.4 399.030002,93.52 401.270002,93.52 C406.030002,93.52 413.450002,88.2 413.450002,87.36 L413.240002,87.29 C412.610002,87.29 410.580002,88.34 408.130002,89.88 C404.910002,91.91 402.880002,92.75 401.620002,92.75 C399.699202,92.75 399.51261,90.927984 399.339189,88.9926957 L399.301602,88.57688 C399.172802,87.1892 398.988002,85.806 398.120002,85.05 C397.700002,84.77 397.280002,84.56 396.790002,84.56 C394.970002,84.56 392.030002,86.8 385.660002,92.89 C382.370002,96.04 379.710002,98.49 379.430002,98.49 C379.430002,98.14 380.200002,96.11 381.180002,93.52 C382.440002,90.02 384.540002,87.29 389.930002,82.39 C406.240002,67.55 416.250002,49.7 416.250002,41.79 C416.250002,39.83 415.480002,38.85 414.150002,38.85 C407.990002,38.85 389.790002,59.15 377.680002,95.13 C375.930002,100.1 375.300002,102.34 375.300002,102.76 C375.300002,103.18 375.440002,103.39 375.720002,103.39 Z M383.420002,87.01 L386.290002,80.78 C392.030002,68.32 396.510002,59.85 402.600002,51.24 C408.200002,43.33 411.910002,40.11 413.800002,40.11 C414.640002,40.11 415.130002,40.81 415.130002,42.21 C415.130002,47.67 407.780002,63.07 393.010002,78.05 C392.253511,78.8408772 391.2901,79.7837765 390.267052,80.7563098 L389.82538,81.1745673 C389.751303,81.2444604 389.677029,81.3144154 389.602611,81.3843878 L389.154817,81.8040741 L389.154817,81.8040741 L388.70616,82.2220367 C386.689131,84.0957793 384.724182,85.8521373 383.867771,86.6132075 L383.696135,86.765594 C383.518183,86.9234318 383.420002,87.01 383.420002,87.01 Z M419.680002,95.55 C428.360002,95.55 438.580002,87.22 438.580002,86.8 C438.020002,86.8 434.940002,88.83 431.090002,91 C426.470002,93.52 422.690002,94.57 419.820002,94.57 C415.970002,94.57 413.800002,92.19 413.800002,90.37 C413.800002,89.32 414.500002,88.41 415.760002,88.41 C418.490002,88.41 423.250002,85.89 424.230002,83.93 C424.650002,83.23 424.790002,82.6 424.790002,82.04 C424.790002,80.01 422.830002,78.82 420.450002,78.82 C415.620002,78.82 410.860002,84.35 410.860002,88.62 C410.860002,92.68 414.850002,95.55 419.680002,95.55 Z M414.360002,87.43 C413.940002,87.43 413.870002,87.15 413.870002,86.66 C413.870002,84.91 418.000002,80.78 419.610002,80.78 C421.010002,80.78 421.640002,81.41 421.640002,82.32 C421.640002,84.91 415.480002,87.43 414.360002,87.43 Z M439.770002,103.88 C445.650002,103.88 462.730002,88.2 462.730002,87.57 L462.030002,87.92 C460.700002,89.25 444.670002,103.39 439.910002,103.39 C439.140002,103.39 438.650002,102.97 438.650002,101.99 C438.650002,99.82 442.920002,93.17 442.920002,90.37 C442.920002,88.27 441.100002,88.34 437.880002,87.43 C439.910002,84.07 440.960002,82.81 440.960002,80.64 C440.960002,79.17 440.050002,78.4 438.790002,78.4 C437.320002,78.4 435.360002,79.59 434.310002,82.04 C433.820002,83.37 433.610002,84.49 433.610002,85.4 C433.610002,87.64 435.080002,88.41 436.550002,88.55 C439.210002,88.76 440.750002,89.53 440.750002,91.56 C440.750002,94.01 437.320002,99.47 437.320002,101.92 C437.320002,103.32 438.020002,103.81 439.770002,103.88 Z M436.480002,87.01 C435.850002,87.01 435.640002,86.52 435.640002,85.82 C435.640002,83.23 437.530002,79.8 438.650002,79.8 C439.140002,79.8 439.420002,80.22 439.420002,80.92 C439.210002,82.18 438.020002,85.19 436.900002,86.94 L436.480002,87.01 Z M469.450002,84.98 C470.080002,84.98 470.710002,84.14 471.060002,83.02 C471.200002,82.04 476.450002,70.56 482.540002,57.47 C502.630002,13.86 507.460002,3.22 507.460002,0.77 C507.460002,0.14 507.180002,-1.42108547e-14 506.760002,-1.42108547e-14 C503.400002,-1.42108547e-14 494.510002,27.02 478.830002,60.83 C470.080002,79.66 469.240002,82.11 468.960002,83.93 C468.960002,84.56 469.100002,84.98 469.450002,84.98 Z M464.480002,96.6 C466.930002,96.6 469.730002,93.24 469.730002,91.14 C469.730002,90.16 469.100002,89.39 467.490002,89.39 C465.250002,89.39 462.800002,92.82 462.800002,94.92 C462.800002,96.25 463.360002,96.39 464.480002,96.6 Z" id="Let’worktogeher!"></path>
            <path d="M75.4300018,112.57 C79.5600018,112.57 85.9300018,107.6 85.9300018,96.75 L85.7200018,93.53 C87.2202487,92.5119753 90.3814833,90.5506737 93.7086647,88.4701333 L94.354306,88.0661805 C94.4621245,87.9986806 94.5700152,87.931112 94.6779281,87.8635022 L95.3252693,87.457572 C95.6486712,87.2545816 95.971369,87.0517193 96.2920076,86.8497317 L96.9301379,86.4471445 C101.160683,83.7739567 104.86457,81.3448148 104.830242,80.93 C104.230002,80.93 99.836351,83.6125397 95.3981046,86.4228193 L94.7325018,86.845 C90.0775018,89.8025 85.5800018,92.76 85.5800018,92.76 C85.5668768,92.641875 85.5192987,92.4228516 85.4506488,92.1241553 L85.3754706,91.7996875 C85.0506268,90.401875 84.4600018,87.8425 84.4600018,85.48 C84.4600018,83.1 85.0900018,80.86 87.1900018,80.3 C88.2400018,80.02 88.6600018,79.39 88.6600018,78.83 C88.6600018,77.99 87.8900018,77.22 86.5600018,77.22 C83.9700018,77.22 81.7300018,80.51 81.7300018,84.85 C81.7300018,85.97 81.8700018,87.16 82.2200018,88.42 L83.8300018,93.88 L83.8024782,93.9009994 C83.5668071,94.0810997 81.8551814,95.3949042 80.1211927,96.8817786 L79.7213062,97.2275384 C78.657412,98.1554253 77.6273931,99.1208696 76.9700018,99.9 C73.3300018,103.89 71.9300018,107.04 71.9300018,109.14 C71.9300018,111.38 73.4000018,112.57 75.4300018,112.57 Z M75.7100018,111.24 C74.5200018,111.24 73.6800018,110.54 73.6800018,109.21 C73.6800018,104.45 82.0800018,96.82 84.1100018,95.14 C84.3200018,96.47 84.4600018,97.8 84.4600018,99.13 C84.4600018,102.14 83.7600018,105.01 81.4500018,107.88 C79.5600018,110.05 77.3200018,111.24 75.7100018,111.24 Z" id="s"></path>
        </g>
    </g>
</svg>