<?xml version="1.0" encoding="UTF-8"?>
<svg width="710px" height="150px" viewBox="0 0 710 150" version="1.1" xmlns="http://www.w3.org/2000/svg" xmlns:xlink="http://www.w3.org/1999/xlink">
    <title>our-approach</title>
    <g id="our-approach" stroke="none" stroke-width="1" fill="none" fill-rule="evenodd">
        <line x1="0" y1="75" x2="200" y2="75" id="Line" stroke="#FF0040" stroke-linecap="square"></line>
        <path d="M212.3,126.02 C216.78,126.02 223.85,122.45 233.72,113.7 C239.04,108.87 241.7,106.49 242.68,106.49 C243.66,106.49 269.84,102.36 294.9,81.29 C296.65,79.82 297.35,79.05 297.35,78.7 C297.35,78.56 297.28,78.56 297.07,78.56 C296.37,78.56 294.13,79.75 292.03,81.57 C279.71,92.14 254.65,104.25 243.8,104.25 C251.36,94.8 261.09,82.13 269.21,67.36 C278.59,50.42 284.54,31.94 284.54,20.6 C284.54,6.18 274.11,1 262.91,1 C240.65,1 208.1,21.72 200.05,59.73 C199.35,63.3 199,67.01 199,70.51 C199,80.87 202.01,90.39 207.54,95.99 L211.25,99.77 C208.03,108.24 206.21,112.09 206.21,118.18 C206.21,123.01 208.17,126.02 212.3,126.02 Z M241.91,104.25 L235.33,104.11 C229.59,104.11 217.34,101.38 215.38,99.63 L215.24,99.21 C215.24,97.1923077 220.555714,89.3241843 226.358792,82.1418257 L226.930988,81.4378061 C229.606982,78.1648521 232.352308,75.0815385 234.7,72.82 C237.5,70.09 238.9,68.55 238.9,67.78 C238.9,67.29 238.34,67.08 237.29,67.08 C233.44,67.08 218.46,85.14 214.12,94.52 C213.42,96.13 212.79,96.9 212.09,96.9 C211.18,96.9 210.06,95.71 208.24,93.26 C204.18,88.08 202.01,79.68 202.01,70.65 C202.01,64.77 202.99,58.54 204.88,52.87 C215.52,20.46 243.94,2.05 263.26,2.05 C274.25,2.05 282.3,8.07 282.3,20.95 C282.3,42.51 266.76,72.96 241.91,104.25 Z M212.58,125.04 C209.99,125.04 208.38,123.29 208.38,118.81 C208.38,113.77 210.97,107.61 213.98,100.89 L219.09,102.64 C225.11,104.88 235.54,105.72 240.3,106.49 C235.4,110.2 220.07,125.04 212.58,125.04 Z M318.98,86.82 C320.45,86.82 322.2,86.54 324.3,85.98 C329.69,84.51 336.55,80.1 337.81,78.98 L337.95,78.7 L337.88,78.7 C336.9,78.7 325.91,86.19 319.4,86.19 C316.88,86.19 314.78,84.72 314.78,82.2 C314.78,79.75 317.16,76.18 317.16,74.78 C317.16,74.29 316.95,74.08 316.53,74.08 C315.55,74.08 313.52,75.2 310.23,77.51 C303.44,82.41 299.87,84.44 298.26,84.44 C297.42,84.44 297.14,83.88 297.14,82.9 C297.14,80.94 298.12,78.91 298.54,75.2 C298.54,74.29 298.19,73.8 297.7,73.8 C296.93,73.8 295.81,74.85 295.04,76.88 C294.34,78.98 293.99,80.73 293.99,82.13 C293.99,84.65 295.11,85.91 297.28,85.91 C299.45,85.91 302.67,84.58 306.73,81.85 C307.99,80.9852941 308.997128,80.286263 309.803702,79.7436739 L310.190519,79.4853735 C311.425813,78.6675433 312.128235,78.28 312.54,78.28 C312.89,78.28 312.96,78.63 312.96,79.19 L312.96,80.38 C312.96,84.16 314.43,86.82 318.98,86.82 Z M339.98,95.36 C345.86,95.36 362.94,79.68 362.94,79.05 L362.24,79.4 C360.91,80.73 344.88,94.87 340.12,94.87 C339.35,94.87 338.86,94.45 338.86,93.47 C338.86,91.3 343.13,84.65 343.13,81.85 C343.13,79.75 341.31,79.82 338.09,78.91 C340.12,75.55 341.17,74.29 341.17,72.12 C341.17,70.65 340.26,69.88 339,69.88 C337.53,69.88 335.57,71.07 334.52,73.52 C334.03,74.85 333.82,75.97 333.82,76.88 C333.82,79.12 335.29,79.89 336.76,80.03 C339.42,80.24 340.96,81.01 340.96,83.04 C340.96,85.49 337.53,90.95 337.53,93.4 C337.53,94.8 338.23,95.29 339.98,95.36 Z M336.69,78.49 C336.06,78.49 335.85,78 335.85,77.3 C335.85,74.71 337.74,71.28 338.86,71.28 C339.35,71.28 339.63,71.7 339.63,72.4 C339.42,73.66 338.23,76.67 337.11,78.42 L336.69,78.49 Z M401.65,87.31 C404.73,87.31 416.84,79.61 416.84,79.05 L416.77,79.05 C416.438983,79.05 413.344504,81.0211405 410.096082,82.8920535 L409.466133,83.2523579 C406.734099,84.8034329 404.012203,86.19 402.84,86.19 C402.07,86.19 401.65,85.77 401.65,84.79 C401.65,82.34 404.45,75.27 404.45,73.38 C404.45,71.91 403.82,72.12 402.7,71.91 C401.3,71.91 400.04,73.24 399.27,73.24 C398.71,73.03 398.71,72.68 397.8,72.68 C396.05,72.68 392.62,74.08 389.75,76.11 C384.99,79.47 382.47,83.25 382.47,85.14 C382.47,85.91 382.89,86.4 383.8,86.4 C385.2,86.4 387.79,85.14 391.64,81.85 C398.22,76.18 400.81,76.88 400.81,75.41 L400.74,75.13 C400.74,74.01 401.37,73.45 402.21,73.1 C402.35,73.1 402.49,73.24 402.49,73.59 C402.49,75.13 399.69,81.71 399.69,85 C399.69,86.4 400.25,87.31 401.65,87.31 Z M385.97,84.02 L385.9,84.02 C385.9,83.11 390.87,77.44 395,75.27 L395.56,75.13 C395.63,75.13 395.63,75.13 395.63,75.2 C395.63,75.55 394.44,76.88 391.99,79.12 C388.42,82.69 386.6,84.02 385.97,84.02 Z M388.84,149.05 C391.29,149.05 398.29,124.76 418.59,96.48 C423.98,88.85 425.1,87.59 427.34,87.59 C430.28,87.59 433.92,85.14 439.8,83.88 C445.47,82.83 452.68,80.45 452.68,79.33 L452.26,78.98 C451.49,78.98 449.74,81.5 435.32,83.88 L437.21,80.52 C437.77,79.54 438.19,78.21 438.19,77.09 C438.19,76.11 437.84,75.34 436.79,75.34 C435.39,75.34 432.8,76.74 428.32,80.87 C425.1,83.81 422.79,86.19 422.79,86.54 L423,86.75 C423,87.17 422.09,88.57 420.76,90.32 C416.98,95.43 406.13,112.02 402.91,117.76 C401.79,120 400.67,121.47 400.32,121.47 L400.18,121.33 C400.18,120.0196 404.552368,109.320912 409.507718,98.0233421 L410.081861,96.7176186 L410.081861,96.7176186 L410.659885,95.4095802 C410.756474,95.1915475 410.85317,94.9735434 410.949948,94.7556304 L411.531367,93.4497453 C415.508082,84.540499 419.5301,75.9945 421.74,72.12 C422.02,71.56 422.16,71.21 422.16,70.93 C422.16,70.51 421.88,70.37 421.25,70.37 C416.77,70.37 388.7,144.22 388.07,148.56 C388.07,148.7 388.42,149.05 388.84,149.05 Z M430.35,83.81 C429.58,83.81 429.09,83.53 429.09,83.04 L429.09,82.97 C429.09,82.83 433.85,76.88 435.25,76.88 C435.53,76.88 435.67,77.09 435.67,77.51 C435.32,82.2 431.96,83.81 430.35,83.81 Z M426.99,86.61 C426.5,86.61 426.08,86.47 426.08,86.33 C426.99,85.63 426.64,85.98 427.69,85.77 C428.18,85.77 428.39,85.84 428.53,86.12 C428.53,86.4 427.69,86.61 426.99,86.61 Z M424.54,149.05 C426.99,149.05 433.99,124.76 454.29,96.48 C459.68,88.85 460.8,87.59 463.04,87.59 C465.98,87.59 469.62,85.14 475.5,83.88 C481.17,82.83 488.38,80.45 488.38,79.33 L487.96,78.98 C487.19,78.98 485.44,81.5 471.02,83.88 L472.91,80.52 C473.47,79.54 473.89,78.21 473.89,77.09 C473.89,76.11 473.54,75.34 472.49,75.34 C471.09,75.34 468.5,76.74 464.02,80.87 C460.8,83.81 458.49,86.19 458.49,86.54 L458.7,86.75 C458.7,87.17 457.79,88.57 456.46,90.32 C452.68,95.43 441.83,112.02 438.61,117.76 C437.49,120 436.37,121.47 436.02,121.47 L435.88,121.33 C435.88,120.0196 440.252368,109.320912 445.207718,98.0233421 L445.781861,96.7176186 L445.781861,96.7176186 L446.359885,95.4095802 C446.456474,95.1915475 446.55317,94.9735434 446.649948,94.7556304 L447.231367,93.4497453 C451.208082,84.540499 455.2301,75.9945 457.44,72.12 C457.72,71.56 457.86,71.21 457.86,70.93 C457.86,70.51 457.58,70.37 456.95,70.37 C452.47,70.37 424.4,144.22 423.77,148.56 C423.77,148.7 424.12,149.05 424.54,149.05 Z M466.05,83.81 C465.28,83.81 464.79,83.53 464.79,83.04 L464.79,82.97 C464.79,82.83 469.55,76.88 470.95,76.88 C471.23,76.88 471.37,77.09 471.37,77.51 C471.02,82.2 467.66,83.81 466.05,83.81 Z M462.69,86.61 C462.2,86.61 461.78,86.47 461.78,86.33 C462.69,85.63 462.34,85.98 463.39,85.77 C463.88,85.77 464.09,85.84 464.23,86.12 C464.23,86.4 463.39,86.61 462.69,86.61 Z M490.62,95.36 C496.5,95.36 513.58,79.68 513.58,79.05 L512.88,79.4 C511.55,80.73 495.52,94.87 490.76,94.87 C489.99,94.87 489.5,94.45 489.5,93.47 C489.5,91.3 493.77,84.65 493.77,81.85 C493.77,79.75 491.95,79.82 488.73,78.91 C490.76,75.55 491.81,74.29 491.81,72.12 C491.81,70.65 490.9,69.88 489.64,69.88 C488.17,69.88 486.21,71.07 485.16,73.52 C484.67,74.85 484.46,75.97 484.46,76.88 C484.46,79.12 485.93,79.89 487.4,80.03 C490.06,80.24 491.6,81.01 491.6,83.04 C491.6,85.49 488.17,90.95 488.17,93.4 C488.17,94.8 488.87,95.29 490.62,95.36 Z M487.33,78.49 C486.7,78.49 486.49,78 486.49,77.3 C486.49,74.71 488.38,71.28 489.5,71.28 C489.99,71.28 490.27,71.7 490.27,72.4 C490.06,73.66 488.87,76.67 487.75,78.42 L487.33,78.49 Z M512.6,87.1 C514.98,87.1 515.75,84.02 518.41,84.02 L520.37,84.16 C525.48,84.16 530.17,79.89 530.17,79.33 L529.96,79.26 C528.98,79.26 525.69,83.32 520.51,83.32 L518.62,83.18 C518.06,82.97 517.78,82.69 517.78,82.13 C517.78,80.73 519.67,76.39 519.67,73.94 C519.67,71.07 518.34,69.81 516.73,69.81 C514.56,69.81 511.83,72.4 511.83,76.74 C511.83,77.72 511.97,78.7 512.25,79.82 C511.2,82.13 510.78,83.74 510.78,84.86 C510.78,86.54 511.62,87.1 512.6,87.1 Z M515.4,81.57 C514.63,81.57 513.09,77.51 513.09,75.55 C513.09,72.4 515.05,70.44 516.59,70.44 C517.64,70.44 518.48,71.28 518.48,73.17 C518.48,75.27 516.24,81.57 515.4,81.57 Z M513.02,85.77 C512.6,85.77 512.18,85.28 512.18,84.23 C512.32,82.55 512.81,81.22 513.37,81.22 C514.28,81.22 514.7,82.06 514.7,83.04 C514.7,84.44 513.79,85.77 513.02,85.77 Z M545.43,87.31 C548.51,87.31 560.62,79.61 560.62,79.05 L560.55,79.05 C560.218983,79.05 557.124504,81.0211405 553.876082,82.8920535 L553.246133,83.2523579 C550.514099,84.8034329 547.792203,86.19 546.62,86.19 C545.85,86.19 545.43,85.77 545.43,84.79 C545.43,82.34 548.23,75.27 548.23,73.38 C548.23,71.91 547.6,72.12 546.48,71.91 C545.08,71.91 543.82,73.24 543.05,73.24 C542.49,73.03 542.49,72.68 541.58,72.68 C539.83,72.68 536.4,74.08 533.53,76.11 C528.77,79.47 526.25,83.25 526.25,85.14 C526.25,85.91 526.67,86.4 527.58,86.4 C528.98,86.4 531.57,85.14 535.42,81.85 C542,76.18 544.59,76.88 544.59,75.41 L544.52,75.13 C544.52,74.01 545.15,73.45 545.99,73.1 C546.13,73.1 546.27,73.24 546.27,73.59 C546.27,75.13 543.47,81.71 543.47,85 C543.47,86.4 544.03,87.31 545.43,87.31 Z M529.75,84.02 L529.68,84.02 C529.68,83.11 534.65,77.44 538.78,75.27 L539.34,75.13 C539.41,75.13 539.41,75.13 539.41,75.2 C539.41,75.55 538.22,76.88 535.77,79.12 C532.2,82.69 530.38,84.02 529.75,84.02 Z M564.96,88.71 C566.29,88.71 567.83,88.5 569.65,87.87 C573.99,86.54 584.14,80.31 584.14,79.12 C584,78.98 584.14,78.98 583.86,78.91 C583.3,78.91 582.11,79.82 580.78,80.87 C573.92,85.7 569.16,87.45 566.15,87.45 C562.65,87.45 561.32,85.21 561.32,82.69 C561.32,79.68 563.28,76.32 565.8,76.32 L567.34,76.53 C568.11,76.53 568.53,76.25 568.53,75.83 C568.53,75.06 566.92,74.08 565.24,74.08 C561.32,74.08 558.59,78.56 558.59,82.55 C558.59,85.77 560.41,88.71 564.96,88.71 Z M577.56,95.64 C578.631928,95.64 583.102945,91.43811 587.673978,87.1855949 L588.343241,86.5633961 C592.804647,82.4194194 597.208072,78.42 598.49,78.42 C598.98,78.42 599.19,78.91 599.19,79.68 L599.12,80.87 C599.12,84.51 600.87,85.77 603.18,85.77 C604.23,85.77 605.42,85.49 606.68,85 C606.68,85 607.754213,84.478066 609.693542,83.6116556 L610.413592,83.2918491 C620.610021,78.789166 649.8882,66.94 675.63,66.94 C683.33,66.94 690.75,67.99 697.19,70.65 C700.83,72.12 705.45,74.78 706.78,78.63 C707.13,79.19 707.2,79.33 707.69,79.33 C708.32,79.33 708.81,78.84 708.81,78.28 C708.81,78 708.67,77.72 708.32,77.51 C704.68,74.78 699.64,66.1 676.26,66.1 C660.86,66.1 636.92,69.39 606.68,83.88 C605.21,84.58 604.16,84.93 603.39,84.93 C600.03,84.93 602.13,79.19 599.82,77.37 C599.4,77.02 598.98,76.81 598.42,76.81 C596.6,76.81 593.66,79.12 587.36,85.21 C584.14,88.29 581.34,90.74 581.13,90.74 L582.88,85.63 C584.14,82.13 586.38,79.61 591.84,74.64 C608.15,59.59 618.02,41.95 618.02,34.04 C618.02,32.08 617.25,31.1 615.85,31.1 C609.69,31.1 591.63,51.33 579.38,87.38 C578.05,91.72 577.14,94.45 577.14,95.08 C577.14,95.43 577.28,95.64 577.56,95.64 Z M585.26,79.26 L588.13,73.03 C599.61,47.2 611.58,32.29 615.57,32.29 C616.48,32.29 616.97,32.99 616.97,34.39 C616.97,39.92 609.62,55.32 594.85,70.37 C592.420877,72.7991228 587.666694,77.0974115 585.922213,78.6659342 L585.712178,78.8546654 C585.424044,79.1134072 585.26,79.26 585.26,79.26 Z" id="Ourapproach" fill="#FF0040" fill-rule="nonzero"></path>
    </g>
</svg>