<svg width="802" height="984" viewBox="0 0 802 984" fill="none" xmlns="http://www.w3.org/2000/svg">
<path d="M97.9222 977.437L98.0719 977.445H98.2218H98.7091C109.456 977.445 121.178 977.446 130.788 975.043L130.972 974.997L131.152 974.94L131.213 974.921C180.057 959.379 229.034 943.795 278.03 925.98C302.819 917.125 326.319 904.071 349.009 891.468C355.282 887.983 361.494 884.532 367.653 881.215C429.995 850.04 488.302 816.437 539.984 769.265C589.221 726.733 631.749 679.721 669.785 626.024L669.877 625.894L669.961 625.76C696.839 583.204 719.623 535.593 724.196 483.115C727.628 448.725 721.356 418.966 705.743 395.104C690.123 371.233 665.535 353.842 633.391 343.51L633.263 343.469L633.134 343.434C612.81 337.891 588.229 335.367 567.686 334.6L764.754 131.175L764.995 130.926L765.206 130.651C778.325 113.539 787.324 96.5133 792.02 80.9948C796.688 65.5692 797.255 51.0899 792.692 39.521C787.986 27.5871 778.123 19.5589 764.001 17.0313C750.223 14.5653 732.615 17.3334 711.523 25.884L711.431 25.9213L711.341 25.9616C691.023 34.9918 670.771 46.248 652.82 57.4676L652.716 57.5321L652.616 57.6008C560.868 120.258 484.904 198.496 415.813 283.185C360.25 349.861 306.811 416.653 257.792 487.944C228.715 526.725 203.076 567.942 177.722 608.699C168.073 624.211 158.464 639.657 148.724 654.877L148.706 654.904L148.689 654.931L102.401 728.992C106.18 717.717 110.51 706.88 114.904 695.895L114.907 695.887L114.91 695.88C170.235 556.461 247.728 430.222 327.735 303.544C369.793 237.136 416.293 175.69 457.248 127.263C498.325 78.6918 533.483 43.6262 552.846 29.6418L555.333 27.8456V24.7777C555.333 20.2189 553.978 16.2126 551.433 13.0583C548.923 9.94812 545.546 8.02337 542.05 7.05222C535.325 5.18417 527.431 6.61522 521.55 10.8955C512.422 16.4302 505.804 23.5901 500.532 29.2939C498.982 30.9707 497.548 32.5216 496.201 33.8685L495.994 34.076L495.808 34.3027C482.591 50.393 469.038 66.5263 455.395 82.7671C416.503 129.066 376.876 176.238 342.198 225.778C246.518 361.511 159.615 501.865 92.7323 653.467L92.6994 653.542L92.6685 653.617C87.1364 667.14 81.0275 681.696 74.6949 696.784C58.248 735.972 40.2915 778.756 27.0083 816.392C17.8125 842.447 10.7074 866.433 7.91149 885.323C6.51686 894.746 6.13244 903.284 7.29266 910.339C8.44959 917.375 11.3099 923.817 17.1995 927.603L18.6818 928.556H20.4441C24.1804 928.556 27.4582 926.408 29.8441 924.448C32.4722 922.289 35.2616 919.296 38.1557 915.752C43.9672 908.635 50.8124 898.53 58.3866 886.349C73.5627 861.941 92.1131 828.461 111.83 792.081C118.942 778.959 126.205 765.462 133.522 751.865C166.903 689.832 201.394 625.736 227.669 585.868C298.652 479.395 374.035 377.409 458.254 279.885C511.604 222.089 564.621 164.676 624.193 116.129C639.398 104.188 656.306 93.8139 673.76 83.5627C677.216 81.5334 680.696 79.5067 684.189 77.4733C698.083 69.3834 712.158 61.1881 725.517 52.3102C739.256 46.5689 748.338 45.6584 753.804 46.9671C756.438 47.5977 758.185 48.7256 759.388 50.0822C760.617 51.4688 761.563 53.4195 762.035 56.0983C763.009 61.6175 761.828 69.4946 758.045 78.8038C754.314 87.9862 748.268 98.0163 740.279 107.603L740.16 107.746L740.05 107.896C715.787 140.983 689.367 171.796 658.584 200.381L658.502 200.457L658.424 200.535C614.121 244.838 567.602 286.926 518.867 326.801L518.758 326.89L518.652 326.985C500.602 343.23 476.568 359.863 450.458 377.931C444.944 381.747 439.338 385.627 433.676 389.581C401.441 412.089 367.674 436.824 340.56 465.067L335.349 470.496L341.802 474.367C342.353 474.698 342.922 475.051 343.51 475.417C348.168 478.31 354.066 481.974 362.311 481.314C371.15 480.607 381.782 475.149 397.34 462.942C426.142 443.002 455.202 422.883 482.063 400.498L482.118 400.452L482.173 400.404C516.17 370.657 558.874 361.929 602.367 364.104L602.374 364.104L602.381 364.104C624.559 365.16 647.072 373.084 663.949 388.144C680.698 403.089 692.222 425.334 692.222 455.889V456.119L692.24 456.349C694.383 484.216 690.128 507.715 679.35 533.581L679.318 533.658L679.288 533.735C646.442 619.136 589.448 685.034 520.958 744.689C421.665 830.743 306.836 890.4 182.961 932.429L182.847 932.468L182.735 932.511C154.925 943.207 124.809 947.614 94.2324 949.841C84.8852 947.693 79.6716 945.275 76.7002 941.746C73.8017 938.304 72.0268 932.529 73.0861 920.877L73.1781 919.864L72.9316 918.878C71.8135 914.406 70.5442 910.36 68.9869 907.634C68.3003 906.433 66.9342 904.332 64.5157 903.274C63.0993 902.654 61.4325 902.448 59.7371 902.898C58.1483 903.32 56.9828 904.198 56.2014 904.98L55.6454 905.536L55.2515 906.216C42.8413 927.652 39.4658 945.644 48.5714 958.756C52.9982 965.13 59.8756 969.488 68.1483 972.385C76.421 975.282 86.489 976.865 97.9222 977.437Z" fill="#6E1423" stroke="#6E1423" stroke-width="12"/>
</svg>
