<svg width="802" height="984" viewBox="0 0 802 984" fill="none" xmlns="http://www.w3.org/2000/svg">
<path d="M97.3148 977.188L97.4645 977.196H97.6144H98.1017C108.849 977.197 120.57 977.197 130.181 974.795L130.364 974.749L130.545 974.691L130.606 974.672C179.45 959.131 228.427 943.547 277.422 925.731C302.212 916.876 325.712 903.822 348.401 891.219C354.675 887.734 360.886 884.284 367.046 880.966C429.388 849.791 487.695 816.188 539.376 769.016C588.614 726.485 631.141 679.473 669.177 625.775L669.269 625.645L669.354 625.511C696.231 582.955 719.016 535.345 723.588 482.867C727.021 448.476 720.749 418.717 705.135 394.855C689.516 370.984 664.927 353.593 632.784 343.262L632.656 343.221L632.526 343.185C612.203 337.642 587.621 335.118 567.078 334.351L764.146 130.926L764.387 130.677L764.598 130.402C777.717 113.29 786.717 96.2647 791.413 80.7462C796.081 65.3206 796.647 50.8414 792.085 39.2725C787.379 27.3386 777.516 19.3103 763.394 16.7828C749.615 14.3167 732.007 17.0849 710.916 25.6355L710.824 25.6727L710.733 25.713C690.415 34.7432 670.164 45.9994 652.212 57.2191L652.109 57.2836L652.008 57.3522C560.261 120.009 484.296 198.247 415.206 282.936C359.643 349.613 306.204 416.404 257.185 487.695C228.107 526.477 202.468 567.693 177.114 608.451C167.465 623.963 157.857 639.409 148.116 654.628L148.099 654.655L148.082 654.683L101.794 728.743C105.573 717.468 109.902 706.632 114.296 695.646L114.299 695.639L114.302 695.631C169.627 556.212 247.12 429.974 327.128 303.295C369.186 236.887 415.685 175.441 456.64 127.015C497.718 78.4433 532.876 43.3776 552.238 29.3933L554.726 27.5971V24.5292C554.726 19.9703 553.371 15.964 550.825 12.8097C548.315 9.69958 544.939 7.77483 541.443 6.80368C534.718 4.93565 526.824 6.36666 520.943 10.6469C511.814 16.1816 505.196 23.3416 499.924 29.0455C498.374 30.7222 496.941 32.2731 495.594 33.6199L495.387 33.8274L495.2 34.0542C481.983 50.1444 468.431 66.2777 454.788 82.5185C415.895 128.817 376.269 175.99 341.59 225.529C245.911 361.262 159.008 501.617 92.1249 653.219L92.092 653.293L92.0611 653.369C86.529 666.892 80.4201 681.447 74.0875 696.536C57.6406 735.723 39.6841 778.508 26.4009 816.143C17.2051 842.198 10.1 866.184 7.30406 885.074C5.90944 894.497 5.52502 903.035 6.68524 910.091C7.84216 917.126 10.7025 923.568 16.5921 927.354L18.0744 928.307H19.8366C23.5729 928.307 26.8508 926.159 29.2367 924.199C31.8648 922.04 34.6542 919.047 37.5483 915.503C43.3597 908.386 50.205 898.282 57.7792 886.1C72.9552 861.693 91.5057 828.212 111.223 791.833C118.335 778.711 125.598 765.213 132.915 751.615C166.296 689.583 200.787 625.487 227.062 585.62C298.045 479.146 373.428 377.161 457.646 279.637C510.997 221.841 564.014 164.427 623.586 115.881C638.79 103.94 655.698 93.5653 673.153 83.3141C676.608 81.2849 680.089 79.2581 683.581 77.2247C697.476 69.1349 711.551 60.9395 724.91 52.0617C738.648 46.3204 747.731 45.4098 753.196 46.7185C755.83 47.3492 757.578 48.4771 758.78 49.8336C760.01 51.2203 760.955 53.171 761.428 55.8498C762.402 61.369 761.221 69.2461 757.438 78.5552C753.706 87.7377 747.661 97.7678 739.672 107.355L739.553 107.498L739.443 107.648C715.179 140.734 688.76 171.548 657.976 200.132L657.895 200.208L657.816 200.287C613.513 244.589 566.995 286.678 518.259 326.552L518.15 326.642L518.045 326.736C499.994 342.982 475.96 359.614 449.851 377.683C444.337 381.499 438.73 385.378 433.068 389.332C400.834 411.841 367.066 436.576 339.953 464.819L334.741 470.247L341.194 474.119C341.745 474.449 342.314 474.803 342.903 475.168C347.561 478.062 353.459 481.725 361.704 481.066C370.543 480.359 381.175 474.9 396.733 462.693C425.535 442.754 454.594 422.634 481.456 400.25L481.511 400.203L481.565 400.156C515.562 370.409 558.266 361.681 601.759 363.855L601.766 363.855L601.773 363.856C623.951 364.912 646.464 372.835 663.342 387.895C680.091 402.84 691.614 425.086 691.614 455.64V455.871L691.632 456.101C693.776 483.968 689.52 507.466 678.743 533.333L678.711 533.409L678.681 533.487C645.834 618.888 588.841 684.786 520.35 744.441C421.057 830.494 306.229 890.151 182.353 932.181L182.239 932.219L182.127 932.263C154.317 942.959 124.202 947.366 93.625 949.592C84.2778 947.444 79.0642 945.026 76.0928 941.498C73.1943 938.056 71.4194 932.28 72.4787 920.628L72.5707 919.616L72.3242 918.63C71.2061 914.157 69.9368 910.111 68.3794 907.386C67.6928 906.184 66.3268 904.084 63.9083 903.025C62.492 902.406 60.8251 902.199 59.1297 902.65C57.5409 903.072 56.3754 903.95 55.594 904.731L55.038 905.287L54.6441 905.967C42.2339 927.403 38.8584 945.395 47.964 958.507C52.3908 964.882 59.2682 969.239 67.5409 972.136C75.8136 975.034 85.8815 976.617 97.3148 977.188Z" fill="#FF0040" stroke="#FF0040" stroke-width="12"/>
</svg>
