<svg width="15888" height="7944" viewBox="0 0 15888 7944" fill="none" xmlns="http://www.w3.org/2000/svg">
<path d="M3936.05 3929.06H3960.12C4152.69 3880.91 4343.25 3736.48 4531.81 3495.77C4720.24 3255.05 4814.53 3026.37 4814.67 2809.72C4814.67 2697.46 4766.53 2641.29 4670.24 2641.22C4668.07 2641.22 4665.52 2641.47 4663.26 2641.55C4660.42 2641.44 4657.69 2641.22 4654.77 2641.22C4650.44 2641.22 4645.53 2641.6 4640.8 2641.87C4635.3 2641.45 4629.66 2641.22 4623.82 2641.22C4567.59 2641.22 4477.32 2663.29 4353.02 2707.42C4228.48 2751.61 4130.18 2785.71 4058.13 2809.72C3769.27 2906.02 3560.66 3018.35 3432.28 3146.71C3403.49 3171.42 3376.13 3197.75 3350.33 3225.57C3302.46 3234.48 3217.45 3264.37 3095.29 3315.22C2956.48 3368.94 2858.92 3400.16 2802.61 3408.87C2800.38 3408.38 2798.29 3407.38 2796.5 3405.94C2794.72 3404.51 2793.29 3402.68 2792.33 3400.61C2791.37 3398.53 2790.91 3396.26 2790.97 3393.97C2791.03 3391.68 2791.62 3389.44 2792.7 3387.42C2864.91 3235.1 2901.02 3094.68 2901.01 2966.16C2901.01 2829.83 2836.82 2761.62 2708.44 2761.55C2705.86 2761.55 2703.24 2761.77 2700.66 2761.81C2698.07 2761.85 2695.64 2761.55 2692.97 2761.55C2687.8 2761.55 2682.58 2761.91 2677.39 2762.08C2672.32 2761.84 2667.31 2761.55 2662.02 2761.55C2573.64 2761.55 2481.37 2785.62 2385.24 2833.77C2080.2 2978.19 1795.35 3182.8 1530.69 3447.6C1402.19 3560.08 1261.74 3704.52 1109.33 3880.91C972.794 4033.42 844.405 4185.87 724.164 4338.26L555.676 4542.87L268.329 4902.08C281.76 4773.21 317.313 4647.62 373.424 4530.84C453.7 4338.27 562.022 4109.59 698.392 3844.8C802.578 3652.23 866.768 3539.9 890.963 3507.8C947.609 3430.57 999.847 3350.2 1047.43 3267.07C1094.98 3183.94 1147.22 3103.57 1203.9 3026.35L1372.39 2773.61L1769.59 2232C1857.79 2127.82 1946.05 2015.49 2034.37 1895L2214.92 1690.41C2295.03 1586.22 2391.31 1473.89 2503.78 1353.42C2616.05 1233.06 2712.33 1128.75 2792.63 1040.49L3249.99 559.057C3274.05 543.052 3390.41 414.677 3599.06 173.932C3606.96 166.03 3606.96 155.87 3599.06 143.828C3595.13 137.932 3589.74 133.163 3583.4 129.995C3577.07 126.827 3570.02 125.369 3562.95 125.766L3561.02 127.698C3556.62 126.438 3552.06 125.788 3547.48 125.766L3540.79 132.456C3533.53 127.907 3525.1 125.581 3516.54 125.766L3480.41 161.874L3179.48 462.751L2818.4 823.826C2705.94 944.174 2543.46 1120.7 2330.96 1353.39C2118.26 1586.22 1935.72 1794.84 1783.33 1979.26C1574.57 2252.12 1462.24 2400.56 1446.34 2424.58L1181.57 2809.72C1157.5 2849.97 1113.37 2910.15 1049.17 2990.26L928.784 3182.83C872.558 3255.05 776.276 3415.53 639.941 3664.27L495.502 3904.99C407.304 4049.41 319.039 4233.96 230.708 4458.62C142.515 4683.36 102.408 4847.85 110.385 4952.09C109.647 4966.51 111.942 4980.92 117.123 4994.39C122.303 5007.87 130.253 5020.1 140.46 5030.31C150.666 5040.52 162.901 5048.48 176.374 5053.66C189.846 5058.85 204.257 5061.15 218.674 5060.41C221.775 5060.23 224.84 5059.65 227.789 5058.67C235.011 5059.84 242.315 5060.42 249.631 5060.41C250.963 5060.38 252.289 5060.22 253.595 5059.95C257.346 5060.25 261.182 5060.41 265.101 5060.41C273.187 5060.41 293.315 5052.52 325.308 5036.34L373.457 4988.21L638.251 4651.21C798.659 4458.64 915.004 4310.21 987.286 4205.9L1095.57 4061.47L1468.68 3676.33C1564.97 3572.15 1717.42 3431.73 1926.03 3255.08C2110.52 3118.73 2262.99 3014.42 2383.44 2942.15C2492.83 2876.51 2585.41 2841.04 2661.69 2835.06C2713.07 2840.47 2749.28 2864.13 2770.3 2906.05C2777.82 2925.18 2779.9 2946.02 2776.32 2966.26C2772.94 2978.02 2770.92 2990.13 2770.3 3002.36C2759.61 3059.92 2743.49 3116.34 2722.15 3170.87C2698.1 3235.19 2677.97 3291.22 2661.95 3339.36C2637.87 3403.69 2613.8 3447.69 2589.74 3471.76C2565.68 3495.84 2521.46 3524.03 2457.34 3556.01L1951.84 3844.86L1675.05 4025.4C1658.89 4033.49 1578.65 4089.66 1434.33 4193.9L1121.36 4446.59C1089.2 4478.75 1055.11 4510.85 1019.07 4542.87C982.951 4575.03 944.834 4611.14 904.718 4651.2L736.222 4831.73C631.84 4976.16 575.672 5056.4 567.717 5072.45C471.43 5192.8 423.29 5317.17 423.295 5445.56C422.854 5468.38 427.486 5491.02 436.857 5511.83C446.228 5532.65 460.103 5551.12 477.482 5565.92C513.581 5598.08 551.57 5614.07 591.817 5614.07H615.891C617.003 5614.07 618.291 5613.92 619.437 5613.9C620.582 5613.87 621.644 5614.07 622.781 5614.07H662.284C702.327 5614.07 762.504 5598.02 842.814 5565.92C995.143 5485.81 1119.52 5401.56 1215.93 5313.17L1432.57 5120.6C1513.88 5056.12 1590.32 4985.72 1661.26 4909.97C1741.37 4825.72 1801.54 4763.54 1841.78 4723.41C1900.57 4665.41 1954.89 4603.05 2004.27 4536.86C2042.52 4483.57 2084.78 4433.27 2130.67 4386.4L2323.24 4145.7C2419.53 4025.33 2547.91 3836.77 2708.37 3580.02C2711.82 3568.65 2718.02 3558.31 2726.42 3549.91C2734.82 3541.52 2745.16 3535.32 2756.52 3531.87C2777.15 3525.31 2797.27 3517.27 2816.73 3507.8C2991.78 3452.14 3130.29 3403.36 3232.26 3361.47C3116.97 3517.65 3059.28 3650.67 3059.16 3760.52C3059.16 3848.91 3095.27 3893.04 3167.49 3892.91C3172.58 3892.91 3177.77 3892.59 3183.02 3892.07C3187.98 3892.56 3193.05 3892.91 3198.44 3892.91C3201.08 3892.91 3203.77 3892.75 3206.45 3892.62C3208.96 3892.74 3211.35 3892.91 3213.91 3892.91C3278.02 3892.91 3354.25 3854.8 3442.58 3778.58C3530.8 3702.41 3611.04 3592.09 3683.3 3447.6C3708.28 3378.14 3720.51 3304.75 3719.4 3230.95C3719.4 3174.92 3715.28 3134.66 3707.38 3110.59C3683.31 3054.55 3783.6 2984.35 4008.26 2899.97C4204.2 2826.45 4366.62 2775.85 4495.52 2748.16C4455 2802.79 4393.68 2871.32 4310.88 2954.13C4134.3 3130.72 3973.82 3343.35 3829.45 3592.03C3821.36 3608.19 3809.34 3634.15 3793.35 3670.25C3776.48 3710.21 3768.28 3753.28 3769.27 3796.64C3769.27 3836.88 3781.3 3868.85 3805.37 3892.91C3816.2 3904.37 3829.27 3913.48 3843.76 3919.7C3858.25 3925.91 3873.86 3929.09 3889.62 3929.04H3913.7C3914.03 3928.95 3914.36 3928.83 3914.69 3928.75C3916.65 3928.84 3918.58 3929.04 3920.54 3929.04L3936.05 3929.06ZM578.036 5301.12C674.339 5132.63 738.53 5028.32 770.607 4988.21L987.252 4723.41C1115.51 4595.16 1215.81 4502.9 1288.15 4446.62L1552.94 4229.99C1665.2 4141.77 1765.49 4069.56 1853.83 4013.34C1942.02 3957.29 2038.31 3901.12 2142.68 3844.83C2246.88 3788.79 2331.13 3744.67 2395.44 3712.45L2494.3 3663.01L2469.37 3700.41C2292.79 3957.29 2156.38 4141.84 2060.15 4254.05L1735.18 4651.25L1410.22 4988.25C1362.08 5044.47 1241.72 5148.78 1049.15 5301.17C972.775 5362.65 892.357 5418.94 808.437 5469.65C752.812 5504.46 700.307 5524.01 650.861 5528.67C578.2 5521.88 541.887 5482.14 541.92 5409.45C541.92 5385.37 553.959 5349.27 578.036 5301.12ZM3887.87 3808.69C3887.87 3784.62 3907.94 3724.44 3948.08 3628.15C4068.44 3387.45 4305.14 3090.57 4658.19 2737.52C4665.45 2730.08 4673.45 2723.4 4682.07 2717.6C4682.7 2718.27 4683.39 2718.71 4683.99 2719.46C4699.98 2739.57 4708 2773.67 4708.06 2821.77C4708.06 2926.13 4679.98 3030.43 4623.81 3134.69C4583.55 3239.06 4495.29 3375.47 4359.02 3543.9C4238.63 3664.29 4122.27 3754.56 4009.94 3814.71C3979.28 3832.26 3946.5 3845.79 3912.39 3854.99C3896.08 3848.59 3887.87 3833.19 3887.87 3808.69ZM3177.76 3736.47C3177.76 3608.22 3294.1 3427.68 3526.79 3194.86L3590.14 3140.57C3600.93 3162.5 3602.45 3204.67 3594.72 3267.08C3582.67 3363.37 3556.6 3443.61 3516.49 3507.8C3412.11 3652.22 3321.84 3742.49 3245.68 3778.6C3232.39 3785.07 3218.53 3790.3 3204.28 3794.23C3186.64 3786.58 3177.76 3767.42 3177.76 3736.47Z" fill="#6E1423"/>
<path d="M4695.75 3989.23C4687.86 3997.32 4689.73 4007.28 4701.78 4019.34C4707.19 4025.06 4713.73 4029.61 4720.97 4032.72C4728.21 4035.83 4736.01 4037.42 4743.9 4037.4L4752.69 4033C4759.71 4035.94 4767.24 4037.43 4774.84 4037.4L4777.71 4035.96C4781.85 4036.9 4786.08 4037.38 4790.32 4037.4L4838.46 4013.33C4889 3879.34 4955.69 3752.01 5037.05 3634.17C5113.22 3525.85 5215.51 3411.51 5343.94 3291.15C5464.3 3170.8 5568.61 3082.53 5656.87 3026.35C5745.07 2970.32 5793.21 2934.22 5801.29 2918.03C5808.61 2896.01 5801.89 2887.17 5781.52 2891.19C5772.53 2889.43 5763.21 2890.49 5754.86 2894.24C5742.9 2880.3 5692.76 2902.28 5604.43 2960.17C5488.02 3036.51 5405.78 3098.7 5357.7 3146.72C5263.71 3224.76 5175.24 3309.21 5092.91 3399.47C5035.1 3463.1 4992.15 3507.61 4963.51 3533.69C4965.48 3524.93 4967.93 3516.27 4970.83 3507.77L5091.18 3086.5C5099.09 3070.53 5095.15 3058.49 5079.16 3050.4C5075.88 3048.46 5072.23 3047.23 5068.45 3046.79C5064.66 3046.35 5060.83 3046.71 5057.19 3047.85C5053.52 3046.44 5049.53 3046.07 5045.66 3046.78C5041.79 3047.5 5038.19 3049.27 5035.26 3051.9C5034.43 3051.41 5033.67 3050.87 5032.76 3050.4C5016.59 3042.5 5004.54 3046.46 4996.64 3062.45C4908.27 3295.26 4840.07 3499.86 4792.04 3676.22L4695.75 3989.23Z" fill="#6E1423"/>
<path d="M9147.13 3002.29C9144.1 3002.29 9141.07 3002.48 9138.06 3002.87C9135.94 3002.52 9133.8 3002.33 9131.66 3002.29C9125.66 3002.3 9119.68 3003.05 9113.86 3004.5C9109.64 3003.02 9105.19 3002.27 9100.71 3002.29C9076.64 3002.29 9052.56 3014.33 9028.49 3038.41C8908.13 3126.8 8855.98 3166.92 8872.02 3158.76L8559.09 3423.55L8246.16 3688.34C8160.58 3741.08 8099.68 3771.69 8062.76 3781.16C8039.47 3773.9 8027.81 3755.12 8027.81 3724.46V3688.36C8035.7 3648.29 8075.82 3572.06 8148.16 3459.67C8220.38 3347.4 8280.56 3267.16 8328.7 3218.95L8412.95 3158.74C8428.94 3142.76 8428.94 3128.64 8412.95 3116.62C8401.76 3109.01 8388.09 3105.95 8374.72 3108.08C8366.68 3107.31 8358.57 3107.74 8350.66 3109.37C8335.89 3105.68 8317.15 3108.03 8294.31 3116.62C8262.15 3128.66 8226.05 3162.88 8185.99 3218.92H8174.08C7997.5 3275.16 7885.17 3315.28 7837.09 3339.28C7652.4 3419.59 7491.92 3495.82 7355.65 3567.96C7341.43 3574.05 7329.03 3578.85 7318.43 3582.37C7318.12 3581.61 7317.92 3580.81 7317.82 3580V3423.55C7317.82 3359.44 7315.82 3287.22 7311.81 3206.91C7307.63 3126.8 7293.75 3074.51 7269.68 3050.44C7205.36 2970.33 7133.14 2930.21 7053.03 2930.09C7041.11 2927.97 7028.98 2927.27 7016.9 2928.02C7009.46 2927.8 7002.01 2927.99 6994.6 2928.58C6954.06 2924.76 6894.06 2937.17 6814.04 2966.21C6742.52 2992.24 6695.19 3012.87 6671.09 3028.3C6666.42 3024.46 6661.37 3019.88 6655.85 3014.36C6645.01 3002.92 6631.94 2993.81 6617.45 2987.6C6602.97 2981.39 6587.36 2978.2 6571.6 2978.24C6569.16 2978.24 6566.41 2978.49 6563.81 2978.61C6561.3 2978.45 6558.73 2978.24 6556.13 2978.24C6550.82 2978.24 6545.12 2978.57 6539.13 2979.13C6534.5 2978.56 6529.84 2978.26 6525.17 2978.24C6484.93 2978.24 6424.76 2994.43 6344.65 3026.39C6159.97 3106.7 5999.49 3202.99 5863.21 3315.26C5694.71 3443.69 5570.34 3572.06 5490.1 3700.37C5450.04 3756.6 5429.97 3800.73 5429.89 3832.76C5421.99 3856.84 5429.89 3879.02 5453.97 3898.96C5478.04 3919.08 5502.1 3929.06 5526.17 3929.06H5538.22C5539.13 3928.6 5540.2 3927.98 5541.14 3927.51C5546.4 3928.51 5551.75 3929.03 5557.12 3929.06H5569.17L5569.47 3928.89C5570.51 3928.89 5571.55 3929.06 5572.59 3929.06H5584.64C5632.78 3904.98 5707 3854.83 5807.29 3778.6C5907.58 3702.37 5989.84 3644.19 6054.06 3604.07C6286.69 3419.58 6485.28 3273.14 6649.83 3164.75C6801.33 3064.91 6923.94 3011.11 7017.67 3003.36C7146.64 3014.63 7211.16 3122.57 7211.22 3327.21L7199.18 3592C7191.09 3632.24 7167.02 3660.32 7126.96 3676.25L6452.97 4061.39L6296.5 4157.68C6272.42 4173.85 6242.32 4191.9 6206.19 4211.84C6166.01 4234.76 6127.77 4260.92 6091.86 4290.08C5867.13 4426.61 5686.59 4540.96 5550.24 4633.1C5413.91 4725.43 5261.45 4843.79 5092.89 4988.15L4840.13 5228.87C4776.02 5277.01 4659.68 5397.36 4491.1 5589.94L4322.64 5806.65L4178.2 6035.31C4081.91 6236 4021.73 6364.38 3997.67 6420.47C3973.59 6492.66 3953.52 6605 3937.46 6757.46C3929.55 6813.5 3937.58 6881.7 3961.53 6962.07C4001.77 7026.18 4049.91 7070.31 4105.96 7094.45C4149.48 7103.54 4193.9 7107.58 4238.35 7106.5C4242.28 7106.5 4245.95 7106.38 4249.76 7106.31C4256.11 7106.43 4262.61 7106.5 4269.3 7106.5C4271.27 7106.5 4273.07 7106.42 4275 7106.4C4278.27 7106.4 4281.43 7106.5 4284.77 7106.5C4349.09 7106.5 4397.24 7098.48 4429.2 7082.43C4597.7 7010.21 4734.1 6933.98 4838.41 6853.75C4902.73 6813.49 5059.2 6685.11 5307.82 6468.6L5500.39 6276.03C5636.68 6155.81 5765.31 6027.18 5885.53 5890.89L6294.78 5409.45C6326.76 5369.4 6435.08 5228.99 6619.75 4988.21L6896.53 4578.99C7089.1 4250.08 7213.47 3973.25 7269.64 3748.51C7285.63 3700.38 7329.76 3660.26 7402.04 3628.15C7442.1 3612.18 7554.44 3560.03 7739.03 3471.7C7882.69 3403.01 8006.84 3348.96 8111.49 3309.55C8051.88 3388.78 7996.39 3471.02 7945.23 3555.94C7904.99 3636.25 7884.93 3696.43 7885.03 3736.47C7885.03 3816.75 7929.16 3856.87 8017.42 3856.84C8022.2 3856.84 8027.04 3856.56 8031.87 3856.33C8037.2 3856.66 8042.68 3856.84 8048.37 3856.84C8050.69 3856.84 8053.05 3856.64 8055.38 3856.59C8058.2 3856.68 8060.93 3856.84 8063.85 3856.84C8119.89 3856.84 8180.07 3840.79 8244.39 3808.69C8292.52 3784.62 8344.67 3744.51 8400.84 3688.34C8473.06 3624.23 8561.32 3546 8665.63 3453.64C8769.81 3361.49 8854.07 3287.26 8918.38 3230.98L9027.35 3147.15C9021.22 3173.56 9005.53 3209.51 8980.28 3255.02C8940.03 3327.23 8912.02 3379.52 8896.03 3411.48C8855.78 3491.79 8803.63 3604.12 8739.57 3748.47C8683.34 3885.01 8643.22 3981.3 8619.21 4037.34L8607.18 4085.47C8607.18 4093.55 8615.07 4097.52 8631.25 4097.52C8641.35 4094.56 8652.09 4094.56 8662.19 4097.52C8664.77 4097.48 8667.34 4097.3 8669.89 4096.96C8672.47 4097.3 8675.07 4097.48 8677.67 4097.52C8693.64 4097.52 8701.73 4093.55 8701.73 4085.47C8733.7 3997.28 8789.87 3864.88 8870.24 3688.27C8950.35 3527.86 9042.61 3351.33 9147.03 3158.68C9171.1 3110.54 9183.13 3074.43 9183.12 3050.36C9183.26 3018.48 9171.21 3002.29 9147.13 3002.29ZM5560.63 3820.74C5560.63 3788.76 5604.76 3716.55 5693.02 3604.09C5813.38 3475.83 5977.86 3347.44 6186.48 3218.93C6359.86 3112.32 6480.53 3052.8 6548.52 3040.39C6552.79 3042.15 6556.35 3045.27 6558.67 3049.26C6560.98 3053.26 6561.91 3057.9 6561.32 3062.48L6549.27 3086.54L6501.13 3122.66L6188.2 3351.33C5858.74 3633.64 5650.13 3793.03 5562.38 3829.5C5561.18 3826.74 5560.57 3823.75 5560.6 3820.74H5560.63ZM4068.16 6793.56C4108.4 6328.31 4345.1 5878.98 4778.26 5445.59C4922.69 5285.16 5059.1 5152.76 5187.48 5048.39C5364.06 4879.89 5614.81 4689.32 5939.72 4476.69C6264.68 4264.19 6535.49 4101.71 6752.14 3989.24C6768.12 3973.25 6846.36 3925.11 6986.84 3844.8C7065.53 3799.87 7122.18 3768.78 7156.8 3751.54C7155.88 3762.72 7153.95 3773.8 7151.03 3784.63C7142.94 3816.79 7122.87 3864.93 7090.82 3929.07C6993.58 4147.17 6885.11 4360.08 6765.85 4566.96C6605.25 4823.84 6476.87 5008.39 6380.71 5120.61C6252.26 5257.13 6159.99 5365.45 6103.92 5445.57L5718.76 5878.86C5598.42 6023.29 5474.05 6159.69 5345.67 6288.08C5159.18 6475.66 4953.43 6643.06 4731.85 6787.52C4528.62 6919.14 4364.23 6989.07 4238.68 6997.33C4132.53 6989.3 4075.69 6921.38 4068.16 6793.56Z" fill="#6E1423"/>
<path d="M15754.5 3399.48C15751 3399.53 15747.5 3399.76 15744 3400.19C15742.4 3399.83 15740.7 3399.59 15739.1 3399.48C15732.5 3399.63 15725.9 3400.29 15719.4 3401.45C15715.8 3400.1 15712 3399.44 15708.1 3399.48C15692 3399.48 15663.9 3405.49 15623.9 3417.53C15576.5 3431.13 15528.3 3441.19 15479.4 3447.64L14665.3 3722.83C14661.3 3695.36 14659.3 3627.83 14659.3 3519.84C14651.2 3375.43 14607.1 3269.11 14526.9 3200.9C14446.6 3132.83 14346.3 3098.73 14226 3098.6C14223 3098.6 14220 3098.81 14217 3098.84C14214.8 3098.84 14212.7 3098.6 14210.5 3098.6C14204.5 3098.6 14198.5 3098.96 14192.5 3099.07C14188.2 3098.98 14184 3098.6 14179.6 3098.6C14043 3098.6 13918.7 3126.69 13806.5 3182.85C13437.3 3367.52 13176.5 3519.97 13024.1 3640.21C12903.2 3741 12816 3799.54 12762.7 3815.81C12751.4 3808.91 12745.6 3794.65 12745.6 3772.61C12745.6 3708.5 12801.8 3552.03 12914.1 3303.2C13050.5 3014.35 13259.1 2789.69 13540 2629.21C13544.3 2624.29 13547.6 2618.57 13549.6 2612.36C13551.7 2606.16 13552.5 2599.61 13552 2593.1C13536.8 2589.44 13521.1 2588 13505.4 2588.82C13497.2 2588.38 13488.9 2588.52 13480.7 2589.23C13388.2 2581.35 13272.1 2650.84 13132.5 2797.71C12980 2958.31 12845.6 3146.87 12729.3 3363.39C12693.5 3429.93 12663.3 3491.55 12638.5 3548.23C12571.2 3590.27 12507 3637.1 12446.4 3688.36C12382.1 3744.59 12277.8 3856.93 12133.5 4025.35L11952.9 4229.97C11808.5 4406.56 11704.2 4542.96 11640 4639.18C11599.7 4695.41 11551.6 4755.59 11495.6 4819.71C11433.7 4891.57 11377.4 4968.02 11327.1 5048.4C11182.6 5257.14 11078.3 5389.54 11014.1 5445.6C11000.7 5457.73 10986.2 5468.54 10970.7 5477.86C10965.8 5467.87 10963.5 5456.73 10964.3 5445.6C10964.3 5389.55 10988.3 5301.29 11036.5 5180.81C11092.5 4996.32 11172.8 4779.68 11277.2 4530.87L11493.8 4037.42C11509.8 3989.27 11552 3890.97 11620.2 3742.54C11685.5 3599.49 11759.8 3460.79 11842.9 3327.29L12119.7 2845.88C12183.8 2717.6 12235.9 2625.32 12276.1 2569.04C12404.4 2360.48 12524.7 2167.91 12637.2 1991.33C12749.5 1814.92 12893.9 1610.31 13070.5 1377.5L13202.9 1196.97L13455.6 872C13567.9 727.564 13648.1 619.241 13696.4 547.032C13704.3 531.044 13714.4 512.99 13726.5 492.879C13732.4 484.736 13735.1 474.654 13734 464.627C13732.9 454.599 13728 445.353 13720.4 438.718C13710.8 434.187 13700.1 432.623 13689.6 434.227C13681.4 433.117 13673.2 433.62 13665.2 435.707C13633.9 426.868 13592.8 447.732 13541.6 498.891C13414.3 594.752 13297.3 703.667 13192.6 823.859C12983.8 1032.59 12835.4 1193.07 12747.3 1305.29L12229.7 1979.28L12025.1 2280.17C12001 2312.33 11916.8 2428.68 11772.4 2629.21C11732.1 2685.42 11688 2747.6 11640 2815.75C11610.7 2857.28 11588.9 2885.95 11574.4 2902.19C11573.6 2901.42 11572.9 2900.84 11572.1 2900.01C11560 2887.97 11542 2881.95 11517.9 2881.96C11514.9 2881.96 11511.6 2882.09 11508.3 2882.34C11506.3 2882.26 11504.5 2881.96 11502.4 2881.96C11497.2 2882.01 11492.1 2882.36 11486.9 2882.99C11481.8 2882.31 11476.6 2881.97 11471.5 2881.96C11423.3 2881.96 11335.1 2914.05 11206.7 2978.23C11045.4 3086.23 10914.1 3233.36 10825.1 3405.89C10730 3435.34 10650.5 3461.27 10587 3483.71C10518.8 3507.79 10464.6 3527.86 10424.6 3543.92C10277.6 3599.99 10173.4 3631.56 10111.9 3638.62C10051.9 3630.26 10011.1 3586.84 9989.54 3507.82L9953.41 3387.49C9937.24 3347.42 9909.16 3327.35 9869.16 3327.28C9865.87 3327.28 9863.11 3327.55 9860.13 3327.7C9857.97 3327.57 9855.95 3327.28 9853.68 3327.28C9847.91 3327.27 9842.14 3327.57 9836.4 3328.18C9831.87 3327.58 9827.3 3327.29 9822.73 3327.28C9798.66 3327.28 9782.5 3331.46 9774.59 3339.32C9718.36 3355.49 9640.12 3403.63 9539.9 3483.75C9439.47 3564.03 9369.26 3628.22 9329.27 3676.32C9319.81 3684.74 9311.34 3691.64 9303.74 3697.16C9302.32 3681.6 9308.25 3654.6 9321.53 3616.14C9357.64 3511.97 9419.82 3391.61 9508.09 3255.07C9596.29 3118.72 9664.49 3046.51 9712.69 3038.44C9720.59 3038.44 9726.61 3032.42 9730.75 3020.38C9732.83 3015.33 9733.38 3009.77 9732.31 3004.41C9731.24 2999.05 9728.6 2994.13 9724.74 2990.27C9720.14 2985.48 9714.38 2981.96 9708.02 2980.06C9701.66 2978.15 9694.91 2977.93 9688.44 2979.4C9680.62 2978.2 9672.62 2978.97 9665.18 2981.64C9622.85 2963.94 9553.01 3029.01 9455.64 3176.85C9347.31 3341.4 9261.06 3491.84 9196.88 3628.18C9164.9 3732.55 9180.71 3784.65 9245.02 3784.65C9250.18 3784.59 9255.33 3784.14 9260.43 3783.32C9265.57 3784.18 9270.76 3784.63 9275.97 3784.65C9278.32 3784.65 9280.74 3784.37 9283.14 3784.2C9285.84 3784.41 9288.55 3784.65 9291.45 3784.65C9323.41 3784.65 9359.52 3768.6 9399.77 3736.5C9447.9 3696.45 9526.13 3628.25 9634.46 3531.89C9724.32 3452.02 9790.67 3405.31 9833.52 3391.78C9867.76 3405.39 9888.24 3452.1 9894.96 3531.89C9919.03 3636.28 9979.2 3688.44 10075.5 3688.37C10079.1 3688.37 10083.5 3688.13 10088.4 3687.71C10094.3 3688.14 10100.3 3688.37 10106.4 3688.37C10108.7 3688.37 10111.3 3688.26 10114.1 3688.1C10116.7 3688.17 10119.2 3688.37 10121.9 3688.37C10153.9 3688.37 10234.1 3672.32 10362.6 3640.22C10483.7 3597.47 10627 3542.05 10792.5 3473.96C10785.9 3489.06 10779.5 3504.33 10773.4 3519.85C10757.9 3549.6 10749.6 3582.6 10749.3 3616.14C10741.4 3656.39 10749.3 3690.44 10773.4 3718.45C10785.2 3732.32 10800 3743.32 10816.7 3750.62C10833.3 3757.92 10851.5 3761.32 10869.7 3760.57C10875.2 3760.57 10880.5 3760.3 10885.7 3759.88C10890.5 3760.33 10895.5 3760.57 10900.6 3760.57C10903.3 3760.57 10905.8 3760.33 10908.5 3760.23C10911 3760.35 10913.5 3760.57 10916.1 3760.57C10936.8 3761.29 10957.4 3757.17 10976.3 3748.54C11024.4 3724.46 11080.6 3680.33 11144.8 3616.14C11321.2 3423.57 11445.6 3275.14 11517.9 3170.83L11722.5 2893.99C11834.8 2741.67 11995.3 2512.99 12203.9 2207.96L12709.4 1509.88L12877.9 1293.24C12950.2 1205.05 13070.5 1076.67 13239 908.099L13395.5 751.628C13413.3 733.788 13429.4 718.405 13443.8 705.477L13409.2 751.628L12903.7 1401.56C12791.3 1546 12662.9 1738.58 12518.6 1979.29C12502.4 2003.35 12426.2 2115.68 12289.9 2316.28L12109.4 2581.07L11880.7 2978.27C11752.2 3235.18 11651.9 3427.76 11579.8 3556L11471.5 3772.65C11334.9 4053.61 11202.5 4362.53 11074.3 4699.4C11010 4843.82 10941.7 5040.41 10869.7 5289.16C10845.6 5369.43 10833.6 5437.63 10833.6 5493.75C10833.6 5565.97 10857.6 5602.08 10905.8 5602.07C10910.9 5602 10916 5601.48 10921 5600.5C10926.2 5601.54 10931.4 5602.07 10936.7 5602.07C10939.9 5602.07 10943.1 5601.87 10946.2 5601.48C10948.3 5601.62 10950.1 5602.07 10952.2 5602.07C11000.3 5602.07 11072.6 5553.93 11168.8 5457.65L11590.1 4879.94C11726.4 4687.37 11903 4454.68 12119.7 4181.86L12384.5 3892.99L12516.9 3748.57C12541.9 3723.49 12565.8 3700.07 12588.5 3678.33C12566 3747.97 12554.7 3807.5 12554.7 3856.92C12554.7 3929.14 12582.8 3965.25 12639 3965.24C12645.6 3965.24 12652 3964.69 12658.4 3964.26C12662.2 3964.79 12666.1 3965.12 12669.9 3965.24C12673.3 3965.24 12676.4 3964.86 12679.6 3964.75C12681.6 3964.85 12683.4 3965.24 12685.4 3965.24C12722.9 3965.88 12760 3957.63 12793.7 3941.17C12849.8 3909.19 12974.1 3824.94 13166.8 3688.42C13383.5 3536.1 13568 3419.75 13720.5 3339.38C13875.4 3259.03 14043.2 3206.57 14216.3 3184.39C14424.3 3199.21 14528.4 3343.15 14528.6 3616.2C14529.5 3668.62 14525.5 3721.01 14516.6 3772.67L13878.7 4073.57L13156.5 4422.61L12951.9 4530.92C12887.6 4571.17 12825.4 4609.29 12765.4 4645.27C12705.2 4681.37 12651 4711.45 12602.9 4735.53C12490.6 4791.75 12314.1 4906.09 12073.3 5078.55C11832.6 5251.19 11680.1 5369.54 11615.9 5433.6L11278.9 5746.54C11190.7 5826.81 11074.4 5955.2 10929.9 6131.68C10849.8 6211.99 10745.5 6368.45 10617 6601.07C10456.5 6881.85 10376.3 7134.61 10376.3 7359.33C10376.3 7487.58 10408.3 7595.9 10472.5 7684.29C10536.8 7764.42 10613.1 7808.55 10701.2 7816.69C10723.7 7818.13 10746.4 7818.36 10769.2 7818.06C10776 7818.2 10782.8 7818.26 10789.6 7818.23C11026.1 7821.89 11277 7729.1 11542 7539.87C11678.5 7459.59 11835 7347.26 12011.4 7202.87C12204 7042.28 12388.5 6881.81 12565 6721.46L12793.7 6504.81C13010.4 6288.17 13174.8 6111.64 13287.2 5975.23L13672.3 5541.94C13696.4 5509.98 13750.6 5445.79 13834.8 5349.37C13919.1 5253.08 13981.3 5168.83 14021.4 5096.63L14201.9 4819.79C14318 4644.27 14418.7 4459.03 14502.8 4266.15C14582.9 4105.75 14635.1 3961.32 14659.3 3832.86L14719.5 3808.79L15080.6 3664.37C15152.8 3640.29 15247 3606.19 15363.4 3562.06C15479.6 3518.05 15573.9 3487.97 15646.2 3471.8C15718.4 3447.72 15762.5 3431.73 15778.6 3423.65C15779.1 3420.37 15778.8 3417.03 15777.8 3413.89C15776.7 3410.75 15775 3407.89 15772.6 3405.55C15770.3 3403.2 15767.4 3401.43 15764.3 3400.38C15761.2 3399.33 15757.8 3399.02 15754.5 3399.48ZM10579.2 7636.06C10532.6 7568.85 10507.5 7489.14 10507 7407.39C10507 7206.73 10551.1 7006.14 10639.4 6805.61C10743.7 6588.96 10880.1 6376.33 11048.6 6167.7L11349.5 5818.66C11406.8 5753.69 11469.2 5693.33 11536 5638.13C11612.4 5574.02 11670.6 5525.88 11710.5 5493.69C11782.8 5429.58 11891.1 5341.33 12035.5 5228.92L12649.3 4819.69C12681.3 4795.63 12793.6 4731.44 12986.3 4627.12C13098.6 4554.91 13275.1 4462.65 13515.9 4350.33C13692.3 4254.05 13828.7 4185.85 13925.1 4145.73L14226 4001.29L14442.7 3905.02L14515.4 3875.9C14503.9 3988.47 14396 4218.83 14191.6 4566.98C14047.2 4807.69 13930.8 4984.22 13842.6 5096.56C13730.1 5240.98 13649.9 5349.3 13601.8 5421.53L13349.1 5722.42C13341 5730.5 13252.7 5830.8 13084.3 6023.31L13012.1 6095.53L12807.5 6312.18C12655 6480.67 12562.7 6572.94 12530.7 6588.96L12314 6781.53L12049.2 7022.24L11868.7 7178.72C11612 7387.26 11411.4 7531.69 11266.9 7612.01C11160.8 7673.52 11047.6 7722.01 10929.9 7756.43C10880.4 7763.71 10830.5 7767.57 10780.5 7767.98C10693.9 7759.1 10626.8 7715.13 10579.2 7636.06ZM10887.5 3670.86C10854.5 3628.28 10884.1 3537.82 10976.3 3399.48C11067.2 3260.77 11181.2 3138.65 11313.3 3038.41C11376.1 2991.26 11427.4 2963.38 11467.1 2954.79C11476 2957.45 11484.2 2961.99 11491.2 2968.1C11498.2 2974.22 11503.8 2981.76 11507.6 2990.23L11399.3 3146.69C11367.1 3186.94 11331 3233.07 11291 3285.1C11246.3 3342.3 11198.1 3396.57 11146.5 3447.59L10941.9 3640.16C10924.8 3652.04 10906.6 3662.32 10887.5 3670.86Z" fill="#6E1423"/>
</svg>
