<svg width="15670" height="7693" viewBox="0 0 15670 7693" fill="none" xmlns="http://www.w3.org/2000/svg">
<path d="M3826.66 3803.36H3850.73C4043.3 3755.21 4233.86 3610.78 4422.42 3370.07C4610.85 3129.35 4705.13 2900.67 4705.28 2684.02C4705.28 2571.76 4657.13 2515.59 4560.85 2515.52C4558.68 2515.52 4556.13 2515.77 4553.87 2515.85C4551.03 2515.74 4548.3 2515.52 4545.38 2515.52C4541.05 2515.52 4536.14 2515.9 4531.41 2516.16C4525.91 2515.74 4520.27 2515.52 4514.43 2515.52C4458.2 2515.52 4367.93 2537.58 4243.62 2581.71C4119.08 2625.91 4020.79 2660.01 3948.74 2684.02C3659.88 2780.31 3451.26 2892.64 3322.89 3021.01C3294.1 3045.72 3266.74 3072.05 3240.94 3099.86C3193.07 3108.78 3108.06 3138.67 2985.9 3189.51C2847.08 3243.24 2749.53 3274.46 2693.22 3283.17C2690.99 3282.68 2688.9 3281.68 2687.11 3280.24C2685.33 3278.81 2683.9 3276.98 2682.94 3274.91C2681.98 3272.83 2681.51 3270.56 2681.58 3268.27C2681.64 3265.98 2682.23 3263.74 2683.3 3261.72C2755.52 3109.4 2791.62 2968.98 2791.62 2840.46C2791.62 2704.13 2727.43 2635.92 2599.05 2635.85C2596.46 2635.85 2593.85 2636.07 2591.26 2636.11C2588.68 2636.15 2586.25 2635.85 2583.58 2635.85C2578.41 2635.85 2573.18 2636.21 2568 2636.38C2562.92 2636.14 2557.92 2635.85 2552.63 2635.85C2464.24 2635.85 2371.98 2659.92 2275.84 2708.06C1970.81 2852.49 1685.96 3057.1 1421.3 3321.89C1292.8 3434.38 1152.35 3578.81 999.938 3755.21C863.401 3907.72 735.013 4060.17 614.771 4212.56L446.283 4417.17L158.936 4776.37C172.367 4647.51 207.92 4521.92 264.031 4405.14C344.307 4212.57 452.63 3983.89 588.999 3719.09C693.185 3526.53 757.376 3414.19 781.57 3382.1C838.217 3304.87 890.455 3224.5 938.033 3141.37C985.588 3058.23 1037.83 2977.86 1094.51 2900.65L1263 2647.91L1660.2 2106.29C1748.39 2002.12 1836.65 1889.79 1924.98 1769.3L2105.53 1564.71C2185.63 1460.52 2281.92 1348.19 2394.39 1227.71C2506.66 1107.36 2602.94 1003.05 2683.24 914.786L3140.59 433.355C3164.66 417.35 3281.02 288.975 3489.66 48.2296C3497.56 40.3275 3497.56 30.1675 3489.66 18.1261C3485.74 12.2298 3480.34 7.46121 3474.01 4.29295C3467.68 1.1247 3460.63 -0.333153 3453.55 0.0639309L3451.63 1.99558C3447.23 0.736063 3442.67 0.0861383 3438.08 0.0639309L3431.4 6.75362C3424.14 2.20458 3415.71 -0.120908 3407.15 0.0639309L3371.02 36.1715L3070.09 337.048L2709.01 698.124C2596.55 818.471 2434.07 994.993 2221.57 1227.69C2008.87 1460.52 1826.33 1669.14 1673.94 1853.56C1465.18 2126.42 1352.85 2274.86 1336.95 2298.87L1072.18 2684.02C1048.11 2724.27 1003.97 2784.45 939.781 2864.56L819.392 3057.13C763.165 3129.35 666.884 3289.83 530.548 3538.57L386.109 3779.28C297.911 3923.71 209.647 4108.25 121.315 4332.92C33.1226 4557.66 -6.98483 4722.15 0.992614 4826.39C0.254441 4840.8 2.54977 4855.22 7.73021 4868.69C12.9107 4882.16 20.8609 4894.4 31.0671 4904.61C41.2733 4914.82 53.5082 4922.77 66.981 4927.96C80.4538 4933.14 94.8646 4935.44 109.282 4934.71C112.383 4934.53 115.447 4933.94 118.397 4932.97C125.619 4934.14 132.923 4934.72 140.238 4934.71C141.571 4934.67 142.897 4934.52 144.202 4934.25C147.954 4934.55 151.789 4934.7 155.708 4934.71C163.794 4934.71 183.922 4926.82 215.915 4910.64L264.064 4862.5L528.859 4525.51C689.266 4332.94 805.611 4184.5 877.893 4080.19L986.182 3935.77L1359.28 3550.63C1455.58 3446.44 1608.03 3306.03 1816.64 3129.38C2001.12 2993.03 2153.59 2888.72 2274.05 2816.45C2383.44 2750.81 2476.02 2715.34 2552.3 2709.36C2603.68 2714.76 2639.88 2738.43 2660.91 2780.35C2668.42 2799.48 2670.51 2820.31 2666.92 2840.55C2663.55 2852.32 2661.53 2864.43 2660.91 2876.65C2650.22 2934.22 2634.09 2990.64 2612.76 3045.17C2588.7 3109.49 2568.58 3165.52 2552.56 3213.66C2528.48 3277.98 2504.41 3321.99 2480.35 3346.06C2456.29 3370.13 2412.07 3398.33 2347.95 3430.31L1842.45 3719.16L1565.66 3899.7C1549.49 3907.79 1469.25 3963.95 1324.94 4068.19L1011.97 4320.89C979.81 4353.05 945.712 4385.14 909.677 4417.17C873.559 4449.33 835.441 4485.44 795.326 4525.49L626.829 4706.03C522.448 4850.46 466.28 4930.7 458.324 4946.75C362.038 5067.1 313.897 5191.47 313.903 5319.86C313.462 5342.68 318.094 5365.32 327.465 5386.13C336.835 5406.94 350.711 5425.42 368.089 5440.22C404.188 5472.38 442.177 5488.36 482.424 5488.36H506.499C507.611 5488.36 508.898 5488.22 510.044 5488.2C511.19 5488.17 512.252 5488.36 513.389 5488.36H552.891C592.935 5488.36 653.111 5472.31 733.421 5440.22C885.751 5360.11 1010.12 5275.86 1106.54 5187.47L1323.18 4994.9C1404.49 4930.42 1480.93 4860.02 1551.87 4784.27C1631.97 4700.02 1692.15 4637.84 1732.39 4597.71C1791.18 4539.71 1845.5 4477.35 1894.88 4411.16C1933.13 4357.87 1975.39 4307.57 2021.28 4260.7L2213.85 4020C2310.13 3899.63 2438.51 3711.07 2598.98 3454.32C2602.43 3442.95 2608.63 3432.61 2617.03 3424.21C2625.43 3415.81 2635.77 3409.62 2647.13 3406.17C2667.75 3399.61 2687.87 3391.56 2707.34 3382.1C2882.38 3326.44 3020.89 3277.66 3122.87 3235.76C3007.58 3391.95 2949.88 3524.96 2949.77 3634.82C2949.77 3723.21 2985.88 3767.34 3058.09 3767.21C3063.19 3767.21 3068.38 3766.88 3073.62 3766.37C3078.59 3766.86 3083.66 3767.21 3089.04 3767.21C3091.68 3767.21 3094.38 3767.05 3097.06 3766.92C3099.57 3767.03 3101.95 3767.21 3104.52 3767.21C3168.63 3767.21 3244.85 3729.1 3333.19 3652.87C3421.41 3576.71 3501.65 3466.39 3573.91 3321.89C3598.89 3252.44 3611.12 3179.05 3610.01 3105.25C3610.01 3049.22 3605.89 3008.96 3597.99 2984.88C3573.91 2928.85 3674.21 2858.65 3898.87 2774.27C4094.81 2700.75 4257.23 2650.15 4386.13 2622.46C4345.61 2677.08 4284.29 2745.62 4201.49 2828.43C4024.91 3005.01 3864.43 3217.65 3720.06 3466.32C3711.97 3482.49 3699.94 3508.45 3683.96 3544.55C3667.09 3584.5 3658.88 3627.58 3659.88 3670.94C3659.88 3711.17 3671.91 3743.14 3695.98 3767.21C3706.81 3778.67 3719.87 3787.78 3734.36 3794C3748.85 3800.21 3764.46 3803.39 3780.23 3803.33H3804.3C3804.64 3803.25 3804.96 3803.13 3805.3 3803.05C3807.26 3803.14 3809.19 3803.33 3811.15 3803.33L3826.66 3803.36ZM468.643 5175.42C564.947 5006.92 629.137 4902.62 661.214 4862.5L877.86 4597.71C1006.12 4469.46 1106.42 4377.2 1178.75 4320.92L1443.55 4104.29C1555.81 4016.07 1656.1 3943.86 1744.43 3887.64C1832.63 3831.59 1928.91 3775.42 2033.28 3719.13C2137.49 3663.09 2221.74 3618.96 2286.05 3586.75L2384.9 3537.31L2359.98 3574.71C2183.4 3831.59 2046.99 4016.14 1950.76 4128.35L1625.79 4525.55L1300.83 4862.54C1252.68 4918.77 1132.32 5023.08 939.756 5175.46C863.382 5236.95 782.964 5293.24 699.044 5343.95C643.42 5378.76 590.914 5398.3 541.469 5402.97C468.808 5396.18 432.494 5356.44 432.527 5283.74C432.527 5259.67 444.566 5223.56 468.643 5175.42ZM3778.48 3682.99C3778.48 3658.92 3798.55 3598.74 3838.69 3502.45C3959.05 3261.75 4195.75 2964.87 4548.8 2611.82C4556.05 2604.38 4564.06 2597.7 4572.68 2591.9C4573.31 2592.57 4573.99 2593.01 4574.6 2593.75C4590.58 2613.87 4598.61 2647.97 4598.67 2696.07C4598.67 2800.42 4570.59 2904.73 4514.42 3008.98C4474.16 3113.36 4385.9 3249.76 4249.63 3418.2C4129.24 3538.59 4012.88 3628.86 3900.55 3689.01C3869.89 3706.55 3837.11 3720.09 3803 3729.29C3786.68 3722.89 3778.48 3707.49 3778.48 3682.99ZM3068.36 3610.77C3068.36 3482.51 3184.71 3301.98 3417.4 3069.16L3480.75 3014.87C3491.54 3036.8 3493.06 3078.97 3485.32 3141.38C3473.28 3237.67 3447.21 3317.91 3407.1 3382.1C3302.71 3526.52 3212.44 3616.79 3136.29 3652.9C3123 3659.37 3109.14 3664.6 3094.89 3668.53C3077.25 3660.88 3068.36 3641.72 3068.36 3610.77Z" fill="#FF0040"/>
<path d="M4586.35 3863.53C4578.47 3871.62 4580.34 3881.58 4592.38 3893.64C4597.8 3899.36 4604.33 3903.91 4611.58 3907.02C4618.82 3910.12 4626.62 3911.72 4634.5 3911.7L4643.3 3907.3C4650.31 3910.24 4657.85 3911.73 4665.45 3911.7L4668.32 3910.26C4672.46 3911.2 4676.69 3911.68 4680.93 3911.7L4729.07 3887.62C4779.6 3753.63 4846.29 3626.31 4927.66 3508.47C5003.82 3400.15 5106.12 3285.81 5234.55 3165.45C5354.9 3045.09 5459.21 2956.83 5547.48 2900.65C5635.68 2844.62 5683.82 2808.51 5691.9 2792.33C5699.22 2770.3 5692.5 2761.47 5672.12 2765.49C5663.14 2763.73 5653.82 2764.79 5645.46 2768.54C5633.51 2754.6 5583.36 2776.58 5495.04 2834.47C5378.63 2910.81 5296.38 2973 5248.31 3021.02C5154.32 3099.06 5065.84 3183.51 4983.52 3273.77C4925.7 3337.4 4882.76 3381.91 4854.12 3407.99C4856.09 3399.22 4858.54 3390.57 4861.44 3382.07L4981.79 2960.8C4989.7 2944.83 4985.75 2932.79 4969.76 2924.7C4966.49 2922.76 4962.84 2921.53 4959.05 2921.09C4955.27 2920.65 4951.43 2921.01 4947.8 2922.15C4944.13 2920.74 4940.13 2920.37 4936.26 2921.08C4932.39 2921.8 4928.8 2923.57 4925.87 2926.2C4925.04 2925.71 4924.28 2925.17 4923.36 2924.7C4907.2 2916.8 4895.15 2920.75 4887.25 2936.74C4798.88 3169.56 4730.68 3374.15 4682.65 3550.52L4586.35 3863.53Z" fill="#FF0040"/>
<path d="M9037.74 2876.59C9034.71 2876.59 9031.68 2876.78 9028.67 2877.16C9026.55 2876.82 9024.41 2876.62 9022.26 2876.59C9016.27 2876.6 9010.29 2877.35 9004.47 2878.8C9000.24 2877.32 8995.79 2876.57 8991.32 2876.59C8967.24 2876.59 8943.17 2888.63 8919.1 2912.71C8798.74 3001.1 8746.58 3041.21 8762.63 3033.06L8449.7 3297.84L8136.77 3562.64C8051.19 3615.38 7990.29 3645.99 7953.37 3655.46C7930.07 3648.2 7918.42 3629.42 7918.42 3598.75V3562.66C7926.31 3522.59 7966.43 3446.36 8038.77 3333.97C8110.99 3221.7 8171.17 3141.46 8219.31 3093.25L8303.56 3033.04C8319.55 3017.05 8319.55 3002.94 8303.56 2990.92C8292.37 2983.31 8278.69 2980.25 8265.33 2982.38C8257.29 2981.6 8249.18 2982.04 8241.27 2983.66C8226.49 2979.98 8207.75 2982.33 8184.92 2990.92C8152.76 3002.95 8116.66 3037.18 8076.59 3093.22H8064.69C7888.11 3149.45 7775.78 3189.57 7727.69 3213.58C7543.01 3293.89 7382.53 3370.11 7246.25 3442.26C7232.04 3448.35 7219.63 3453.15 7209.04 3456.67C7208.73 3455.91 7208.53 3455.11 7208.43 3454.3V3297.84C7208.43 3233.73 7206.43 3161.52 7202.42 3081.21C7198.24 3001.1 7184.36 2948.81 7160.28 2924.74C7095.97 2844.63 7023.75 2804.51 6943.64 2804.39C6931.72 2802.27 6919.59 2801.57 6907.5 2802.31C6900.07 2802.09 6892.62 2802.28 6885.2 2802.88C6844.66 2799.06 6784.67 2811.47 6704.65 2840.51C6633.13 2866.54 6585.8 2887.16 6561.7 2902.6C6557.02 2898.76 6551.98 2894.18 6546.45 2888.66C6535.61 2877.22 6522.55 2868.11 6508.06 2861.9C6493.57 2855.68 6477.97 2852.5 6462.21 2852.54C6459.76 2852.54 6457.01 2852.79 6454.42 2852.9C6451.91 2852.75 6449.34 2852.54 6446.74 2852.54C6441.43 2852.54 6435.73 2852.86 6429.74 2853.42C6425.1 2852.86 6420.44 2852.56 6415.78 2852.54C6375.54 2852.54 6315.37 2868.73 6235.26 2900.69C6050.57 2981 5890.09 3077.29 5753.82 3189.55C5585.32 3317.99 5460.95 3446.36 5380.71 3574.67C5340.64 3630.9 5320.57 3675.03 5320.5 3707.06C5312.6 3731.13 5320.5 3753.32 5344.58 3773.26C5368.64 3793.38 5392.71 3803.36 5416.78 3803.36H5428.82C5429.74 3802.9 5430.81 3802.28 5431.74 3801.8C5437.01 3802.8 5442.36 3803.33 5447.72 3803.36H5459.77L5460.07 3803.19C5461.12 3803.19 5462.16 3803.36 5463.2 3803.36H5475.24C5523.39 3779.28 5597.61 3729.13 5697.9 3652.9C5798.19 3576.67 5880.45 3518.49 5944.67 3478.37C6177.3 3293.88 6375.89 3147.44 6540.44 3039.05C6691.93 2939.21 6814.55 2885.41 6908.27 2877.66C7037.25 2888.92 7101.77 2996.87 7101.83 3201.5L7089.79 3466.3C7081.7 3506.54 7057.63 3534.62 7017.57 3550.55L6343.58 3935.69L6187.11 4031.98C6163.03 4048.15 6132.93 4066.2 6096.8 4086.14C6056.62 4109.05 6018.38 4135.22 5982.46 4164.38C5757.73 4300.91 5577.2 4415.25 5440.85 4507.4C5304.51 4599.73 5152.06 4718.08 4983.49 4862.45L4730.74 5103.17C4666.63 5151.3 4550.29 5271.66 4381.71 5464.24L4213.24 5680.94L4068.81 5909.61C3972.52 6110.3 3912.34 6238.68 3888.27 6294.76C3864.2 6366.96 3844.13 6479.29 3828.07 6631.76C3820.16 6687.79 3828.19 6756 3852.14 6836.37C3892.38 6900.48 3940.52 6944.61 3996.56 6968.75C4040.09 6977.84 4084.51 6981.88 4128.96 6980.8C4132.88 6980.8 4136.56 6980.67 4140.37 6980.61C4146.71 6980.72 4153.22 6980.8 4159.91 6980.8C4161.87 6980.8 4163.68 6980.72 4165.61 6980.7C4168.87 6980.7 4172.03 6980.8 4175.38 6980.8C4239.7 6980.8 4287.84 6972.77 4319.81 6956.73C4488.31 6884.5 4624.71 6808.28 4729.02 6728.05C4793.34 6687.79 4949.81 6559.41 5198.42 6342.9L5390.99 6150.33C5527.29 6030.11 5655.92 5901.48 5776.14 5765.18L6185.39 5283.74C6217.36 5243.7 6325.69 5103.29 6510.35 4862.5L6787.14 4453.29C6979.71 4124.38 7104.08 3847.55 7160.25 3622.81C7176.24 3574.67 7220.37 3534.55 7292.65 3502.45C7332.71 3486.48 7445.04 3434.32 7629.64 3345.99C7773.29 3277.31 7897.45 3223.26 8002.1 3183.85C7942.49 3263.08 7887 3345.31 7835.84 3430.24C7795.6 3510.55 7775.53 3570.73 7775.63 3610.77C7775.63 3691.05 7819.77 3731.17 7908.03 3731.13C7912.81 3731.13 7917.65 3730.86 7922.48 3730.62C7927.81 3730.96 7933.29 3731.13 7938.98 3731.13C7941.29 3731.13 7943.65 3730.94 7945.99 3730.89C7948.8 3730.98 7951.54 3731.13 7954.46 3731.13C8010.49 3731.13 8070.67 3715.09 8134.99 3682.99C8183.13 3658.92 8235.28 3618.8 8291.45 3562.64C8363.66 3498.53 8451.93 3420.3 8556.24 3327.94C8660.42 3235.78 8744.67 3161.56 8808.99 3105.27L8917.96 3021.45C8911.82 3047.85 8896.13 3083.81 8870.88 3129.32C8830.64 3201.53 8802.62 3253.82 8786.64 3285.78C8746.39 3366.09 8694.24 3478.42 8630.18 3622.77C8573.95 3759.31 8533.83 3855.6 8509.82 3911.64L8497.78 3959.76C8497.78 3967.85 8505.68 3971.81 8521.86 3971.81C8531.96 3968.86 8542.7 3968.86 8552.8 3971.81C8555.37 3971.78 8557.95 3971.6 8560.5 3971.26C8563.08 3971.6 8565.68 3971.78 8568.28 3971.81C8584.25 3971.81 8592.33 3967.85 8592.33 3959.76C8624.31 3871.58 8680.48 3739.18 8760.85 3562.56C8840.96 3402.16 8933.22 3225.63 9037.63 3032.98C9061.7 2984.83 9073.74 2948.73 9073.73 2924.66C9073.87 2892.78 9061.82 2876.59 9037.74 2876.59ZM5451.24 3695.04C5451.24 3663.06 5495.37 3590.84 5583.62 3478.39C5703.98 3350.13 5868.47 3221.74 6077.09 3093.23C6250.46 2986.61 6371.14 2927.1 6439.13 2914.68C6443.39 2916.45 6446.96 2919.57 6449.27 2923.56C6451.59 2927.55 6452.52 2932.2 6451.93 2936.78L6439.88 2960.83L6391.74 2996.96L6078.81 3225.63C5749.34 3507.94 5540.74 3667.33 5452.99 3703.8C5451.79 3701.04 5451.18 3698.05 5451.21 3695.04H5451.24ZM3958.77 6667.86C3999.01 6202.61 4235.71 5753.28 4668.87 5319.88C4813.3 5159.45 4949.7 5027.05 5078.08 4922.68C5254.67 4754.19 5505.42 4563.62 5830.32 4350.98C6155.29 4138.49 6426.1 3976.01 6642.74 3863.54C6658.73 3847.55 6736.96 3799.41 6877.44 3719.1C6956.14 3674.16 7012.79 3643.08 7047.4 3625.84C7046.49 3637.02 7044.56 3648.1 7041.63 3658.93C7033.55 3691.08 7013.48 3739.23 6981.43 3803.37C6884.19 4021.46 6775.72 4234.38 6656.46 4441.25C6495.86 4698.14 6367.48 4882.69 6271.32 4994.91C6142.86 5131.43 6050.6 5239.75 5994.53 5319.87L5609.37 5753.16C5489.02 5897.58 5364.66 6033.99 5236.28 6162.38C5049.79 6349.96 4844.04 6517.36 4622.46 6661.82C4419.23 6793.43 4254.84 6863.37 4129.29 6871.63C4023.13 6863.6 3966.29 6795.67 3958.77 6667.86Z" fill="#FF0040"/>
<path d="M15645.2 3273.78C15641.6 3273.83 15638.1 3274.06 15634.6 3274.49C15633 3274.13 15631.3 3273.89 15629.7 3273.78C15623.1 3273.92 15616.5 3274.58 15610 3275.75C15606.4 3274.4 15602.6 3273.73 15598.7 3273.78C15582.6 3273.78 15554.5 3279.79 15514.5 3291.83C15467.2 3305.43 15418.9 3315.49 15370.1 3321.94L14555.9 3597.13C14551.9 3569.65 14549.9 3502.13 14549.9 3394.14C14541.8 3249.72 14497.7 3143.41 14417.5 3075.2C14337.2 3007.12 14236.9 2973.02 14116.6 2972.9C14113.6 2972.9 14110.6 2973.11 14107.6 2973.14C14105.4 2973.14 14103.3 2972.9 14101.1 2972.9C14095.1 2972.9 14089.2 2973.26 14083.1 2973.37C14078.8 2973.28 14074.6 2972.9 14070.2 2972.9C13933.7 2972.9 13809.3 3000.98 13697.1 3057.15C13327.9 3241.82 13067.2 3394.27 12914.8 3514.51C12793.8 3615.3 12706.6 3673.84 12653.3 3690.11C12642 3683.2 12636.2 3668.95 12636.2 3646.9C12636.2 3582.79 12692.4 3426.32 12804.7 3177.5C12941.1 2888.65 13149.7 2663.99 13430.6 2503.51C13434.9 2498.59 13438.2 2492.86 13440.2 2486.66C13442.3 2480.46 13443.1 2473.91 13442.6 2467.4C13427.4 2463.74 13411.7 2462.29 13396 2463.11C13387.8 2462.67 13379.5 2462.81 13371.3 2463.53C13278.8 2455.65 13162.7 2525.14 13023.1 2672.01C12870.6 2832.6 12736.2 3021.16 12619.9 3237.69C12584.1 3304.23 12553.9 3365.85 12529.2 3422.53C12461.8 3464.57 12397.6 3511.4 12337 3562.65C12272.7 3618.89 12168.4 3731.22 12024.1 3899.65L11843.5 4104.27C11699.1 4280.85 11594.8 4417.26 11530.6 4513.48C11490.4 4569.71 11442.2 4629.89 11386.2 4694.01C11324.3 4765.87 11268 4842.31 11217.7 4922.69C11073.2 5131.43 10968.9 5263.83 10904.7 5319.89C10891.4 5332.03 10876.8 5342.84 10861.3 5352.16C10856.4 5342.17 10854.1 5331.03 10854.9 5319.89C10854.9 5263.85 10878.9 5175.59 10927.1 5055.11C10983.1 4870.62 11063.4 4653.98 11167.8 4405.17L11384.4 3911.71C11400.4 3863.57 11442.6 3765.27 11510.8 3616.83C11576.1 3473.79 11650.4 3335.08 11733.5 3201.59L12010.3 2720.17C12074.4 2591.9 12126.5 2499.62 12166.7 2443.34C12295 2234.78 12415.4 2042.2 12527.8 1865.62C12640.1 1689.22 12784.5 1484.61 12961.1 1251.8L13093.5 1071.27L13346.2 746.298C13458.5 601.862 13538.8 493.539 13587 421.33C13594.9 405.341 13605 387.288 13617.1 367.177C13623 359.034 13625.7 348.952 13624.6 338.924C13623.5 328.896 13618.6 319.651 13611 313.015C13601.4 308.485 13590.7 306.921 13580.2 308.525C13572.1 307.415 13563.8 307.918 13555.8 310.005C13524.5 301.166 13483.4 322.03 13432.2 373.189C13304.9 469.05 13187.9 577.965 13083.2 698.157C12874.5 906.892 12726 1067.37 12637.9 1179.59L12120.3 1853.57L11915.7 2154.47C11891.6 2186.63 11807.4 2302.98 11663 2503.51C11622.7 2559.72 11578.6 2621.9 11530.6 2690.05C11501.3 2731.58 11479.5 2760.25 11465 2776.49C11464.2 2775.71 11463.5 2775.14 11462.7 2774.31C11450.6 2762.27 11432.6 2756.25 11408.5 2756.26C11405.5 2756.26 11402.3 2756.39 11398.9 2756.64C11396.9 2756.56 11395.1 2756.26 11393 2756.26C11387.8 2756.31 11382.7 2756.65 11377.5 2757.28C11372.4 2756.61 11367.2 2756.26 11362.1 2756.26C11313.9 2756.26 11225.7 2788.35 11097.3 2852.53C10936 2960.52 10804.7 3107.66 10715.7 3280.18C10620.6 3309.64 10541.1 3335.57 10477.6 3358.01C10409.4 3382.09 10355.2 3402.16 10315.2 3418.22C10168.3 3474.29 10064 3505.86 10002.5 3512.92C9942.5 3504.55 9901.67 3461.14 9880.15 3382.12L9844.02 3261.79C9827.85 3221.72 9799.77 3201.65 9759.77 3201.58C9756.48 3201.58 9753.72 3201.85 9750.74 3202C9748.58 3201.87 9746.56 3201.58 9744.29 3201.58C9738.52 3201.56 9732.75 3201.86 9727 3202.47C9722.47 3201.88 9717.91 3201.58 9713.34 3201.58C9689.27 3201.58 9673.1 3205.76 9665.2 3213.62C9608.96 3229.79 9530.73 3277.93 9430.51 3358.05C9330.07 3438.33 9259.86 3502.52 9219.88 3550.62C9210.42 3559.04 9201.95 3565.93 9194.35 3571.46C9192.93 3555.9 9198.86 3528.89 9212.14 3490.44C9248.24 3386.26 9310.43 3265.91 9398.7 3129.37C9486.9 2993.02 9555.1 2920.81 9603.3 2912.74C9611.19 2912.74 9617.22 2906.71 9621.36 2894.67C9623.44 2889.62 9623.98 2884.07 9622.91 2878.71C9621.84 2873.35 9619.21 2868.43 9615.35 2864.57C9610.75 2859.78 9604.99 2856.26 9598.63 2854.35C9592.27 2852.45 9585.52 2852.22 9579.05 2853.7C9571.23 2852.5 9563.23 2853.27 9555.78 2855.94C9513.46 2838.24 9443.61 2903.31 9346.24 3051.15C9237.92 3215.69 9151.67 3366.14 9087.49 3502.47C9055.51 3606.85 9071.32 3658.94 9135.63 3658.94C9140.79 3658.88 9145.94 3658.44 9151.04 3657.62C9156.17 3658.48 9161.37 3658.92 9166.58 3658.94C9168.93 3658.94 9171.35 3658.67 9173.74 3658.5C9176.45 3658.71 9179.15 3658.94 9182.05 3658.94C9214.01 3658.94 9250.12 3642.9 9290.38 3610.8C9338.51 3570.75 9416.74 3502.55 9525.07 3406.19C9614.93 3326.32 9681.28 3279.61 9724.13 3266.08C9758.37 3279.69 9778.85 3326.39 9785.57 3406.19C9809.64 3510.58 9869.81 3562.74 9966.09 3562.66C9969.74 3562.66 9974.1 3562.43 9979.01 3562.01C9984.87 3562.44 9990.88 3562.66 9997.04 3562.66C9999.33 3562.66 10001.9 3562.55 10004.7 3562.4C10007.3 3562.47 10009.9 3562.66 10012.5 3562.66C10044.5 3562.66 10124.7 3546.61 10253.2 3514.51C10374.3 3471.77 10517.6 3416.35 10683.1 3348.26C10676.5 3363.36 10670.1 3378.63 10664 3394.15C10648.5 3423.9 10640.2 3456.89 10639.9 3490.44C10632 3530.69 10639.9 3564.74 10664 3592.75C10675.8 3606.62 10690.6 3617.62 10707.3 3624.92C10723.9 3632.22 10742.1 3635.62 10760.3 3634.87C10765.8 3634.87 10771.1 3634.6 10776.3 3634.18C10781.1 3634.63 10786.1 3634.87 10791.2 3634.87C10794 3634.87 10796.5 3634.63 10799.1 3634.53C10801.6 3634.64 10804.1 3634.87 10806.7 3634.87C10827.4 3635.59 10848 3631.47 10866.9 3622.84C10915 3598.76 10971.2 3554.63 11035.4 3490.44C11211.8 3297.87 11336.2 3149.43 11408.5 3045.12L11613.1 2768.29C11725.4 2615.96 11885.9 2387.29 12094.5 2082.26L12600 1384.18L12768.5 1167.54C12840.8 1079.35 12961.1 950.966 13129.6 782.397L13286.1 625.925C13303.9 608.086 13320 592.703 13334.5 579.775L13299.8 625.925L12794.3 1275.85C12681.9 1420.3 12553.5 1612.88 12409.2 1853.58C12393 1877.64 12316.8 1989.97 12180.5 2190.58L12000 2455.37L11771.3 2852.57C11642.8 3109.48 11542.6 3302.05 11470.4 3430.3L11362.1 3646.95C11225.5 3927.91 11093.1 4236.83 10964.9 4573.7C10900.6 4718.12 10832.4 4914.7 10760.3 5163.45C10736.2 5243.73 10724.2 5311.93 10724.2 5368.05C10724.2 5440.27 10748.2 5476.38 10796.4 5476.37C10801.5 5476.3 10806.6 5475.77 10811.6 5474.8C10816.8 5475.84 10822 5476.37 10827.3 5476.37C10830.5 5476.36 10833.7 5476.17 10836.8 5475.78C10838.9 5475.92 10840.7 5476.37 10842.8 5476.37C10891 5476.37 10963.2 5428.23 11059.4 5331.95L11480.7 4754.24C11617 4561.67 11793.6 4328.98 12010.3 4056.16L12275.1 3767.29L12407.5 3622.87C12432.5 3597.78 12456.4 3574.37 12479.1 3552.63C12456.6 3622.27 12445.3 3681.8 12445.3 3731.22C12445.3 3803.44 12473.4 3839.55 12529.6 3839.54C12536.2 3839.54 12542.6 3838.99 12549 3838.55C12552.8 3839.09 12556.7 3839.42 12560.5 3839.54C12563.9 3839.54 12567 3839.16 12570.2 3839.05C12572.2 3839.15 12574 3839.54 12576 3839.54C12613.5 3840.18 12650.6 3831.93 12684.3 3815.47C12740.4 3783.49 12864.7 3699.24 13057.4 3562.72C13274.1 3410.4 13458.6 3294.05 13611.1 3213.68C13766 3133.33 13933.8 3080.87 14106.9 3058.69C14314.9 3073.51 14419 3217.45 14419.2 3490.5C14420.1 3542.92 14416.1 3595.31 14407.2 3646.97L13769.3 3947.86L13047.1 4296.91L12842.5 4405.22C12778.2 4445.47 12716 4483.58 12656 4519.56C12595.8 4555.67 12541.6 4585.75 12493.5 4609.82C12381.2 4666.05 12204.7 4780.39 11963.9 4952.85C11723.2 5125.49 11570.7 5243.84 11506.5 5307.9L11169.5 5620.84C11081.3 5701.11 10965 5829.49 10820.5 6005.98C10740.4 6086.29 10636.1 6242.75 10507.6 6475.37C10347.1 6756.15 10266.9 7008.9 10266.9 7233.63C10266.9 7361.87 10299 7470.19 10363.1 7558.59C10427.5 7638.71 10503.7 7682.85 10591.8 7690.98C10614.3 7692.43 10637 7692.66 10659.8 7692.36C10666.6 7692.5 10673.4 7692.56 10680.2 7692.53C10916.8 7696.18 11167.6 7603.39 11432.6 7414.17C11569.1 7333.89 11725.6 7221.56 11902 7077.17C12094.6 6916.58 12279.1 6756.1 12455.7 6595.76L12684.3 6379.11C12901 6162.47 13065.5 5985.94 13177.8 5849.53L13562.9 5416.24C13587 5384.28 13641.2 5320.09 13725.4 5223.67C13809.7 5127.38 13871.9 5043.13 13912 4970.93L14092.5 4694.09C14208.6 4518.57 14309.3 4333.33 14393.4 4140.45C14473.5 3980.04 14525.7 3835.61 14549.9 3707.16L14610.1 3683.09L14971.2 3538.66C15043.4 3514.59 15137.7 3480.48 15254 3436.35C15370.2 3392.35 15464.5 3362.27 15536.8 3346.09C15609.1 3322.02 15653.1 3306.03 15669.2 3297.94C15669.7 3294.67 15669.4 3291.33 15668.4 3288.19C15667.3 3285.04 15665.6 3282.19 15663.2 3279.84C15660.9 3277.5 15658 3275.73 15654.9 3274.68C15651.8 3273.62 15648.4 3273.32 15645.2 3273.78ZM10469.8 7510.36C10423.2 7443.15 10398.1 7363.44 10397.6 7281.68C10397.6 7081.03 10441.7 6880.44 10530 6679.91C10634.3 6463.26 10770.7 6250.63 10939.2 6042L11240.1 5692.96C11297.4 5627.99 11359.8 5567.63 11426.6 5512.43C11503 5448.32 11561.2 5400.17 11601.1 5367.99C11673.4 5303.88 11781.7 5215.63 11926.1 5103.22L12539.9 4693.99C12571.9 4669.93 12684.2 4605.74 12876.9 4501.42C12989.2 4429.21 13165.7 4336.95 13406.5 4224.63C13582.9 4128.35 13719.3 4060.15 13815.7 4020.03L14116.6 3875.59L14333.3 3779.32L14406 3750.2C14394.5 3862.77 14286.6 4093.13 14082.2 4441.28C13937.8 4681.99 13821.4 4858.52 13733.2 4970.86C13620.7 5115.28 13540.5 5223.6 13492.4 5295.83L13239.7 5596.72C13231.6 5604.8 13143.3 5705.09 12974.9 5897.61L12902.7 5969.83L12698.1 6186.47C12545.6 6354.97 12453.3 6447.23 12421.3 6463.26L12204.6 6655.83L11939.8 6896.54L11759.3 7053.01C11502.6 7261.56 11302 7405.99 11157.5 7486.3C11051.4 7547.82 10938.3 7596.31 10820.5 7630.73C10771.1 7638 10721.1 7641.86 10671.1 7642.28C10584.5 7633.39 10517.4 7589.42 10469.8 7510.36ZM10778.1 3545.15C10745.1 3502.58 10774.7 3412.12 10866.9 3273.78C10957.8 3135.07 11071.8 3012.95 11203.9 2912.71C11266.7 2865.55 11318 2837.68 11357.7 2829.09C11366.6 2831.74 11374.8 2836.28 11381.8 2842.4C11388.8 2848.51 11394.4 2856.06 11398.2 2864.53L11289.9 3020.99C11257.7 3061.24 11221.6 3107.37 11181.6 3159.4C11136.9 3216.6 11088.7 3270.87 11037.1 3321.88L10832.5 3514.46C10815.4 3526.34 10797.2 3536.62 10778.1 3545.15Z" fill="#FF0040"/>
</svg>
