<svg width="486" height="201" viewBox="0 0 486 201" fill="none" xmlns="http://www.w3.org/2000/svg">
<path d="M243 200.569C217.491 200.617 192.928 190.914 174.337 173.447L3.01771 12.4993C2.35533 11.8769 1.82203 11.1301 1.44826 10.3016C1.07449 9.47314 0.867559 8.57914 0.83929 7.67067C0.782198 5.83593 1.45629 4.05367 2.71327 2.71595C3.97025 1.37822 5.70716 0.594624 7.5419 0.537532C9.37663 0.48044 11.1589 1.15453 12.4966 2.41152L183.809 163.359C199.857 178.383 221.018 186.742 243 186.742C264.983 186.742 286.144 178.383 302.192 163.359L473.504 2.41152C474.842 1.15453 476.624 0.48044 478.459 0.537532C480.294 0.594624 482.031 1.37822 483.288 2.71595C484.545 4.05367 485.219 5.83593 485.162 7.67067C485.104 9.5054 484.321 11.2423 482.983 12.4993L311.664 173.454C293.072 190.919 268.509 200.619 243 200.569Z" fill="#F9104E"/>
</svg>
