<svg width="512" height="512" viewBox="0 0 512 512" fill="none" xmlns="http://www.w3.org/2000/svg">
<path d="M491.243 416.463H20.7568C18.9218 416.463 17.1619 415.734 15.8644 414.437C14.5668 413.139 13.8379 411.379 13.8379 409.544V102.621C13.8379 100.786 14.5668 99.0262 15.8644 97.7287C17.1619 96.4311 18.9218 95.7021 20.7568 95.7021H491.243C493.078 95.7021 494.838 96.4311 496.136 97.7287C497.433 99.0262 498.162 100.786 498.162 102.621V409.544C498.162 411.379 497.433 413.139 496.136 414.437C494.838 415.734 493.078 416.463 491.243 416.463ZM27.6757 402.625H484.324V109.54H27.6757V402.625Z" fill="#6E1423"/>
<path d="M256 295.569C230.491 295.617 205.928 285.914 187.337 268.447L16.0177 107.499C15.3553 106.877 14.822 106.13 14.4483 105.302C14.0745 104.473 13.8676 103.579 13.8393 102.671C13.7822 100.836 14.4563 99.0537 15.7133 97.7159C16.9703 96.3782 18.7072 95.5946 20.5419 95.5375C22.3766 95.4804 24.1589 96.1545 25.4966 97.4115L196.809 258.359C212.857 273.383 234.018 281.742 256 281.742C277.983 281.742 299.144 273.383 315.192 258.359L486.504 97.4115C487.842 96.1545 489.624 95.4804 491.459 95.5375C493.294 95.5946 495.031 96.3782 496.288 97.7159C497.545 99.0537 498.219 100.836 498.162 102.671C498.104 104.505 497.321 106.242 495.983 107.499L324.664 268.454C306.072 285.919 281.509 295.619 256 295.569V295.569Z" fill="#6E1423"/>
<path d="M20.7567 416.429C19.3347 416.43 17.947 415.992 16.7824 415.176C15.6178 414.36 14.733 413.205 14.2483 411.868C13.7636 410.531 13.7026 409.078 14.0736 407.705C14.4446 406.332 15.2296 405.107 16.3217 404.196L189.343 259.688C190.039 259.097 190.846 258.65 191.716 258.372C192.586 258.094 193.502 257.991 194.412 258.069C195.322 258.147 196.207 258.405 197.017 258.827C197.827 259.249 198.545 259.827 199.131 260.528C199.716 261.229 200.157 262.038 200.428 262.911C200.699 263.783 200.794 264.7 200.709 265.609C200.624 266.518 200.359 267.402 199.931 268.208C199.502 269.015 198.919 269.728 198.213 270.308L25.1917 414.817C23.948 415.857 22.3783 416.428 20.7567 416.429V416.429Z" fill="#6E1423"/>
<path d="M491.244 416.429C489.623 416.428 488.053 415.857 486.809 414.817L313.788 270.308C313.082 269.728 312.498 269.015 312.07 268.208C311.642 267.402 311.377 266.518 311.292 265.609C311.207 264.7 311.302 263.783 311.573 262.911C311.844 262.038 312.285 261.229 312.87 260.528C313.456 259.827 314.174 259.249 314.984 258.827C315.794 258.405 316.679 258.147 317.589 258.069C318.499 257.991 319.415 258.094 320.285 258.372C321.155 258.65 321.961 259.097 322.658 259.688L495.679 404.196C496.771 405.107 497.556 406.332 497.927 407.705C498.298 409.078 498.237 410.531 497.753 411.868C497.268 413.205 496.383 414.36 495.218 415.176C494.054 415.992 492.666 416.43 491.244 416.429V416.429Z" fill="#6E1423"/>
</svg>
